<svg xmlns="http://www.w3.org/2000/svg" viewBox="0 0 612 612"><defs><style>.cls-1{fill:#fff;}.cls-2{fill:#c4e5eb;}.cls-3{fill:#36b7b4;}.cls-4{fill:#b3b3b3;}.cls-5{fill:#fec715;}.cls-6{fill:#d4e4ae;}.cls-7{fill:#adcf77;}.cls-8{fill:#39ab4e;}.cls-9{fill:#ef7ea8;}.cls-10{fill:#e43f81;}.cls-11{fill:#1d1d1b;}</style></defs><g id="Layer_4" data-name="Layer 4"><path class="cls-1" d="M207.41,529.29l1.79-20.92-15,14.73Zm146-9.59-10,2.19L346.93,538l10-2.19a8.53,8.53,0,0,0,5.63-3.44,8.23,8.23,0,0,0,.82-6.52,8,8,0,0,0-3.44-5.46A8.66,8.66,0,0,0,353.41,519.7Zm96.25-27.6a17.42,17.42,0,0,0,7,4.93,15.92,15.92,0,0,0,8,.9,13.33,13.33,0,0,0,7-3.22,12.75,12.75,0,0,0,3.94-6.4,15.23,15.23,0,0,0,0-7.9,19.35,19.35,0,0,0-11.05-12.53,15,15,0,0,0-7.77-1A13,13,0,0,0,450,470a13.6,13.6,0,0,0-4.1,6.49,15.61,15.61,0,0,0-.16,8A17.19,17.19,0,0,0,449.66,492.1ZM430.34,126a12.39,12.39,0,0,0,6.88,2.26,14.62,14.62,0,0,0,7.4-1.79,18.58,18.58,0,0,0,9.28-13.15,14.58,14.58,0,0,0-.79-7.51,12.56,12.56,0,0,0-4.5-5.71,13.07,13.07,0,0,0-7-2.39,15,15,0,0,0-7.55,1.63,16.56,16.56,0,0,0-6.21,5.42,16.8,16.8,0,0,0-3,7.7,15.29,15.29,0,0,0,.95,7.72A12.9,12.9,0,0,0,430.34,126Zm68.58,44.06a8,8,0,0,0,6.05-1.87A7.76,7.76,0,0,0,508.4,163a8.34,8.34,0,0,0-2-6l-4.95-6.65-12.77,9.52,5,6.65A8.25,8.25,0,0,0,498.92,170.08Zm53.69,114.07a21.87,21.87,0,0,0-12.31,3.71A21.84,21.84,0,0,0,528,284.15a23.58,23.58,0,0,0-19.8,10.65,200.28,200.28,0,0,0-38.84-109,9.38,9.38,0,0,0,1.8-1.05l5-3.71c5.9,7.81,12.86,12.51,20.68,14a27.42,27.42,0,0,0,5,.46c6.49,0,12.87-2.3,19-6.84,9.39-7,11.88-15.24,12.33-20.93.59-7.78-2.08-15.72-8-23.61L509.4,122.91a9.51,9.51,0,0,0-6.22-3.71,10.4,10.4,0,0,0-1.37-.1,9.42,9.42,0,0,0-5.65,1.88l-26.65,19.85a43.87,43.87,0,0,0,3.49-4.32,38.89,38.89,0,0,0,7.21-19.7,38.39,38.39,0,0,0-4.07-20.26,45.2,45.2,0,0,0-33.88-23.88,41.79,41.79,0,0,0-4.85-.29,38.2,38.2,0,0,0-15.54,3.29,38.79,38.79,0,0,0-16.13,13.4,43,43,0,0,0-4.25,7.56,9.43,9.43,0,0,0-4.33-3L383,89l10.65-32.55a9.45,9.45,0,0,0-6.05-11.93l-16.4-5.37a9.47,9.47,0,0,0-11.93,6L346.78,83.3a9.28,9.28,0,0,0-1.69-2.61,10.7,10.7,0,0,0-1-.93,9.57,9.57,0,0,0,.2-1.62l.55-13.26a9.7,9.7,0,0,0-.16-2.16l.3-.27a9.49,9.49,0,0,0,3.05-6.57l.54-13.26a9.47,9.47,0,0,0-9.07-9.85L292,30.83h-.38a9.47,9.47,0,0,0-9.46,9.08L279.81,98a9.47,9.47,0,0,0,2.67,7q-7.62.93-15.07,2.42A10,10,0,0,0,268,105l6.44-62A9.48,9.48,0,0,0,265,32.55a9.21,9.21,0,0,0-2.48.34l-17,4.63a9.45,9.45,0,0,0-7,8.63l-.73,13.66L230.24,48.4a9.46,9.46,0,0,0-7.9-4.25,9.61,9.61,0,0,0-2.48.33l-17.77,4.84A9.45,9.45,0,0,0,196.93,64l36.71,50.27a9.1,9.1,0,0,0,2.22,2.16q-7,2.67-13.77,5.82a9.45,9.45,0,0,0-.73-8.92l-7.21-11.14a9.5,9.5,0,0,0-6-4.11,10.29,10.29,0,0,0-1.34-.19,9.07,9.07,0,0,0-.77-1.44l-7.21-11.15a9.32,9.32,0,0,0-1.37-1.67l.09-.4a9.41,9.41,0,0,0-1.31-7.12L189.07,65A9.45,9.45,0,0,0,176,62.2L136.09,88a9.45,9.45,0,0,0-2.81,13.08L151,128.5a43.86,43.86,0,0,0-3.38-3.11,38.79,38.79,0,0,0-18.79-8.68,35.24,35.24,0,0,0-5.5-.43,36.31,36.31,0,0,0-14.6,3.12,45.21,45.21,0,0,0-16.71,13L75.87,152.11a9.46,9.46,0,0,0,1.3,13.32l44.93,36.91a9.49,9.49,0,0,0,6,2.15c.3,0,.61,0,.92-.05a9.4,9.4,0,0,0,4.39-1.59,200.05,200.05,0,0,0-27.71,95.38A23.68,23.68,0,0,0,84,284.15a21.84,21.84,0,0,0-12.31,3.71,21.87,21.87,0,0,0-12.31-3.71c-13.45,0-24,10.9-24,24.82v.16c0,4.8,1.55,25.86,31.62,42.15a9.33,9.33,0,0,0,3.24,1.12,9.2,9.2,0,0,0,1.39.11h0a9.41,9.41,0,0,0,4.72-1.26c19.19-10.42,26.75-22.77,29.7-31.58a200.77,200.77,0,0,0,51.2,119.86l-.32-.14a30.51,30.51,0,0,0-10.85-2.08,26.9,26.9,0,0,0-5.3.52,26.45,26.45,0,0,0-14.29,8.11,24.48,24.48,0,0,0-6.91,13.87,9.21,9.21,0,0,0-1.24.36l-14.21,5.31a9.46,9.46,0,0,0-6.06,10.18,53.19,53.19,0,0,0,5.92,17.62,57.76,57.76,0,0,0,11.38,15A44.55,44.55,0,0,0,129,517.19a30.2,30.2,0,0,0,11.53,2.37,28.46,28.46,0,0,0,4.6-.38,26.4,26.4,0,0,0,15-8.33c4.33-4.61,6.74-9.7,7.15-15.13a30,30,0,0,0,.08-3.41l.08,0,14.27-5.49a9.46,9.46,0,0,0,5.77-11.16A52.88,52.88,0,0,0,182.4,463a201.89,201.89,0,0,0,24,16.31,9.46,9.46,0,0,0-3.83,2.08l-48.85,43.79A9.46,9.46,0,0,0,156,540.83l16.69,7.8a9.57,9.57,0,0,0,4,.88,9.47,9.47,0,0,0,6.63-2.7l2.67-2.62,10.14,4.74-.31,3.64a9.45,9.45,0,0,0,5.42,9.38L218.6,570a9.47,9.47,0,0,0,13.46-8.14l3-65.21a9.31,9.31,0,0,0-.66-3.93q8.1,3.15,16.54,5.6a9.48,9.48,0,0,0-6.29,7.93l-3.76,35.18a36,36,0,0,0,2.8,19A32.86,32.86,0,0,0,256,574.64a41.8,41.8,0,0,0,18.52,6.26,51.35,51.35,0,0,0,5.19.28,39.07,39.07,0,0,0,14.11-2.52,32.42,32.42,0,0,0,14.85-11.3,36.61,36.61,0,0,0,6.61-17.94l2-18.92,9.35,42.73a9.45,9.45,0,0,0,11.26,7.23l17.5-3.83a9.42,9.42,0,0,0,5.94-4.13,9.56,9.56,0,0,0,1.34-3.4l.36.45a9.49,9.49,0,0,0,7.41,3.57,9.32,9.32,0,0,0,2-.22l19.85-4.34a9.47,9.47,0,0,0,4.77-15.83l-10.49-10.81a28.86,28.86,0,0,0,2.35-5.77,33.3,33.3,0,0,0,.26-16.43c-2.59-11.83-9.45-17.63-14.75-20.4a29.89,29.89,0,0,0-6.42-2.45q5.42-1.72,10.76-3.76a9.4,9.4,0,0,0,1,5l26.95,54a9.45,9.45,0,0,0,12.69,4.24l16-8a9.47,9.47,0,0,0,4.24-12.7l-26.95-54a9.3,9.3,0,0,0-3-3.48q5.63-3.34,11-7a39.52,39.52,0,0,0-1.49,20,40,40,0,0,0,9.58,19.34,40.58,40.58,0,0,0,18.06,12A39.54,39.54,0,0,0,459,524.4a41.37,41.37,0,0,0,9.07-1,46.16,46.16,0,0,0,32.07-28.27,39.56,39.56,0,0,0,1.8-21.27,40.47,40.47,0,0,0-9.68-19.42,39.84,39.84,0,0,0-18-11.92,39.31,39.31,0,0,0-11.89-1.86,41.24,41.24,0,0,0-7.3.68,202.57,202.57,0,0,0,20.75-26.67,200.27,200.27,0,0,0,31.7-90.75c3.83,8.3,11.76,18.55,28.08,27.39a9.44,9.44,0,0,0,3.22,1.12,9.57,9.57,0,0,0,1.41.11h0a9.47,9.47,0,0,0,4.73-1.26c30-16.29,31.6-37.33,31.55-42.12V309C576.59,295.05,566.06,284.15,552.61,284.15Zm-480.9,58.9h0c-26.82-14.47-26.86-32.21-26.81-33.95,0-.05,0-.09,0-.13,0-8,5.8-15.35,14.52-15.35,6.92,0,10.94,5,12.31,9.63,1.37-4.66,5.38-9.63,12.31-9.63,8.72,0,14.51,7.33,14.51,15.35v.13C98.57,310.84,98.52,328.58,71.71,343.05Zm430.1-214.48,15.76,21.15q6.73,9,6.11,17.22T515.13,181q-8.31,6.19-16.59,4.66t-15-10.58L478,167.82l-12.51,9.32-10.3-13.83Zm-52.28,27.15a9.47,9.47,0,0,0-3.07,4q-3.37-3.24-6.89-6.32c.5,0,1,0,1.49,0A38.22,38.22,0,0,0,456.81,150c.36-.16.69-.34,1-.51ZM407.87,109.6a29.89,29.89,0,0,1,5.6-15.07A29.4,29.4,0,0,1,425.7,84.32a29,29,0,0,1,15.44-2.25,35.77,35.77,0,0,1,26.54,18.71,29,29,0,0,1,3.09,15.33,29.29,29.29,0,0,1-5.51,14.94,29.93,29.93,0,0,1-12.32,10.35,29.12,29.12,0,0,1-15.55,2.33A35.42,35.42,0,0,1,410.86,125,29,29,0,0,1,407.87,109.6Zm-9.15,9.73.2-.6a39,39,0,0,0,2.44,8.25c-2-1-3.94-2.06-5.94-3A9.34,9.34,0,0,0,398.72,119.33ZM368.23,48.18l16.4,5.36L371,95.09l23.18,7.58-4.49,13.72-39.58-13Zm-76.58-7.9,47.49,1.95-.55,13.26-30.25-1.24L308,63.37l27.43,1.12-.54,13.26-27.43-1.12-.38,9.2,31.08,1.27-.55,13.26-48.31-2ZM204.57,58.45l17.77-4.83L245.7,89,248,46.65,265,42l-6.44,62-17.29,4.7ZM141.23,96l39.9-25.82,7.21,11.14L162.92,97.73l5,7.66,23.05-14.92,7.21,11.15-23,14.91,5,7.73,26.11-16.9,7.21,11.15-40.6,26.27Zm18.57,46.33c-.06-.18-.14-.35-.21-.53l5.28,8.16a9.45,9.45,0,0,0,7.95,4.32c.24,0,.48,0,.71-.05q-7.47,6.63-14.26,14a39.69,39.69,0,0,0,1.65-5.42A36,36,0,0,0,159.8,142.29ZM128.11,195,83.18,158.12l16.16-19.68a35.75,35.75,0,0,1,13.19-10.37,26.39,26.39,0,0,1,14.86-2,29.32,29.32,0,0,1,14.23,6.65,29,29,0,0,1,9.27,12.76,26.71,26.71,0,0,1,.81,15.16,36.91,36.91,0,0,1-7.8,15.17Zm36,288.42a57,57,0,0,0-4.41-10.76,30.53,30.53,0,0,0-5.54-7.93,6.39,6.39,0,0,0-3.28-1.85,3,3,0,0,0-2.78,1,4.11,4.11,0,0,0-.68,4.49,45.39,45.39,0,0,0,4,7.71,79.23,79.23,0,0,1,5.15,9.86,19.4,19.4,0,0,1,1.37,9q-.37,4.86-4.62,9.37a17,17,0,0,1-9.69,5.47,19.85,19.85,0,0,1-11-1.4,35.08,35.08,0,0,1-10.66-7.07,48.29,48.29,0,0,1-9.52-12.56,43.6,43.6,0,0,1-4.89-14.46L121.73,469a40.29,40.29,0,0,0,3.55,12.5,30.79,30.79,0,0,0,6.39,9.73,8.08,8.08,0,0,0,4.09,2.31,3.64,3.64,0,0,0,3.37-1.2,4.16,4.16,0,0,0,.68-4.62,44.92,44.92,0,0,0-4.1-7.7,75.34,75.34,0,0,1-5.26-9.61,18.52,18.52,0,0,1-1.46-8.88q.34-4.76,4.47-9.15a17.2,17.2,0,0,1,9.25-5.31,19.56,19.56,0,0,1,10.93,1.13,34.21,34.21,0,0,1,11.16,7.3,48.54,48.54,0,0,1,8.52,10.67,44.88,44.88,0,0,1,5,11.75Zm58.53,78-17.31-8.09.88-10.23-22.08-10.31-7.35,7.21L160,532.26l48.86-43.79,16.69,7.79Zm83.23-13.06A27.2,27.2,0,0,1,301,561.79a23,23,0,0,1-10.6,8,31.54,31.54,0,0,1-14.89,1.66,32.34,32.34,0,0,1-14.38-4.79,23.42,23.42,0,0,1-8.83-10.12,26.58,26.58,0,0,1-2-14.11L254,507.29l17.81,1.91-3.77,35.18a11.42,11.42,0,0,0,2,8.44,9.66,9.66,0,0,0,6.95,3.86,9.09,9.09,0,0,0,7.34-2.29,11.81,11.81,0,0,0,3.62-7.88l3.76-35.18,17.8,1.9Zm-25.77-43.9c1.54.21,3.09.4,4.64.57a9.42,9.42,0,0,0-2.32,5.24l-3.76,35.18a4.19,4.19,0,0,1-.47,1.78h-.07a2,2,0,0,1-.32-.06l-.1-.12a3.11,3.11,0,0,1-.17-1.71l3.76-35.18A9.44,9.44,0,0,0,280.06,504.51Zm90,3.19q7.73,4,9.9,14.05a23.72,23.72,0,0,1-.11,11.78,19.36,19.36,0,0,1-5.71,9.14l16.15,16.65-19.84,4.34-11.3-14.19-9.25,2,3.47,15.9-17.49,3.82-12.89-59,27.5-6Q362.33,503.66,370,507.7Zm61.14,32.14-16,8-26.95-54,16-8Zm24-88.89a30,30,0,0,1,16.22.56,30.36,30.36,0,0,1,13.75,9.16,31,31,0,0,1,7.48,14.92,30.17,30.17,0,0,1-1.38,16.26A36.76,36.76,0,0,1,466,514.14a30.14,30.14,0,0,1-16.27-.69,31.08,31.08,0,0,1-13.88-9.28,30.54,30.54,0,0,1-7.36-14.8,30.11,30.11,0,0,1,1.44-16.13A37.08,37.08,0,0,1,455.21,451Zm-67.62,28.16q-2.65,1.23-5.36,2.39A190.87,190.87,0,0,1,307,496.86c-105.85,0-192-86.12-192-192s86.11-192,192-192,192,86.12,192,192C499,382,453.3,448.6,387.59,479.11ZM540.31,343.05h0c-26.81-14.47-26.86-32.21-26.81-33.95V309c0-8,5.79-15.35,14.51-15.35,6.93,0,10.94,5,12.31,9.63,1.37-4.66,5.39-9.63,12.31-9.63,8.72,0,14.52,7.33,14.52,15.35,0,0,0,.08,0,.13C567.17,310.84,567.13,328.58,540.31,343.05ZM130.59,146.4q-5.39-4.43-11.19-4.15a13,13,0,0,0-9.76,5.08l-5,6.09,24,19.69,5.53-6.73a12,12,0,0,0,2.79-10Q136,150.82,130.59,146.4Zm317.24,50.12a179.5,179.5,0,0,0-35.34-34.63,2.86,2.86,0,0,1-.59,1.77c-1,.94-3.68.74-4.4-.29a2.81,2.81,0,0,1,1.25-4.18q-5.69-4-11.67-7.51a4.2,4.2,0,0,1-1.17-.69,176.63,176.63,0,0,0-33.36-15,3.83,3.83,0,0,1-.52,3c-1,.95-3.67.74-4.4-.29a2.81,2.81,0,0,1,.9-4,178,178,0,0,0-108,1.57A3.63,3.63,0,0,1,250,139c-1,.95-3.67.74-4.39-.29a3.87,3.87,0,0,1-.25-.56,177.45,177.45,0,0,0-20.16,9,1.93,1.93,0,0,1,.46.41c2.66,3.67-5,6.91-5.28,2.2A176.37,176.37,0,0,0,201,162.32a2.5,2.5,0,0,1-.54,1.34,2.94,2.94,0,0,1-2,.59q-5.28,4.08-10.22,8.53c.34,1.12.25,2.82-.4,3.5a3.83,3.83,0,0,1-3.65.26q-4.29,4.11-8.3,8.49c.38,1.11.3,2.87-.38,3.57a3.67,3.67,0,0,1-3.17.43q-4.73,5.49-9,11.37a2,2,0,0,1-.43.81,1.65,1.65,0,0,1-.31.2A178.56,178.56,0,0,0,150,221.68a2.19,2.19,0,0,1,.88.65c1.85,2.56-1.33,4.92-3.51,4.49a177.36,177.36,0,0,0-8.62,20.8,4,4,0,0,1-.49,3.16,1.88,1.88,0,0,1-.67.37c-.8,2.52-1.54,5.07-2.23,7.63a2,2,0,0,1,.26-.08c1.77-.41,3.35.24,3.52,2.35.27,3.24-3.25,3.88-5,2.36a178.14,178.14,0,0,0,0,83,3.81,3.81,0,0,1,1.43-.63c1.77-.41,3.35.24,3.52,2.35.22,2.59-2,3.51-3.74,3,.31,1.12.62,2.24.94,3.36s.75,2.5,1.14,3.75c.1.33.21.65.32,1h65.15c1.67-2.4,3.4-4.71,5.15-6.93q2.93-3.7,6-7.07c.09-.09.17-.19.26-.29-.35-3.47.67-8.2,3.07-14.24a41.55,41.55,0,0,1,2.13-4.53,27.83,27.83,0,0,1,5.28-7.09,14.33,14.33,0,0,1,1.53-1.24c-1-.54-1.94-1.11-2.89-1.7q-2.35-1.47-4.58-3.13c-1.14-.85-2.25-1.73-3.32-2.66-1.33-1.14-2.62-2.34-3.85-3.6-1.39-1.41-2.72-2.89-4-4.44-.49-.59-1-1.19-1.42-1.8A65,65,0,0,1,200,290.32c-.27-.54-.54-1.09-.8-1.64a63.67,63.67,0,0,1-2.47-6.24c-.45-1.31-.87-2.62-1.23-3.95-1.28-.79-2.49-1.57-3.58-2.35a9.11,9.11,0,0,1-2.13-2.16,13.16,13.16,0,0,1-1.67-3.31,24.34,24.34,0,0,1-1.18-5.68,50.14,50.14,0,0,1-.08-7.4c.1-1.75.28-3.57.52-5.44.27-2.09.6-4.24,1-6.43a236,236,0,0,1,8.42-30.94c.82-2.43,1.62-4.69,2.35-6.73.08-.23.17-.46.24-.68l-.94-.34a3.11,3.11,0,0,1-2.17-3.76l.52-1.42,1.85-5.09a2.2,2.2,0,0,1,.49-.77,3.31,3.31,0,0,1,3.59-.72l4.89,1.78,2.84,1a3.61,3.61,0,0,1,1.87,1.49l1.3.36c.3-.48.62-1,.94-1.44a79.67,79.67,0,0,1,6.72-8.89c1.6-1.83,3.26-3.57,5-5.23a79.86,79.86,0,0,1,8.19-6.87q2.18-1.57,4.45-3a81.53,81.53,0,0,1,21.48-9.58c.91-.25,1.82-.49,2.74-.72,2.16-.53,4.36-1,6.57-1.32s4.29-.59,6.45-.75q2.9-.23,5.81-.24c2.31,0,4.64.09,7,.28,1.84.16,3.68.39,5.51.67,2,.31,4,.68,5.94,1.14a81.33,81.33,0,0,1,9.63,2.86l10.68,3.93a10.29,10.29,0,0,1,2.95-7.9l2.46-2.44,8.31-8.25,3.76-3.74,3.6-3.58A10.12,10.12,0,0,1,359,151.2l.09,1,.53,6.28.54,6.43.5,5.89.49,5.88a7,7,0,0,1,0,.79,10.14,10.14,0,0,1-1.56,5.49,10.84,10.84,0,0,1-1.42,1.76c1.38.59,2.74,1.23,4.07,1.9a9.31,9.31,0,0,1,1.41-1.53,9.83,9.83,0,0,1,3.32-2l16.19-5.9,4.83-1.75,3-1.09a10.23,10.23,0,0,1,3.33-.6,9.91,9.91,0,0,1,5.8,1.74,11.35,11.35,0,0,1,1.5,1.21A10.05,10.05,0,0,1,404,187.27l-3.5,9.62-2,5.56-2,5.56-1.19,3.27a9.79,9.79,0,0,1-1.11,2.16c-.21.31-.43.61-.67.9,1.28,1.93,2.45,3.93,3.56,6,.19.37.4.72.59,1.08l3.43.54,5.15.81,7.43,1.17,5,.77,2,.32a10.31,10.31,0,0,1,4.13,1.62,10.15,10.15,0,0,1,1,16l-2.82,2.46L418.36,249l-9.74,8.5-1.74,1.52c0,1.75-.08,3.51-.2,5.27,0,.14,0,.27,0,.4l11.47,9.72,3.76,3.18,2.25,1.91a10,10,0,0,1,3.23,10.39,10.1,10.1,0,0,1-8.05,7.32l-1.14.19-4,.68-8.68,1.5-3.6.62-2.87.49c-.36.81-.73,1.64-1.1,2.45-.55,1.24-1.11,2.47-1.69,3.71s-1.2,2.56-1.82,3.83l3.55,5.07,5.71,8.17a10.12,10.12,0,0,1-8.26,15.94l-.39,0-.52,0-6.43-.56-7.29-.64-3.86-.34-2.27-.19c-.39.24-.78.48-1.17.68-.73.6-1.48,1.18-2.24,1.75a63.33,63.33,0,0,1-7.19,4.68c-.36.2-.71.42-1.07.61l1.64.26,3.49.55,2.95.46a10,10,0,0,1,5.94,3.22,10.08,10.08,0,0,1,.53,13L373.23,369l-5.06,6.61-1.72,2.24-.27.31c.61,1.2,1.21,2.41,1.79,3.63l2.53.22,5.25.46,6.07.53,2.76.24a10.19,10.19,0,0,1,8.24,5.69,10.05,10.05,0,0,1-.68,10l-5.48,8.25-4.3,6.5-.33.49a10.39,10.39,0,0,1-1.6,1.88c.4,1.53.78,3.07,1.15,4.62h8.32a10.18,10.18,0,0,1,8.71,4.95c.1.18.18.36.27.53a10,10,0,0,1,.87,7.05,10.28,10.28,0,0,1-.95,2.44L397,439l-3,5.44c3.25-2.5,6.41-5.11,9.45-7.81l-1.88-13.55a10,10,0,0,1,3.71-9.3,9.7,9.7,0,0,1,1.82-1.14,9.88,9.88,0,0,1,6-.95,11.11,11.11,0,0,1,2.08.52l8.34,3.14c.45-.56.89-1.13,1.33-1.71l-.14-.94-.67-4.88-.86-6.17-.4-2.89a10.37,10.37,0,0,1,.16-3.65,10.12,10.12,0,0,1,8.84-7.81,10.26,10.26,0,0,1,4.6.59l.68.26,3.1,1.17c.55-1.08,1.07-2.16,1.59-3.25l-3.26-13.24a10.06,10.06,0,0,1,2.73-9.64,10.52,10.52,0,0,1,2.6-1.84,10.06,10.06,0,0,1,6.56-.84l.51.1c.4-1.59.78-3.19,1.11-4.79a8.58,8.58,0,0,1,4.69-6.1,8.79,8.79,0,0,1,4.39-.84,10,10,0,0,1,1.76.27,8.63,8.63,0,0,1,6.52,7.78c.07.81.12,1.62.17,2.42.09,1.19.16,2.39.22,3.58q.21,4.41.17,8.85c0,1,0,2.05-.07,3.08,0,.47,0,.94,0,1.41l.48-1.09c.63-1.47,1.25-2.94,1.84-4.42.84-2.1,1.64-4.23,2.4-6.37A176.83,176.83,0,0,0,482,336.3a1.66,1.66,0,0,1,.33-2q.72-4.32,1.23-8.71c-1.84-.7-3-2.51-.11-4.45a5.55,5.55,0,0,1,.59-.18q.34-3.69.53-7.43c-2.3-.33-4.56-2.43-1.12-4.7a3.44,3.44,0,0,1,1.28-.29c0-1.22.05-2.45.05-3.67s0-2.63-.05-3.94c-2.35-.24-4.8-2.39-1.28-4.72a3.81,3.81,0,0,1,1.11-.27c-.13-2.5-.32-5-.54-7.46-2.08-.55-3.73-2.5-.57-4.59l.08,0q-.56-4.78-1.38-9.5a1.91,1.91,0,0,1-.27-1.54A176.72,176.72,0,0,0,472,238.77c-2.17-.27-4.34-2.15-1.78-4.26A177.88,177.88,0,0,0,459.75,214c-1.82-.46-3.71-2.5-2.44-4q-3.57-5.66-7.57-11a3.24,3.24,0,0,1-.6,2.18c-1,.93-3.67.73-4.4-.3A2.9,2.9,0,0,1,447.83,196.52Zm-277.33,2a2.41,2.41,0,0,1,1.76-2c1.8-.71,3.63-.15,4.1,1.46C177.78,202.78,169.72,204,170.5,198.57Zm2.35,10c2.5-.53,3.69.87,3.81,2.64.27,4.18-6.45,5-6.45.29C170.21,210,171,208.94,172.85,208.54Zm-.59,12.61c2.91-1,4.1.56,4.4,2.06.94,4.8-5.71,5.56-6.45,1.76C169.71,222.47,170.61,221.72,172.26,221.15Zm.59,12c4.32-.82,5.67,6.43.88,6.75C169.92,240.18,168,234.09,172.85,233.18Zm-.59,12.32c3.07-.95,4.39.73,4.69,2.35,1,5.14-6.26,5.9-7,1.75C169.41,247,170.49,246.05,172.26,245.5Zm-2.35,14.37a3.24,3.24,0,0,1,2.06-1.76c2.22-.82,4.44-.06,5,1.76C178.72,265.81,167.75,267.18,169.91,259.87Zm2.94,10.27c2.78-.51,4.28,1.2,4.39,3.22.29,5.08-7.62,5.45-7.62.3C169.62,271.69,170.79,270.51,172.85,270.14Zm-.3,12.61c3.19-.73,4.56,1,4.69,3.23.3,5.06-7.62,5.8-7.62.29C169.62,284.34,170.44,283.24,172.55,282.75Zm-12.61-73.92c2.57-.79,3.69.62,3.81,2.35.29,3.85-5.57,4.6-5.86.59A2.51,2.51,0,0,1,159.94,208.83Zm-2.05,14.67a2.39,2.39,0,0,1,1.76-2.05c1.79-.71,3.63-.15,4.1,1.46C165.16,227.71,157.11,228.88,157.89,223.5Zm2.34,10c6.5-1.39,2.92,10-1.76,5.28A3.12,3.12,0,0,1,160.23,233.47Zm-.58,12.32c2.91-1,4.1.55,4.39,2.06.94,4.81-5.71,5.56-6.45,1.75C157.11,247.11,158,246.36,159.65,245.79Zm-.3,12.61a3.45,3.45,0,0,1,4.69,4.41C162.24,268.2,153.11,261,159.35,258.4Zm1.76,18.77c-3.8.25-5.69-5.83-.88-6.74C164.56,269.61,165.9,276.86,161.11,277.17Zm-15.54-29a2.39,2.39,0,0,1,1.76-2c1.79-.71,3.63-.15,4.1,1.46C152.84,252.35,144.8,253.52,145.57,248.14Zm4.4,16.13c-3.94,1.78-7.08-5.14-1.76-5.87C151.59,257.94,152.78,263,150,264.27Zm-2.35-30.51c2.63-.81,3.59.59,3.81,2.06C152.61,243.75,140.38,236,147.62,233.76Zm0,37c2.23-.61,4,.44,4.11,2.64C152.29,281.77,139.71,272.91,147.62,270.72Zm-2.34,15.84c-.15-2.09.51-2.73,2.34-3.22,2.82-.77,3.88.65,4.11,2.34C152.34,290.25,145.57,291,145.28,286.56ZM135.3,271c2.58-.8,3.69.61,3.81,2.34.28,3.85-5.56,4.61-5.86.59A2.49,2.49,0,0,1,135.3,271Zm0,12.61c2.64-.82,3.6.58,3.81,2.05C140.29,293.62,128.06,285.88,135.3,283.63Zm-2.05,52.5a2.5,2.5,0,0,1,2.05-2.93c2.58-.8,3.69.61,3.81,2.35C139.39,339.39,133.55,340.15,133.25,336.13Zm2.05-15.25c2.64-.82,3.6.59,3.81,2.05C140.29,330.86,128.06,323.13,135.3,320.88Zm-2.05-10.26a2.4,2.4,0,0,1,1.75-2.06c1.8-.7,3.64-.14,4.11,1.47C140.53,314.83,132.47,316,133.25,310.62Zm0-12.62A2.39,2.39,0,0,1,135,296c1.8-.7,3.64-.14,4.11,1.46C140.53,302.21,132.47,303.39,133.25,298Zm12,50.45c0-1.5.78-2.53,2.63-2.93,2.52-.54,3.7.87,3.82,2.64C152,352.34,145.28,353.12,145.28,348.45Zm2.34-15.54c2.23-.62,4,.44,4.11,2.64C152.29,344,139.71,335.09,147.62,332.91Zm-2.34-9.1c-.15-2.09.51-2.72,2.34-3.22,2.82-.77,3.88.65,4.11,2.34C152.34,327.5,145.57,328.28,145.28,323.81Zm0-11.73c-.5-2.5.39-3.24,2.05-3.81,2.91-1,4.1.55,4.4,2.05C152.66,315.13,146,315.88,145.28,312.08Zm0-12.61c-.5-2.5.39-3.25,2.05-3.82,2.91-1,4.1.56,4.4,2.06C152.66,302.52,146,303.27,145.28,299.47ZM164,349.92c-1.8,5.39-10.93-1.78-4.69-4.4A3.45,3.45,0,0,1,164,349.92Zm-4.1-17.31c5.86-1.52,5.05,6.75.88,6.75C157.83,339.36,155.35,333.81,159.94,332.61Zm-2.64-9.09c0-1.78.67-2.73,2.64-3.23,3.05-.77,4.4.87,4.4,3.23C164.34,327.9,157.3,328.63,157.3,323.52Zm0-12.32c0-1.78.67-2.73,2.64-3.22,3.05-.78,4.4.86,4.4,3.22C164.34,315.58,157.3,316.31,157.3,311.2Zm0-12.61c0-1.79.67-2.73,2.64-3.23,3.05-.77,4.4.87,4.4,3.23C164.34,303,157.3,303.7,157.3,298.59Zm0-12.32c0-1.78.67-2.73,2.64-3.23,3.05-.77,4.4.87,4.4,3.23C164.34,290.65,157.3,291.38,157.3,286.27ZM169.91,347a3.27,3.27,0,0,1,2.06-1.76c2.22-.81,4.44-.05,5,1.76C178.72,352.92,167.75,354.29,169.91,347Zm-.29-11.14c0-2,1.17-3.15,3.23-3.52,2.78-.5,4.28,1.21,4.39,3.23C177.53,340.63,169.62,341,169.62,335.84Zm0-12.32c0-1.93.82-3,2.93-3.52,3.19-.74,4.56,1,4.69,3.23C177.54,328.28,169.62,329,169.62,323.52Zm0-12.32c0-1.5.16-2.9,2.93-3.52,2-.45,3.5.25,4.11,1.18C180.67,314.92,169.62,317.66,169.62,311.2Zm0-12.61c0-1.51.16-2.9,2.93-3.52,2-.45,3.5.25,4.11,1.17C180.67,302.31,169.62,305,169.62,298.59Zm36.93,48.12a3.48,3.48,0,0,1,1.51-1.79Zm3.22-6.37c-2.14-.23-4-1.89-3.49-5.38a3.84,3.84,0,0,1,2.93-3.23,6.44,6.44,0,0,1,2.86-.25A44.74,44.74,0,0,0,209.77,340.34Zm-3-31.88a65.88,65.88,0,0,0,6.58,6.25C210.45,316.4,206,316,206,311.2A4.53,4.53,0,0,1,206.73,308.46Zm-.45,13.3a4.71,4.71,0,0,1,4.11-2.64,4.15,4.15,0,0,1,4.69,2.64,5.54,5.54,0,0,1,.34,2.1q-.76,1.38-1.44,2.88C210.9,329.28,204.14,327.88,206.28,321.76Zm-10.85,29.92a4.1,4.1,0,0,1,1.76-7C206.25,342.33,201.84,357.3,195.43,351.68Zm1.48-57a69.07,69.07,0,0,0,4.37,7,3.64,3.64,0,0,1-2.62,1.29C193.9,303.24,192.25,296.2,196.91,294.66Zm.58,12.44c6.59-1.37,6.28,8.23,1.17,8.5C193.7,315.86,192.1,308.21,197.49,307.1Zm.87,20.82c-4.51,0-6.26-7.63-.58-8.51C204.47,318.38,203.62,327.92,198.36,327.92Zm-4.1,6.45A3.77,3.77,0,0,1,196.9,332c2.55-.8,5,.08,5.57,2.34C204.15,341,192.16,342.63,194.26,334.37ZM182.81,186a2.43,2.43,0,0,1,1.77-2c1.8-.7,3.63-.14,4.1,1.47C190.09,190.16,182,191.34,182.81,186Zm.59,28.17a3.54,3.54,0,0,1,4.7-5.29A3.56,3.56,0,0,1,183.4,214.12Zm1.77-17.9c6.49-1.4,2.91,10-1.77,5.28A3.12,3.12,0,0,1,185.17,196.22Zm-2.94,38.72a3.24,3.24,0,0,1,2.05-1.76,5,5,0,0,1,2.14-.3c-.6,2.33-1.17,4.67-1.68,7C182.84,239.66,181.29,238.12,182.23,234.94Zm1.36,10.72q-.53,2.9-.87,5.57a4,4,0,0,1-.78-2.5A3.06,3.06,0,0,1,183.59,245.66ZM182,260.34c0,.77,0,1.51,0,2.24a5.68,5.68,0,0,1-.11-1.53A4.05,4.05,0,0,1,182,260.34Zm1.11,10.23a18.07,18.07,0,0,0,3.54,7.14C183.11,278.38,179.77,272.69,183.14,270.57Zm6.42,79.35c-1.19,4.29-8.44,2.72-7.62-2.35a2.92,2.92,0,0,1,2.34-2.64A4,4,0,0,1,189.56,349.92Zm-.88-11.15c-4.66,4.67-11.13-5.9-3.22-6.74C188.64,331.69,191.41,336.05,188.68,338.77Zm-7-15.25c0-2.34,1.18-3.44,3.52-3.81,3.07-.5,4.58,1.25,4.69,3.52C190.14,328.74,181.65,329.1,181.65,323.52Zm0-12.32c0-2.23.95-3.32,3.22-3.81,3.33-.72,4.86,1.09,5,3.52C190.14,316.36,181.65,317,181.65,311.2Zm0-12.61c0-2.23.95-3.33,3.22-3.81,3.33-.73,4.86,1.09,5,3.51C190.14,303.75,181.65,304.42,181.65,298.59ZM189.86,286c.28,5.51-8.21,5.87-8.21.29,0-2.33,1.18-3.44,3.52-3.81C188.24,282,189.75,283.71,189.86,286Zm-1.75-59.28c-2,1.75-5.88,1.19-5.88-2.61,0-1.79.68-2.73,2.64-3.23,2.6-.66,4,.43,4.3,2.23C188.82,224.28,188.46,225.48,188.11,226.7ZM196,188.89a3.12,3.12,0,0,1,1.76-5.28C204.27,182.21,200.69,193.56,196,188.89Zm-.59-15.25a2.4,2.4,0,0,1,1.76-2.06c1.79-.7,3.63-.14,4.1,1.47C202.71,177.85,194.66,179,195.43,173.64ZM209.8,159c2.58-.8,3.69.61,3.81,2.34.29,3.86-5.56,4.61-5.86.59A2.5,2.5,0,0,1,209.8,159Zm.29,12.32c2.51-.54,3.7.86,3.82,2.64.27,4.18-6.45,5-6.45.29C207.46,172.71,208.24,171.68,210.09,171.29Zm-1.76,17.89a3.53,3.53,0,0,1,4.7-5.28A3.55,3.55,0,0,1,208.33,189.18Zm12-28.16a2.41,2.41,0,0,1,1.76-2.05c1.8-.7,3.64-.14,4.11,1.47C227.64,165.23,219.59,166.41,220.36,161Zm-.29,14.08c-.49-2.5.4-3.24,2.05-3.81,2.92-1,4.11.55,4.4,2.05C227.46,178.15,220.81,178.9,220.07,175.1Zm12.2-1.82A3.17,3.17,0,0,1,235,171a3.09,3.09,0,0,1,.67-.06C234.53,171.7,233.39,172.47,232.27,173.28Zm1-9.33a3.11,3.11,0,0,1,1.76-5.27C241.52,157.28,237.94,168.63,233.27,164Zm1.46-17.3c2.64-.82,3.6.58,3.82,2C239.73,156.64,227.49,148.9,234.73,146.65ZM272,134.33c2.58-.79,3.69.62,3.82,2.35.28,3.85-5.58,4.6-5.87.58A2.51,2.51,0,0,1,272,134.33Zm-12,0c1.76-.41,3.35.24,3.52,2.35.35,4.28-5.87,4-5.87.29C257.61,136,257.87,134.81,260,134.33ZM245,148.7a2.4,2.4,0,0,1,1.76-2c1.8-.71,3.63-.14,4.11,1.47C252.28,152.92,244.23,154.09,245,148.7Zm5.9,14.43c-1.32.52-2.63,1.08-3.93,1.66a2.88,2.88,0,0,1-2.26-2.3c-.49-2.5.4-3.25,2-3.81,2.91-1,4.11.55,4.4,2A3.66,3.66,0,0,1,250.9,163.13Zm6-2.11c.08-.89.69-1.74,2.14-2.34a3.51,3.51,0,0,1,3.94.69C261,159.84,259,160.39,256.94,161Zm5.07-8.8c-3.93,1.78-7.07-5.14-1.76-5.86C263.64,145.9,264.83,151,262,152.22Zm10-5.86c2.23-.62,4,.44,4.11,2.64C276.65,157.4,264.07,148.54,272,146.36Zm12.61-12c2.64-.82,3.6.59,3.82,2C289.59,144.32,277.36,136.58,284.59,134.33Zm-2.34,15.25c-.14-2.09.51-2.73,2.34-3.22,2.83-.77,3.89.65,4.11,2.34C289.32,153.27,282.55,154.05,282.25,149.58Zm39.6-15.25c2.63-.82,3.6.59,3.81,2C326.84,144.32,314.61,136.58,321.85,134.33Zm-14.37,2a2.4,2.4,0,0,1,1.76-2c1.79-.7,3.63-.14,4.1,1.47C314.75,140.59,306.7,141.77,307.48,136.38Zm1.76,10c2.91-1,4.1.55,4.39,2,.95,4.81-5.7,5.56-6.45,1.76C306.69,147.67,307.58,146.93,309.24,146.36Zm-14.38-10a2.43,2.43,0,0,1,1.76-2c1.8-.7,3.64-.14,4.11,1.47C302.14,140.59,294.09,141.77,294.86,136.38Zm1.94,22,.12,0c1.78-.45,3-.07,3.67.78C299.33,158.89,298.07,158.64,296.8,158.42Zm-2.23-8.25c-.49-2.5.41-3.24,2.05-3.81,2.92-1,4.11.55,4.4,2C302,153.22,295.31,154,294.57,150.17Zm19,13-2-.72c-1.56-.57-3.12-1.08-4.7-1.55.19-1.3.92-2,2.58-2.47,3.06-.77,4.4.87,4.4,3.23A3.46,3.46,0,0,1,313.6,163.12Zm6.72-3.6c-.36.35-.7.73-1,1.11a2.68,2.68,0,0,1,2-2.08Zm-.82-9.94c-.14-2.09.51-2.73,2.35-3.22,2.82-.77,3.88.65,4.11,2.34C326.57,153.27,319.8,154.05,319.5,149.58Zm12.12-1.29a2.58,2.58,0,0,1,1.6-1.59Zm.49-11a2.5,2.5,0,0,1,2.06-2.93c2.58-.79,3.68.62,3.81,2.35C338.26,140.53,332.41,141.28,332.11,137.26Zm18.47,0a13.73,13.73,0,0,0-1.7-.11,14.77,14.77,0,0,0-4,.57,2.77,2.77,0,0,1-.11-.78c0-.93.25-2.16,2.34-2.64,1.77-.41,3.35.24,3.52,2.35A3.1,3.1,0,0,1,350.58,137.29ZM382,149c.07-.93.83-2.05,2.64-2.35a2.85,2.85,0,0,1,2.64.88C390,151.37,381.51,154.76,382,149Zm-10.27-2.35c2.64-.82,3.6.58,3.81,2C376.7,156.64,364.48,148.9,371.71,146.65Zm0,12c2.23-.62,4,.43,4.11,2.63C376.38,169.72,363.8,160.86,371.71,158.68Zm-1.38,18.1c-1.77-1.7-1.84-5.12,1.67-5.78,2.5-.48,4,1.74,3.9,3.76Zm11.52-4.19a3.14,3.14,0,0,1,1.89-1.3,4.32,4.32,0,0,1,2.35-.24ZM382,161a2.39,2.39,0,0,1,1.76-2.05c1.79-.7,3.63-.14,4.1,1.47C389.25,165.23,381.21,166.41,382,161Zm12.61.88a2.51,2.51,0,0,1,2.05-2.93c2.58-.8,3.69.61,3.81,2.34C400.74,165.17,394.89,165.92,394.59,161.9Zm4.77,52.89-.26-.45a12.19,12.19,0,0,0,.61-1.44l1.23-3.38a4.65,4.65,0,0,1,.4,1.66A3.69,3.69,0,0,1,399.36,214.79Zm19.86-40.86a2.82,2.82,0,0,1,2.65-2.35,2.85,2.85,0,0,1,2.64.88C427.29,176.3,418.76,179.69,419.22,173.93Zm0,12a2.43,2.43,0,0,1,1.77-2c1.8-.7,3.63-.14,4.11,1.47C426.5,190.16,418.45,191.34,419.22,186Zm2.06,10.27c2.23-.61,4,.44,4.11,2.64C425.94,207.26,413.37,198.4,421.28,196.22ZM408.41,189l0-.11a14.93,14.93,0,0,0,.91-5.36,2.86,2.86,0,0,1,3.71,2.72C413.34,190.35,410.49,190.34,408.41,189Zm-1.5-15.36a2.4,2.4,0,0,1,1.76-2.06c1.8-.7,3.64-.14,4.1,1.47C414.19,177.85,406.14,179,406.91,173.64Zm2.64,22.29c5.11-.62,4.26,7,0,6.74C406.05,202.45,404.92,196.49,409.55,195.93Zm-3.23,14.95c.08-.65,0-1.91,2.35-2.64a3.87,3.87,0,0,1,3.81.59C417.83,214.18,405.41,218.43,406.32,210.88Zm16.35,9.71a2.93,2.93,0,0,1,1.82.57A14.23,14.23,0,0,0,422.67,220.59Zm2.72-7.65c-1.81,5.4-10.94-1.78-4.7-4.4A3.45,3.45,0,0,1,425.39,212.94Zm-12.48,50.89-1.39-1.18c0-.47,0-.94.05-1.41l2.05-1.79A5.65,5.65,0,0,1,412.91,263.83Zm13.32-15.38c.35,2.57-2.24,4.14-4.55,4Zm-7.88,12a3,3,0,0,1,2.34-2.65,4,4,0,0,1,5.28,5C424.78,267.1,417.52,265.53,418.35,260.46Zm7.71,14.5-5.67-4.8a5.74,5.74,0,0,1,1.19-.32c3-.48,4.58,1.34,4.69,3.52A4.5,4.5,0,0,1,426.06,275Zm-24.19,38.1-1.95-2.78c.38-.78.75-1.59,1.13-2.4a4.71,4.71,0,0,1,1.17,3A5.17,5.17,0,0,1,401.87,313.06Zm-27.75,64.48-1.41-.13,4.32-5.63A4.22,4.22,0,0,1,374.12,377.54Zm6.39-4.16c0-2.34,1.16-3.63,3.52-4.1,3.47-.7,5.14,1.28,5.28,3.81C389.62,379,380.51,379.49,380.51,373.38Zm8.8-11.14c-.74,3.09-4.55,3.91-7,2.44a14.72,14.72,0,0,0,2.06-8.2C387.46,356.12,390.26,358.27,389.31,362.24ZM383.8,353a13.6,13.6,0,0,0-.46-1.36A14.8,14.8,0,0,0,380.4,347c.43-1.66,1.64-2.57,3.63-2.93,3.71-.67,5.46,1.48,5.58,4.11C389.77,351.87,386.52,353.52,383.8,353Zm9.61,19.83a3.57,3.57,0,0,1,2.94-3.23c6.18-1.64,6.85,7.15,2,7.92C396.32,377.83,393,377.17,393.41,372.8Zm7,15.84a3.66,3.66,0,0,1-2.31,1.16,14.37,14.37,0,0,0-1.06-3,15.1,15.1,0,0,0-2.66-3.85,4.81,4.81,0,0,1,2.81-1.1C400.41,381.55,403.18,385.92,400.45,388.64ZM399,413.75c-2.36.95-5.5.23-5-3.7.09-.66,0-1.91,2.35-2.64a3.87,3.87,0,0,1,3.81.59,3.81,3.81,0,0,1,1.34,2.79A14.78,14.78,0,0,0,399,413.75Zm-3.13-12,.18-.27a14.89,14.89,0,0,0,2.42-6.79,3.19,3.19,0,0,1,2.25,1.26C403.58,400.26,398.9,402.88,395.9,401.77Zm1.62-36.6c-4.52,0-6.26-7.63-.59-8.5C403.63,355.63,402.78,365.17,397.52,365.17Zm-4.4-17.31a3.67,3.67,0,0,1,2.37-3.23,15,15,0,0,0,3.5-.42,3.71,3.71,0,0,1,2.94,3.36C402.86,353.9,392.42,355.42,393.12,347.86Zm12.33-36.66c0-2.35,1.15-3.63,3.52-4.1,3.46-.71,5.14,1.27,5.27,3.81C414.55,316.76,405.45,317.31,405.45,311.2Zm4.74,16.71a14.86,14.86,0,0,0-2.59-6.66l-.62-.89a4.46,4.46,0,0,1,2-.95C415.53,318.05,415.25,327.58,410.19,327.91Zm-1.81,16.73c7.37-2.37,7,9.74,0,7.92C404.61,351.59,404.86,345.77,408.38,344.64Zm-2.06,53.09c.08-.66,0-1.92,2.35-2.64a3.85,3.85,0,0,1,3.81.58C417.83,401,405.41,405.27,406.32,397.73Zm-.29-12c0-1.93.83-3,2.94-3.51,3.19-.74,4.55,1,4.68,3.22C414,390.47,406,391.21,406,385.7Zm7.62-10.85c-1.19,4.29-8.44,2.72-7.62-2.35a2.92,2.92,0,0,1,2.35-2.64A4,4,0,0,1,413.65,374.85Zm-7.91-14.08c0-2.23.95-3.32,3.23-3.81,3.32-.72,4.85,1.09,5,3.52C414.23,365.93,405.74,366.6,405.74,360.77ZM407,339.12a16.29,16.29,0,0,0,1.32-1.92,15,15,0,0,0,1.87-5.48,4.67,4.67,0,0,1,3.19,1.48C417.13,338.32,410.21,341.35,407,339.12Zm13.14-37.21a14.93,14.93,0,0,0,6.08-2.51,4.43,4.43,0,0,1-6.74,2.62Zm-.76,106.81,0,0v0Zm4.17-23a15.05,15.05,0,0,0-3,3.24c-1.26-.45-2.16-1.64-1.89-3.87.08-.67,0-1.92,2.35-2.64a3.82,3.82,0,0,1,3.81.59,5.1,5.1,0,0,1,.93,1.23A15.76,15.76,0,0,0,423.53,385.75Zm-5.18-12.37c0-2,1.17-3.15,3.23-3.52,2.78-.5,4.28,1.21,4.39,3.23C426.26,378.17,418.35,378.54,418.35,373.38Zm0-12.9a3.19,3.19,0,0,1,2.64-3.23c3.28-.95,4.67.79,5,2.64C426.89,365.36,418,367,418.35,360.48ZM426,349.92c-1.19,4.29-8.45,2.72-7.62-2.35a2.93,2.93,0,0,1,2.34-2.64A4,4,0,0,1,426,349.92Zm-7.91-14.08c0-2.25,1.24-3.45,3.52-3.81,3-.48,4.58,1.33,4.69,3.52C426.55,341,418.06,341.38,418.06,335.84Zm0-12.32c0-2.23.95-3.32,3.22-3.81,3.33-.72,4.86,1.09,5,3.52C426.55,328.68,418.06,329.35,418.06,323.52Zm0-12.61a3.57,3.57,0,0,1,2.93-3.52c3.45-.94,5,.93,5.28,3.23C426.86,316.18,417.7,317.63,418.06,310.91ZM432,283.53a4.93,4.93,0,0,1,1.9-.78,3.81,3.81,0,0,1,4.1,1.17c3.12,4.72-2.86,7.42-5.68,5.36A14.78,14.78,0,0,0,432,283.53Zm-.16-97.28c.07-.94.83-2.06,2.65-2.35a2.83,2.83,0,0,1,2.63.88C439.9,188.63,431.38,192,431.84,186.25Zm0,12.32a2.41,2.41,0,0,1,1.76-2c1.8-.71,3.64-.15,4.11,1.46C439.12,202.78,431.07,204,431.84,198.57Zm2.35,10c6.49-1.4,2.91,10-1.76,5.28A3.12,3.12,0,0,1,434.19,208.54Zm-.59,12.61c2.92-1,4.11.56,4.4,2.06.95,4.8-5.71,5.56-6.45,1.76C431.06,222.47,432,221.72,433.6,221.15Zm.21,12.13c.13,0,.24-.08.38-.1,4.32-.82,5.66,6.43.88,6.75a3.3,3.3,0,0,1-1.84-.42A14.68,14.68,0,0,0,433.81,233.28Zm-2.55,14.86c.07-.66,0-1.91,2.34-2.64a3.87,3.87,0,0,1,3.82.59C442.76,251.43,430.34,255.69,431.26,248.14Zm0,11.73a3.19,3.19,0,0,1,2.05-1.76c2.22-.82,4.44-.06,5,1.76C440.06,265.81,429.09,267.18,431.26,259.87Zm2.93,10.27c2.78-.51,4.28,1.2,4.4,3.22.29,5.08-7.62,5.45-7.62.3C431,271.69,432.13,270.51,434.19,270.14ZM431,298.29a3.17,3.17,0,0,1,2.63-3.22c3.28-.95,4.68.79,5,2.64C439.5,303.17,430.62,304.8,431,298.29Zm0,12.62a3.17,3.17,0,0,1,2.63-3.23c3.28-.95,4.68.79,5,2.64C439.5,315.79,430.62,317.42,431,310.91Zm2.49,59.4a15.16,15.16,0,0,0,.44,3.64l.72,2.93C431.81,376.7,429.57,371.71,433.46,370.31Zm.84,12.27a3.84,3.84,0,0,1,1.71,0l.08.32A15.49,15.49,0,0,0,434.3,382.58Zm3.61-22.77a15,15,0,0,0-3.12,4.44c-2,.17-3.91-.93-3.53-4.06.07-.67,0-1.92,2.34-2.64a3.87,3.87,0,0,1,3.82.58,5.63,5.63,0,0,1,.95,1.26A6.2,6.2,0,0,0,437.91,359.81ZM431.26,347a3.62,3.62,0,0,1,3.23-2.05c3.06-.34,4,1.41,4.1,3.23C438.92,353.94,429.06,353,431.26,347ZM431,335.84c0-1.93.82-3,2.93-3.52,3.19-.73,4.55,1,4.69,3.23C438.88,340.6,431,341.35,431,335.84Zm0-12.32c0-1.51.16-2.9,2.93-3.52a3.81,3.81,0,0,1,4.1,1.17C442,327.24,431,330,431,323.52ZM474.45,362c-.06-1.05-.13-2.09-.21-3.13l.13.14A2.42,2.42,0,0,1,474.45,362Zm-1.92-10.72a13.45,13.45,0,0,0-3.22-4,2.75,2.75,0,0,1,2.12-1.48c1.77-.41,3.36.24,3.53,2.35A2.67,2.67,0,0,1,472.53,351.28Zm-3.44-40.66a2.4,2.4,0,0,1,1.76-2.06c1.8-.7,3.64-.14,4.11,1.47C476.37,314.83,468.32,316,469.09,310.62Zm0,12.31a2.4,2.4,0,0,1,1.76-2.05c1.8-.7,3.64-.14,4.11,1.47C476.37,327.14,468.32,328.32,469.09,322.93Zm0-24.93a2.39,2.39,0,0,1,1.76-2.05c1.8-.7,3.64-.14,4.11,1.46C476.37,302.21,468.32,303.39,469.09,298Zm0-12.32a2.4,2.4,0,0,1,1.76-2.05c1.8-.71,3.64-.14,4.11,1.47C476.37,289.89,468.32,291.07,469.09,285.68Zm0-37.25a3.16,3.16,0,0,1,5.28-1.46C477.15,250.81,468.62,254.19,469.09,248.43ZM475,261.05c.35,4.27-5.87,4-5.87.29,0-.93.25-2.16,2.34-2.64C473.2,258.29,474.79,258.94,475,261.05Zm-3.82,10c2.64-.82,3.6.58,3.82,2.05C476.14,281,463.91,273.27,471.14,271Zm0,62.18c2.64-.82,3.6.58,3.82,2.05C476.14,343.19,463.91,335.45,471.14,333.2Zm-14.66-21.12c-.49-2.5.4-3.24,2-3.81,2.91-1,4.11.55,4.4,2.05C463.87,315.13,457.22,315.88,456.48,312.08Zm0,12.32c-.49-2.5.4-3.25,2-3.81,2.91-1,4.11.55,4.4,2.05C463.87,327.45,457.22,328.2,456.48,324.4Zm0-24.93c-.49-2.5.4-3.25,2-3.82,2.91-1,4.11.56,4.4,2.06C463.87,302.52,457.22,303.27,456.48,299.47Zm0-12.32c-.49-2.5.4-3.24,2-3.81,2.91-1,4.11.55,4.4,2.05C463.87,290.2,457.22,291,456.48,287.15Zm2.64-65.7c1.77-.41,3.35.24,3.52,2.34.35,4.28-5.86,4-5.86.3C456.78,223.16,457,221.93,459.12,221.45Zm-.29,12.31c2.63-.81,3.59.59,3.81,2.06C463.82,243.75,451.59,236,458.83,233.76Zm-2.05,14.38a2.37,2.37,0,0,1,1.75-2c1.8-.71,3.64-.15,4.11,1.46C464.05,252.35,456,253.52,456.78,248.14Zm2.34,10.26c2.5-.53,3.7.87,3.81,2.65.28,4.17-6.45,5-6.45.29C456.48,259.83,457.27,258.8,459.12,258.4Zm-.29,12.32c2.23-.61,4,.44,4.1,2.64C463.49,281.77,450.91,272.91,458.83,270.72Zm0,62.19c2.23-.62,4,.44,4.1,2.64C463.49,344,450.91,335.09,458.83,332.91Zm-10.42,18.85a3.55,3.55,0,0,1-1,.21c-3.81.25-5.7-5.83-.88-6.75,2.37-.44,3.83,1.53,3.89,3.46A13.55,13.55,0,0,0,448.41,351.76Zm-4.84-15.92c0-1.78.68-2.73,2.64-3.23,3.07-.77,4.4.87,4.4,3.23C450.61,340.22,443.57,341,443.57,335.84Zm0-11.44c-.5-2.64.59-3.56,2.35-4.11,3.07-1,4.39.73,4.69,2.35C451.59,327.79,444.35,328.55,443.57,324.4Zm0-13.78c.08-.67,0-1.92,2.35-2.64a3.87,3.87,0,0,1,3.82.58C455.08,313.91,442.66,318.16,443.57,310.62Zm0-12.62c.08-.66,0-1.91,2.35-2.64a3.89,3.89,0,0,1,3.82.59C455.08,301.3,442.66,305.55,443.57,298Zm0-11.73c0-1.78.68-2.73,2.64-3.23,3.07-.77,4.4.87,4.4,3.23C450.61,290.65,443.57,291.38,443.57,286.27Zm0-12.61c0-1.79.68-2.73,2.64-3.23,3.07-.78,4.4.86,4.4,3.23C450.61,278,443.57,278.77,443.57,273.66Zm3.23-15.55c5.11-.62,4.26,7,0,6.75C443.3,264.63,442.17,258.68,446.8,258.11Zm-2.93-8.51c-.49-2.49.4-3.24,2.05-3.81,2.91-1,4.11.55,4.4,2.06C451.26,252.66,444.61,253.41,443.87,249.6Zm2.34-16.13c2.23-.62,4,.44,4.11,2.64C450.88,244.52,438.3,235.66,446.21,233.47Zm-2-10a2.39,2.39,0,0,1,1.76-2.05c1.8-.71,3.63-.15,4.11,1.46C451.44,227.71,443.39,228.88,444.16,223.5Zm2-14.67c2.63-.82,3.6.59,3.82,2C451.21,218.82,439,211.08,446.21,208.83Zm-54.72,65.63a11.44,11.44,0,0,0-1.22-1.5l-.73-.33-.25-.11-1.94-.84c-1.55-.67-3.17-1.37-4.84-2.07l-2.72-1.15-5.7-2.34c-1.84-.74-3.72-1.49-5.61-2.22-1.15-.46-2.31-.9-3.48-1.35-1.71-.65-3.43-1.29-5.14-1.91s-3.11-1.12-4.58-1.63c-1.2-.42-2.37-.82-3.49-1.19l-2.06-.68-3.28-.78c-3.64-.85-7.7-1.72-11.41-2.36l-1.38-.23a42.83,42.83,0,0,0-8-.69,5.11,5.11,0,0,0-2.32.51,5.71,5.71,0,0,0-.73.56,11.72,11.72,0,0,0-1.81,2.1,34.59,34.59,0,0,0-3.29,6.24,68.76,68.76,0,0,0-2.58,7.42,94.93,94.93,0,0,0-2.17,9.29c-.07.41-.15.82-.22,1.24-.58,3.36-1,7-1.35,10.83a76,76,0,0,0,1.42,13.27c0,.22.08.44.13.66a63.66,63.66,0,0,0,2.44,8.64l.79.54c.74.47,1.74,1.05,3,1.71.65.34,1.36.7,2.14,1.08l.66.32c1.73.82,3.78,1.73,6.13,2.71l2,.8q2.46,1,5.32,2,2.69,1,5.36,1.86l1.59.52c3,1,6,1.87,8.88,2.65,2.66.72,5.24,1.35,7.65,1.87l1.53.32c.93.19,1.83.35,2.69.5,1.09.19,2.12.35,3.1.47s1.7.21,2.48.27c0,0,1.5-.25,4.24-2.95a44.18,44.18,0,0,0,5-6c1.36-1.94,2.86-4.29,4.49-7.16,1.32-2.29,2.72-4.91,4.2-7.91l.34-.69.85-1.74c.36-.76.73-1.53,1.1-2.33l0-.1c.21-.44.4-.89.6-1.33l1-2.19c.32-.73.64-1.45.95-2.18.57-1.3,1.13-2.6,1.66-3.88.33-1.19.62-2.42.85-3.68a28.08,28.08,0,0,0,.45-6.46A15.76,15.76,0,0,0,391.49,274.46Zm-11,22.33c-.1.49-.2,1-.33,1.46,0,.16-.07.33-.12.5-.15.56-.32,1.12-.51,1.67-.09.28-.2.55-.3.82a26.68,26.68,0,0,1-1.4,3.07,28,28,0,0,1-3.68,5.22,26.09,26.09,0,0,1-5.32,4.48l-.16.09a24.77,24.77,0,0,1-3,1.65l-.72.33a26.22,26.22,0,0,1-18.48.74l-.31-.1c-.67-.23-1.32-.49-2-.77a27,27,0,0,1-4.07-2.21A26.18,26.18,0,0,1,332.5,306a26.49,26.49,0,0,1-1.75-3.23,25.37,25.37,0,0,1-1.5-4.18,26.27,26.27,0,0,1,18.11-31.95A26.65,26.65,0,0,1,350,266a26.47,26.47,0,0,1,10.92.34c.77.19,1.54.41,2.31.68a26.19,26.19,0,0,1,13.15,10.05,27.31,27.31,0,0,1,1.77,3,26.58,26.58,0,0,1,1.92,5.1,25.16,25.16,0,0,1,.7,3.68A26,26,0,0,1,380.48,296.79Zm-166-85.72a14,14,0,0,0-1.84.86,17.07,17.07,0,0,0-3.74,2.9.34.34,0,0,0-.08.09,30.1,30.1,0,0,0-5.56,8.34c-.1.2-.2.41-.29.62s-.22.71-.34,1.07c-.79,2.58-1.57,5.24-2.32,7.94-.1.38-.21.75-.32,1.12q-.88,3.3-1.57,6.19c-.4,1.7-.74,3.29-1.05,4.8-.54,2.66-.95,5.06-1.24,7.18-.33,2.35-.52,4.38-.61,6.15a36,36,0,0,0,.15,6.44l0,.32c.42,3,1.21,4,1.23,4,.27.2.56.39.85.59l.78.51c1.19.79,2.53,1.59,4,2.41,1.17.67,2.41,1.34,3.71,2,2,1,4.09,2.07,6.32,3.09,3,1.41,6.27,2.8,9.62,4.13q2.46,1,5,1.91l.7.26,2.91,1c3.61,1.25,6.76,2.22,9.42,2.95,1.2.33,2.29.61,3.29.85a38.32,38.32,0,0,0,5.62,1c1.3-.75,2.54-1.55,3.74-2.37.79-.53,1.56-1.08,2.31-1.64a68.23,68.23,0,0,0,6-5c.89-.83,1.73-1.66,2.54-2.49.56-.57,1.1-1.14,1.63-1.71l1.39-1.55.69-1c1.33-1.9,2.56-3.78,3.69-5.61.34-.54.66-1.07,1-1.6,1.87-3.15,3.46-6.15,4.78-9a70.81,70.81,0,0,0,3.54-9c.39-1.26.7-2.43.94-3.52a20,20,0,0,0,.56-5.54,6.19,6.19,0,0,0-.26-1.44,4,4,0,0,0-.94-1.38,21.55,21.55,0,0,0-3.37-2.73c-1.26-.88-2.73-1.8-4.32-2.75-2.68-1.58-5.68-3.2-8.57-4.7-1.84-1-3.65-1.86-5.29-2.67-1-.41-2.05-.83-3.13-1.25l-4.21-1.6c-.86-.33-1.75-.65-2.66-1l-1.6-.58c-4-1.44-8-2.81-12-4.1l-2.8-.9c-1.93-.62-3.83-1.22-5.68-1.79-2.69-.83-5.27-1.61-7.69-2.32l-1.46-.43A13,13,0,0,0,214.49,211.07Zm8.3,21.17a26.12,26.12,0,0,1,9-6.46,26.21,26.21,0,0,1,19.11-.78c.46.16.92.33,1.37.51a26.24,26.24,0,0,1,9.12,6.23,25.93,25.93,0,0,1,4.1,5.67,26.28,26.28,0,0,1,1.71,21,27.31,27.31,0,0,1-1.69,3.86,26.54,26.54,0,0,1-2.25,3.51,27,27,0,0,1-2.27,2.61,26.53,26.53,0,0,1-5.8,4.39c-.69.39-1.39.74-2.1,1.06a26.36,26.36,0,0,1-9.49,2.27A25.77,25.77,0,0,1,240,276a26.24,26.24,0,0,1-6.2-1.33,26.84,26.84,0,0,1-3-1.26,26.54,26.54,0,0,1-3.47-2,25.5,25.5,0,0,1-3.11-2.54,26.32,26.32,0,0,1-6.71-27.58,27.48,27.48,0,0,1,1.74-3.95A25.86,25.86,0,0,1,222.79,232.24Zm143.66,45.58a10.43,10.43,0,0,0-13.23,6.45c-.05.15-.09.3-.13.45a10.22,10.22,0,0,0-.38,3.94,10.37,10.37,0,0,0,12.42,9.2,10.58,10.58,0,0,0,2.62-.91,10.23,10.23,0,0,0,5.06-5.66l.1-.24a10.43,10.43,0,0,0-6.46-13.23ZM247.31,255.5a10.4,10.4,0,0,0,13.63-11.71,10.48,10.48,0,0,0-6.85-8,11.28,11.28,0,0,0-1.69-.42,10.41,10.41,0,0,0-5.09,20.11Zm29,127a28.53,28.53,0,0,0-2.17-4.27,30,30,0,0,0-22.52-14.13c-1-.09-1.93-.14-2.91-.14H139.37a175.5,175.5,0,0,0,8.11,19.25c.77,1.56,1.57,3.11,2.38,4.65a177.41,177.41,0,0,0,12.72,20.5l.77,1.05q4.18,5.74,8.82,11.15c1.13,1.31,2.27,2.61,3.44,3.89q4.15,4.56,8.62,8.83,1.91,1.83,3.86,3.58,4.83,4.35,10,8.35c1,.76,2,1.51,2.95,2.25a178.59,178.59,0,0,0,19.39,12.58c1.62.9,3.24,1.79,4.89,2.64a176.77,176.77,0,0,0,20,8.89c1.78.66,3.56,1.29,5.36,1.89a175.93,175.93,0,0,0,27.87,6.87V393.83a29.87,29.87,0,0,0-1.08-8A31.08,31.08,0,0,0,276.31,382.54Zm125-87v0h0l17.23-3a5.26,5.26,0,0,0,3.52-2.24,5.63,5.63,0,0,0,.78-1.66,5.3,5.3,0,0,0-1.72-5.54l-.57-.49L414,277.12l-1.73,4.75a2.22,2.22,0,0,1-.29.55,3.25,3.25,0,0,1-3.78.94l-1-.36-.91-.33C404.91,286.36,403.22,290.79,401.27,295.53Zm-12.19,25.26c-1.51,2.59-3.07,5-4.67,7.27a54.7,54.7,0,0,1-4.66,5.76l.76.06,9.15.8,3.46.31,1.84.16a5.3,5.3,0,0,0,5.14-2.68c.08-.15.15-.3.22-.45a5.23,5.23,0,0,0-.24-5c-.08-.13-.14-.26-.23-.38l-4.91-7L392,315.5C391.07,317.31,390.08,319.08,389.08,320.79Zm44.26,80.59c1.18-1.88,2.3-3.78,3.39-5.7.41-.72.82-1.43,1.21-2.15l-3.23-1.22a5.29,5.29,0,0,0-1.91-.35,5.39,5.39,0,0,0-5.33,6.14l1.39,10Q431.2,404.82,433.34,401.38ZM446,376.05c.72-1.89,1.39-3.79,2-5.7q.85-2.57,1.61-5.16l-.1,0a5.39,5.39,0,0,0-6.47,6.54l1.79,7.27C445.27,378,445.65,377,446,376.05Zm-25.64,43.17-6.87-2.59a5.4,5.4,0,0,0-7.25,5.79l1.43,10.29A167.89,167.89,0,0,0,420.38,419.22Zm-25.74,14.12a5.4,5.4,0,0,0-4.74-8h-7.26c.05.22.09.43.13.65q.69,3.24,1.27,6.53.56,3.13,1,6.31c.31,2.06.59,4.14.84,6.22.14,1.18.29,2.36.42,3.55l1.17-2.16Zm1.1-237.19L398,190l1.57-4.31a5.61,5.61,0,0,0,.32-1.48,5.45,5.45,0,0,0-5.34-5.78,5.77,5.77,0,0,0-1.9.34l-16.57,6-7.25,2.64-.19.07a5.36,5.36,0,0,0-2.12,1.4,80.34,80.34,0,0,1,14.65,10.87c1.11,1,2.2,2.12,3.25,3.22a80.08,80.08,0,0,1,6.18,7.24c.08-.17.16-.35.23-.53l3.31-9.1Zm-69.62-23.39.24.09,4.92,1.81,6.33,2.33,15.27,5.61a5.49,5.49,0,0,0,1.46-.8,5.29,5.29,0,0,0,2.11-4.74l-2.15-25.47a5.3,5.3,0,0,0-3.52-4.61,5.79,5.79,0,0,0-1.07-.27,6,6,0,0,0-.84-.07,5.28,5.28,0,0,0-3.75,1.58l-.66.65-9.41,9.35-3.39,3.37L327,166.23a5.3,5.3,0,0,0-1.47,5c0,.08.05.15.07.22A5.21,5.21,0,0,0,326.12,172.76ZM388.17,396.3l0,0a5.4,5.4,0,0,0-4-8.36l-3.14-.27-4.29-.38-6.49-.56c.48,1.08.93,2.18,1.39,3.27q.9,2.16,1.76,4.36,1.28,3.27,2.44,6.63c1.07,3.09,2.1,6.21,3,9.39l5.36-8.08Zm25.46-149.41,8-6.95,1-.88a5.29,5.29,0,0,0,1.64-5.56c0-.13-.1-.26-.14-.39a5.25,5.25,0,0,0-4.21-3.44l-19.32-3-.45-.07.15.36A81.14,81.14,0,0,1,406,247.08c.21,1.4.38,2.81.51,4.22.05.55.12,1.11.16,1.67l.86-.75ZM373.82,360.41a5.32,5.32,0,0,0,1.08-3.93,5,5,0,0,0-.35-1.36,5.52,5.52,0,0,0-1.12-1.75,5.4,5.4,0,0,0-3.05-1.58l-1.56-.24-4.1-.64-9.52-1.5-.39.14c-.84.31-1.68.61-2.53.89-1.08.35-2.16.67-3.25,1,.42.52.83,1.05,1.24,1.58,1.63,2.08,3.23,4.24,4.78,6.47l1,1.47c1,1.5,2,3,3,4.58.64,1,1.27,2.06,1.89,3.1,1,1.63,1.92,3.27,2.84,4.94l.69-.9,6-7.85Zm87-6.82h-.28a3.79,3.79,0,0,0-3.89,3.19c-.39,1.88-.84,3.75-1.31,5.62-.2.77-.39,1.54-.6,2.31s-.43,1.53-.66,2.29a140.62,140.62,0,0,1-5.76,16c-.51,1.19-1,2.39-1.56,3.57l-.94,2c-.22.46-.44.93-.67,1.39l-.51,1.07c-.3.61-.62,1.2-.93,1.8-.06.1-.11.21-.17.32-.36.71-.73,1.41-1.11,2.11-2.3,4.26-4.84,8.42-7.55,12.5q-1.41,2.12-2.88,4.18c-.72,1-1.43,2-2.18,3-.54.72-1.1,1.45-1.66,2.17l-.31.4c-.4.52-.8,1-1.21,1.55l-.51.63c-.35.44-.71.87-1.07,1.31-.06.08-.13.15-.2.23-1.26,1.54-2.56,3.05-3.89,4.55-2.62,2.95-5.35,5.83-8.19,8.61-1.37,1.35-2.76,2.68-4.19,4l-.09.09c-.7.64-1.4,1.29-2.12,1.92s-1.38,1.2-2.07,1.8c-1.45,1.24-2.93,2.46-4.42,3.66s-3,2.37-4.55,3.52q-4.1,3.07-8.39,5.93c.08,1.06.15,2.13.22,3.19.07,1.26.14,2.52.2,3.78l.06,1.18q3.87-2,7.65-4.13l2.4-1.41q5.9-3.5,11.51-7.44c1.18-.83,2.36-1.68,3.52-2.54a179.13,179.13,0,0,0,35.38-34.68c.63-.81,1.26-1.63,1.87-2.46q3.81-5.11,7.25-10.5c.06-.28.13-.56.19-.84.17-.71.35-1.42.51-2.14,0-.11.05-.23.08-.35s.06-.31.1-.46c.54-2.44,1-4.88,1.46-7.33l.09-.61c.33-1.85.61-3.71.87-5.57q.46-3.34.8-6.71c.17-1.65.31-3.31.42-5l0-.43c0-.26,0-.53,0-.79.05-.84.09-1.67.13-2.5s.06-1.68.09-2.52,0-1.45,0-2.18c0-1.48,0-3,0-4.45s-.06-3.11-.13-4.67A4.83,4.83,0,0,0,460.8,353.59ZM313.58,454.13l5.61-5.46,4.39-4.27,7.83-7.61,5-4.83,7.74-7.53.2-.2,3.84-3.74c-.13-.44-.27-.87-.4-1.3-.44-1.48-.9-3-1.37-4.41q-1-3.22-2.21-6.37c-1.48-4.07-3.1-8-4.81-11.87a3.84,3.84,0,0,0-.36-.8c-.85-1.88-1.71-3.75-2.61-5.57-1.39-2.79-2.82-5.51-4.32-8.16q-2.1-3.7-4.35-7.21-2.09-3.24-4.29-6.3c-.62-.87-1.25-1.73-1.88-2.57-1.35-1.8-2.74-3.53-4.15-5.23-.77-.91-1.55-1.82-2.33-2.7-.58-.66-1.16-1.32-1.74-2s-1.21-1.27-1.82-1.9c-.44-.46-.88-.93-1.33-1.38,0,.47,0,.95,0,1.43s-.06.87-.1,1.31a39.09,39.09,0,0,1-1.82,8.3c-.19.6-.4,1.18-.6,1.74a35,35,0,0,1-5,9.76,10.36,10.36,0,0,1-4,3.26,6.59,6.59,0,0,1-2,.51c.3.63.58,1.28.87,1.91q1.89,4.11,3.51,8.52a134.91,134.91,0,0,1,5.43,18.93c.39,1.86.75,3.76,1.08,5.67.28,1.66.54,3.33.77,5l15.42-15.43a2.37,2.37,0,0,1,3.35,3.35l-32.68,32.68a16.39,16.39,0,0,0-3.1,18.81,19.32,19.32,0,0,0,3.21.8,21.55,21.55,0,0,0,6.42.05,26.36,26.36,0,0,0,8-2.48A31,31,0,0,0,313.58,454.13Zm38.57-108.67-1.22.44,1.23-.42c.85-.29,1.7-.6,2.54-.94s1.9-.79,2.85-1.22a58.66,58.66,0,0,0,6.58-3.58H364a68.91,68.91,0,0,1-9.47,4.79C353.76,344.85,353,345.16,352.15,345.46ZM320.93,466.22a20.83,20.83,0,0,1-7.81,4.91,21.14,21.14,0,0,1-5.65,1.17l-.9.06c-.74,3.52-1.6,6.93-2.56,10.27,1,0,2,0,3,0a177,177,0,0,0,49.71-7.08,225.31,225.31,0,0,0-4.84-40.32ZM265.28,332.94l-.17-.06-1.33-.49.82.73.57-.15ZM208,294.78a58.51,58.51,0,0,0,19.7,18.42,59.68,59.68,0,0,0,8.55,4l.4.16,7.18,2.64,2.61,1,.09,0,3.25,1.19h0L253,323.4l.1,0,2.12.79,6.42,2.36,2.53.93,7.95,2.92,5.08,1.87,3,1.11,10.05,3.7.49.18.15,0,1.34.5,8.47,3.11,3.67,1.35,3.3,1.21,4.64,1.71c1,.38,2.08.72,3.13,1l1.71.48a59,59,0,0,0,11.06,1.91c.51,0,1,.09,1.52.11a58.34,58.34,0,0,0,10.32-.41l.26,0,1.08-.15,1-.76h0c.63-.47,1.25-1,1.86-1.46,1.06-.86,2.08-1.76,3.08-2.68q1.17-1.06,2.28-2.19c1-1,2-2.05,2.92-3.12l.36-.39-.22-.06c-3.37-.82-6.86-1.8-10.33-2.87-.74-.22-1.47-.45-2.21-.69-2.71-.87-5.41-1.79-8-2.74l-.24-.09c-2.26-.82-4.44-1.66-6.52-2.51-.68-.27-1.35-.55-2-.83-2.41-1-4.63-2-6.62-3l-.14-.07a39.34,39.34,0,0,1-7.64-4.63,5,5,0,0,1-1.51-1.82l-.06-.14c-.19-.51-.37-1-.55-1.54a72.22,72.22,0,0,1-2.36-8c-.54-2.33-1-4.6-1.26-6.82-.34-2.48-.57-4.89-.7-7.2q-.11-2.16-.12-4.2c0-2.78.07-5.38.22-7.72.14-2.09.31-4,.47-5.61l.18-1.82.15-1.53c.41-4.12.85-8,1.44-11.44,0-.16,0-.31.07-.47l-.18-.19a11.57,11.57,0,0,0-1.8-1.64,18.1,18.1,0,0,0-4.75-2.5,20.38,20.38,0,0,0-3.28-.9,13.19,13.19,0,0,0-4.66-.1c-.21.37-.44.75-.67,1.13-1.72,2.87-3.73,5.89-5.91,9.09L282.18,269l-.19.26c-.58.85-1.22,1.78-1.92,2.76-.58.81-1.2,1.67-1.87,2.56-1.06,1.43-2.23,2.93-3.53,4.48-.42.52-.87,1-1.32,1.56-1.79,2.05-3.78,4.17-6,6.27-.71.66-1.44,1.33-2.19,2-1.1,1-2.26,1.91-3.45,2.84-.64.5-1.29,1-1.95,1.48-1.41,1-2.88,2-4.42,3-.68.42-1.38.83-2.09,1.24-.37.21-.73.44-1.12.65-1.34.74-4.76.47-9.36-.54-.69-.15-1.41-.31-2.15-.49-2.52-.62-5.3-1.42-8.26-2.36-2.4-.76-4.9-1.61-7.46-2.54-3.26-1.19-6.6-2.51-9.9-3.9-2.95-1.24-5.86-2.55-8.64-3.89-1.66-.8-3.28-1.6-4.82-2.42.58,1.61,1.22,3.2,2,4.77A59.55,59.55,0,0,0,208,294.78Zm48.71,7.91a8,8,0,0,1,.33-1.23,2.37,2.37,0,1,1,4.44,1.64,3.5,3.5,0,0,0-.2,1.14,4.74,4.74,0,0,0,.2,1.5,13.17,13.17,0,0,0,4.43,6l1,.77a27.16,27.16,0,0,0,3,1.92,33.27,33.27,0,0,0,4.28,2h0l.17.07.83.28a29,29,0,0,0,7.47,1.52,18.38,18.38,0,0,0,5.31-.39,10.79,10.79,0,0,0,2.23-.76,5.32,5.32,0,0,0,2.36-2c0-.06.06-.12.09-.17a3.59,3.59,0,0,0,.17-.34,2.36,2.36,0,0,1,4.46,1.53s0,.07,0,.1a8.31,8.31,0,0,1-1.13,2.07,9.53,9.53,0,0,1-2,2A11.87,11.87,0,0,1,292,321.5c-.25.12-.52.22-.78.32a20,20,0,0,1-7.24,1.23,29.68,29.68,0,0,1-4.32-.33l-1.24-.21a35.75,35.75,0,0,1-5.71-1.59,38,38,0,0,1-3.71-1.6l0,0a34.8,34.8,0,0,1-3.25-1.84h0q-1.11-.72-2.1-1.5l-.52-.41c-3.22-2.64-5.41-5.68-6.21-8.69A9,9,0,0,1,256.73,302.69Zm44.74-114.31-7.69-2.83-5.28-1.94-2.62-1L273,177.91l-.87-.32c-.66-.24-1.33-.46-2-.68-2-.67-4-1.25-6.07-1.72a65.6,65.6,0,0,0-7.28-1.26c-1.77-.21-3.55-.35-5.31-.42l-.73,0q-3,1.35-5.77,2.94a75.41,75.41,0,0,0-10,6.67c-1,.81-2,1.66-3,2.53a75.69,75.69,0,0,0-9.57,10.1c-1,1.26-1.95,2.56-2.86,3.89-.39.56-.77,1.13-1.15,1.7l2.31.67,2.89.86c6.18,1.84,13.26,4,20.47,6.51,2.67.91,5.36,1.85,8,2.82l.41.15,4.15,1.54q2.47.94,4.89,1.91c3.3,1.33,6.48,2.68,9.47,4.06,2.19,1,4.28,2,6.22,3,1.27.67,2.47,1.34,3.61,2a49.86,49.86,0,0,1,5.9,3.95c.29.23.59.45.86.68a21.3,21.3,0,0,1,5.29,5,14,14,0,0,1,1.54,2.71c1.89.92,4.67,2.24,6.92,3.24,1.1.49,2.07.9,2.75,1.15,1.38.5,4.08,1.25,6.63,1.93l3.07.79.53.13c2.61-1.35,5.92-1.9,10.17-1.5a50.94,50.94,0,0,1,9,.95q2.5.45,5.2,1.1c1.48.35,3,.74,4.56,1.16,3,.81,6.07,1.74,9.23,2.77l2.58.85c2.57.86,5.16,1.77,7.75,2.71l.29.11c3.88,1.41,7.74,2.9,11.51,4.39l0,0c1.67.66,3.33,1.33,4.95,2a68.9,68.9,0,0,0-20.94-43.58c-.95-.91-1.93-1.79-2.94-2.65q-1.87-1.6-3.89-3.07-1.81-1.32-3.72-2.54a68.41,68.41,0,0,0-10.1-5.25c-.91-.38-1.83-.75-2.76-1.09l-4.55-1.67-3.94-1.45-6-2.21Zm-60,137.91Zm51.43,47.48c.42.11.83.23,1.25.31s1.08.21,1.63.28c1.26.18,3.08-1.19,5.09-5a46.24,46.24,0,0,0,2.88-7,33.19,33.19,0,0,0,1.68-8,5.44,5.44,0,0,0-2.29-3.51l-.1-.06a53.84,53.84,0,0,0-10.61-4.55c-.68-.22-1.36-.42-2-.6a67.61,67.61,0,0,0-8-1.68c-2.42-.37-4.69-.59-6.71-.71,0,.17-.06.34-.08.5A10.88,10.88,0,0,1,275,346l-.9,2.47a7.52,7.52,0,0,1-.32.78,10.92,10.92,0,0,1-3.27,4.19,10,10,0,0,1-1.22.82,7.21,7.21,0,0,1-.69.33c.42.6.9,1.24,1.4,1.9a65.42,65.42,0,0,0,6.72,7.61,48.12,48.12,0,0,0,6.13,5,33.56,33.56,0,0,0,7.78,4C291.37,373.35,292.12,373.57,292.88,373.77Zm-69.13-45.43c-.5.91-1,1.9-1.46,3-.17.38-.33.77-.49,1.18a51.92,51.92,0,0,0-2,6.08c-.1.39-.2.78-.28,1.14a18.57,18.57,0,0,0-.48,3.83,6.23,6.23,0,0,0,.34,2.2,2.75,2.75,0,0,0,.28.57,1.71,1.71,0,0,0,.33.37l.2.17a27.12,27.12,0,0,0,7.56,3.24,33.45,33.45,0,0,0,3.71.77,43.88,43.88,0,0,0,8.22.42c1.4,0,2.78-.16,4.1-.3a70,70,0,0,0,8.94-1.6c1-.26,2-.51,2.77-.75l1.1-.32a11.12,11.12,0,0,1,.44-6.11l.6-1.63,0-.15.25-.7a13.72,13.72,0,0,1,.69-1.51c-.95-.78-2.07-1.65-3.31-2.56-.8-.59-1.66-1.19-2.57-1.8-1.52-1-3.17-2.06-5-3.07-1.56-.88-3.21-1.73-4.94-2.53-.9-.41-1.81-.8-2.75-1.18l-.68-.25c-.73-.28-1.47-.57-2.23-.82a51,51,0,0,0-6.32-1.72l-1.14-.23a3.87,3.87,0,0,0-1.65.08,7.21,7.21,0,0,0-2.35,1.13A27.44,27.44,0,0,0,223.75,328.34Zm39.53,11.31a6.74,6.74,0,0,0-.83,1.46c0,.08-.07.15-.1.23l-.05.15-.26.71-.41,1.12-.18.5a6.36,6.36,0,0,0-.37,2.64,5.83,5.83,0,0,0,.32,1.61,5.64,5.64,0,0,0,.36.74,4.12,4.12,0,0,0,.67.86,3.57,3.57,0,0,0,1.24.8h0a3.45,3.45,0,0,0,1.39.19,4,4,0,0,0,1.15-.23,5,5,0,0,0,.75-.34,6.19,6.19,0,0,0,.79-.55,6.3,6.3,0,0,0,1.91-2.74l.16-.43.74-2a.06.06,0,0,1,0,0,6,6,0,0,0-.2-.6c-.08-.22-.17-.43-.26-.64a7.43,7.43,0,0,0-.76-1.25,6,6,0,0,0-1.92-1.63,7.43,7.43,0,0,0-.76-.35c-.19-.07-.4-.11-.59-.16a5,5,0,0,0-.93-.15,3.38,3.38,0,0,0-.45,0,6,6,0,0,0-1.12.09ZM243.78,325h0l-.09,0Z"/><path class="cls-2" d="M489,262.82c-1.25,1.63-4.86,1.46-5.08-1.19-.08-1-.06-2.07,2.05-2.64a3,3,0,0,1,2.13.16q-1-4.09-2.27-8.11c-1.58-.72-2.69-2.81-1.26-4a183.21,183.21,0,0,0-8.46-21.2c-1.44,1.29-4.59,1-4.8-1.49-.08-1-.07-2.07,2.05-2.64a4.24,4.24,0,0,1,.67-.11,182.88,182.88,0,0,0-11.64-19.86c-2-.09-4.62-2.67-2.91-4.2q-3.7-5.17-7.73-10.08c-.8,2.18-5.13,2.25-5.37-.66-.09-1-.07-2.07,2-2.64a4,4,0,0,1,.46-.08q-4.59-5.33-9.56-10.27s0,.06,0,.09c.55,6.72-9.57.12-3.52-2.05a4.24,4.24,0,0,1,1.23-.26q-4.93-4.74-10.21-9.12c-.74,2.23-5.15,2.34-5.39-.6a2.06,2.06,0,0,1,1.58-2.48c-3.38-2.66-6.87-5.2-10.43-7.62a3.2,3.2,0,0,1-3.4-2.24,184,184,0,0,0-19.87-11.18c-1,3-6-.18-5.11-2.37a183.36,183.36,0,0,0-31.86-10.84c-.67,2.31-5.17,2.45-5.42-.52a4.19,4.19,0,0,1,0-.71q-3.88-.81-7.83-1.45a3.09,3.09,0,0,1,.51,1.58c.56,6.72-9.56.12-3.52-2a186.42,186.42,0,0,0-59,.75,3.56,3.56,0,0,1,.35,1.3c.44,5.36-5.91,2.24-5.42-.35-2.33.47-4.63,1-6.93,1.56-.34,2.18-2.34,2-3.79,1a185.11,185.11,0,0,0-24.15,8.25c2.12-.54,2.92.7,3,2.19.52,6.23-8.13,1-4.6-1.51-2.74,1.19-5.46,2.44-8.14,3.76a1.57,1.57,0,0,1-1.31.65q-6.57,3.3-12.83,7.08c1.31.08,1.85,1.14,1.94,2.34.44,5.23-5.6,2.39-5.45-.15A184.1,184.1,0,0,0,190,163.38a1.5,1.5,0,0,1-.91.76q-5.64,4.81-10.9,10.06a2.43,2.43,0,0,1-2.48,2.54,185.13,185.13,0,0,0-24.77,32.12c1.43,0,2,1.07,2.12,2.32.32,3.87-2.89,3.33-4.53,1.76a183.7,183.7,0,0,0-10.29,20.87c1.71-.21,2.38.95,2.49,2.3.3,3.65-2.53,3.38-4.23,2a183.62,183.62,0,0,0-9.38,33.2,2.58,2.58,0,0,1,1,2c.18,2.14-.73,2.93-1.85,2.94-.38,2.46-.71,4.95-1,7.44,2-.42,2.72.8,2.84,2.24.26,3-1.69,3.35-3.32,2.57-.23,2.6-.41,5.2-.53,7.83a3.27,3.27,0,0,1,.33-.14c2.5-.89,3.39.46,3.52,2.05.29,3.49-2.28,3.39-4,2.19,0,1.47,0,2.94,0,4.42s0,2.77,0,4.15c.15-.06.3-.13.48-.19,2.5-.9,3.39.45,3.52,2.05.28,3.39-2.15,3.39-3.86,2.28.12,2.66.3,5.3.52,7.93,2.35-.75,3.21.55,3.34,2.11.23,2.75-1.33,3.27-2.85,2.77.28,2.42.59,4.83,1,7.22,1.27.1,1.79,1.15,1.89,2.33.13,1.58-.33,2.42-1,2.76a183.72,183.72,0,0,0,9.32,33.1,5,5,0,0,1,.8-.37c2.5-.89,3.39.45,3.52,2,.21,2.54-1.11,3.18-2.5,2.87a184.16,184.16,0,0,0,10.14,20.62,4,4,0,0,1,1.17-.61c2.49-.89,3.38.45,3.52,2,.19,2.3-.87,3-2.1,2.93a185.6,185.6,0,0,0,24.67,32c1.6-.13,2.25,1,2.36,2.3v.12q5.34,5.36,11.1,10.25a2,2,0,0,1,.92.78h0a184.34,184.34,0,0,0,20,14.69c-.56-1.05-.33-2.24,1.66-3,2.5-.89,3.39.46,3.52,2.06.19,2.18-.76,3-1.91,2.93a183.8,183.8,0,0,0,47.6,20.31,4.6,4.6,0,0,1,1-.37,2.56,2.56,0,0,1,2.94.88,5.4,5.4,0,0,1,.26.55q3.57.87,7.2,1.61c-.61-1.06-.42-2.3,1.63-3,2.49-.89,3.38.46,3.52,2.06a3.92,3.92,0,0,1-.23,1.9,186.62,186.62,0,0,0,59.13.7c-2-.92-3.57-3.46-.24-4.66,2.5-.89,3.39.46,3.52,2.06a3.45,3.45,0,0,1-.36,2.13c2.58-.42,5.15-.89,7.69-1.42-.43-1-.11-2.09,1.76-2.77,2.25-.8,3.19.22,3.45,1.59a183.25,183.25,0,0,0,32.17-10.93,2.94,2.94,0,0,1-.12-.63c-.08-1-.07-2.07,2.05-2.64a2.52,2.52,0,0,1,2.93.88.54.54,0,0,1,.05.11,182.58,182.58,0,0,0,19.85-11.15c-.13-.86.39-1.7,2.1-2.16a3.22,3.22,0,0,1,1.3-.08q5.57-3.76,10.84-7.93c-1.93-1-3.39-3.43-.12-4.6,2.4-.86,3.31.36,3.5,1.87Q432,443,437,438.18c-2.34-.36-5.1-3.57-1.22-5,2.49-.89,3.39.46,3.52,2,0,.23,0,.45,0,.65q5-5,9.69-10.42c-2.26-.58-4.62-3.56-.92-4.89,2.38-.85,3.3.34,3.5,1.84q4.23-5.13,8.09-10.56c-1.13-1.21-1.36-2.89,1.32-3.6a3.12,3.12,0,0,1,1.24-.09,184.81,184.81,0,0,0,11.71-20,2.49,2.49,0,0,1-2.68-2.24c-.08-1-.07-2.07,2.05-2.64a2.68,2.68,0,0,1,2.73.6,185.32,185.32,0,0,0,8.63-21.68c-1.14-1.23-1.35-3.15,1.19-3.77.75-2.49,1.46-5,2.11-7.52-2.34.85-6.87-3.26-2.34-4.89,1.91-.68,2.87-.05,3.29,1a186.43,186.43,0,0,0,0-84.28Z"/><path class="cls-3" d="M177,260.05c-.54-1.82-2.76-2.58-5-1.75a3.23,3.23,0,0,0-2.06,1.75C167.75,267.36,178.72,266,177,260.05Zm-.29-48.69c-.12-1.77-1.31-3.17-3.81-2.64-1.86.4-2.64,1.43-2.64,2.93C170.21,216.32,176.93,215.54,176.66,211.36Zm-2.93,28.75c4.79-.32,3.44-7.57-.88-6.75C168,234.27,169.92,240.36,173.73,240.11ZM177,248c-.3-1.62-1.62-3.3-4.69-2.35-1.77.55-2.85,1.46-2.35,4.11C170.69,253.93,177.92,253.17,177,248Zm-.29-24.64c-.3-1.5-1.49-3.06-4.4-2.06-1.65.57-2.55,1.32-2,3.82C171,229,177.6,228.19,176.66,223.39Zm12-37.84c-.47-1.61-2.3-2.17-4.1-1.47a2.43,2.43,0,0,0-1.77,2.06C182,191.52,190.09,190.35,188.68,185.55Zm-3.51,10.85a3.12,3.12,0,0,0-1.77,5.28C188.08,206.36,191.66,195,185.17,196.4Zm-8.81,1.76c-.47-1.61-2.3-2.17-4.1-1.46a2.41,2.41,0,0,0-1.76,2.05C169.72,204.13,177.78,203,176.36,198.16Zm.88,75.38c-.11-2-1.61-3.73-4.39-3.22-2.06.37-3.23,1.55-3.23,3.52C169.62,279,177.53,278.62,177.24,273.54ZM164,248c-.29-1.51-1.48-3.06-4.39-2.06-1.65.57-2.54,1.32-2.06,3.82C158.33,253.59,165,252.84,164,248Zm0,15a3.45,3.45,0,0,0-4.69-4.41C153.11,261.2,162.24,268.38,164,263Zm-3.81-29.34a3.12,3.12,0,0,0-1.76,5.28C163.15,243.61,166.73,232.26,160.23,233.65Zm3.52-22.29c-.12-1.73-1.24-3.14-3.81-2.35a2.51,2.51,0,0,0-2.05,2.94C158.18,216,164,215.21,163.75,211.36Zm0,11.73c-.47-1.61-2.31-2.17-4.1-1.46a2.39,2.39,0,0,0-1.76,2.05C157.11,229.07,165.16,227.89,163.75,223.09Zm13.49,63.07c-.13-2.24-1.5-4-4.69-3.23-2.11.49-2.93,1.59-2.93,3.52C169.62,292,177.54,291.22,177.24,286.16Zm5.87-76.85a4.75,4.75,0,0,0,.29,5,3.56,3.56,0,0,0,4.7-5.29A4.77,4.77,0,0,0,183.11,209.31Zm18.18-36.08c-.47-1.61-2.31-2.17-4.1-1.47a2.41,2.41,0,0,0-1.76,2.06C194.66,179.2,202.71,178,201.29,173.23Zm62.19-36.37c-.17-2.11-1.76-2.76-3.52-2.35-2.09.48-2.35,1.71-2.35,2.64C257.61,140.9,263.83,141.14,263.48,136.86Zm12.61,12.32c-.14-2.2-1.88-3.26-4.11-2.64C264.07,148.72,276.65,157.58,276.09,149.18ZM262,152.4c2.82-1.27,1.63-6.32-1.76-5.86C254.94,147.26,258.08,154.18,262,152.4Zm-23.46-3.51c-.22-1.48-1.18-2.87-3.82-2.06C227.49,149.08,239.73,156.82,238.55,148.89Zm12.32-.59c-.48-1.61-2.31-2.17-4.11-1.47a2.4,2.4,0,0,0-1.76,2.06C244.23,154.27,252.28,153.1,250.87,148.3Zm37.54-11.74c-.22-1.46-1.18-2.87-3.82-2.05C277.36,136.76,289.59,144.5,288.41,136.56Zm-90.63,47.23a3.12,3.12,0,0,0-1.76,5.28C200.69,193.75,204.27,182.39,197.78,183.79Zm78-46.93c-.13-1.73-1.24-3.14-3.82-2.35a2.51,2.51,0,0,0-2.05,2.93C270.22,141.46,276.08,140.71,275.8,136.86Zm12.9,12c-.22-1.7-1.28-3.11-4.11-2.35-1.83.5-2.48,1.13-2.34,3.22C282.55,154.23,289.32,153.45,288.7,148.89ZM185.17,282.64c-2.34.37-3.52,1.48-3.52,3.81,0,5.58,8.49,5.22,8.21-.29C189.75,283.89,188.24,282.14,185.17,282.64ZM235,158.86a3.12,3.12,0,0,0-1.76,5.28C237.94,168.81,241.52,157.46,235,158.86Zm-21.42,2.64c-.12-1.73-1.23-3.14-3.81-2.35a2.5,2.5,0,0,0-2.05,2.93C208.05,166.1,213.9,165.35,213.61,161.5ZM160.23,270.61c-4.81.91-2.92,7,.88,6.75C165.9,277,164.56,269.79,160.23,270.61Zm47.82-86.23a4.75,4.75,0,0,0,.28,5,3.56,3.56,0,0,0,4.7-5.29A4.73,4.73,0,0,0,208.05,184.38Zm18.18-23.76c-.47-1.61-2.31-2.17-4.11-1.47a2.42,2.42,0,0,0-1.76,2C219.59,166.59,227.64,165.41,226.23,160.62Zm.29,12.9c-.29-1.5-1.48-3.05-4.4-2.05-1.65.57-2.54,1.31-2.05,3.81C220.81,179.09,227.46,178.33,226.52,173.52Zm-78.9,147.25c-1.83.5-2.49,1.13-2.34,3.22.29,4.47,7.06,3.69,6.45-.88C151.5,321.42,150.44,320,147.62,320.77Zm12.32-25.23c-2,.5-2.64,1.45-2.64,3.23,0,5.11,7,4.38,7,0C164.34,296.41,163,294.77,159.94,295.54Zm0-12.31c-2,.49-2.64,1.44-2.64,3.22,0,5.11,7,4.38,7,0C164.34,284.09,163,282.45,159.94,283.23Zm12,62.18a3.21,3.21,0,0,0-2.06,1.76c-2.16,7.3,8.81,5.93,7,0C176.41,345.35,174.19,344.59,172,345.41Zm.88-12.91c-2.06.37-3.23,1.55-3.23,3.52,0,5.16,7.91,4.79,7.62-.29C177.13,333.71,175.63,332,172.85,332.5Zm-12.91-12c-2,.5-2.64,1.45-2.64,3.23,0,5.12,7,4.38,7,0C164.34,321.34,163,319.7,159.94,320.47Zm0-12.31c-2,.49-2.64,1.44-2.64,3.22,0,5.11,7,4.38,7,0C164.34,309,163,307.38,159.94,308.16Zm.88,31.38c4.17,0,5-8.27-.88-6.74C155.35,334,157.83,339.54,160.82,339.54Zm-1.47,6.16c-6.24,2.62,2.89,9.8,4.69,4.4A3.45,3.45,0,0,0,159.35,345.7Zm13.2-25.52c-2.11.49-2.93,1.59-2.93,3.52,0,5.51,7.92,4.76,7.62-.29C177.11,321.18,175.74,319.45,172.55,320.18Zm12.32-12.61c-2.27.49-3.22,1.58-3.22,3.81,0,5.83,8.49,5.16,8.21-.29C189.73,308.66,188.2,306.85,184.87,307.57Zm0-12.61c-2.27.49-3.22,1.58-3.22,3.81,0,5.83,8.49,5.16,8.21-.29C189.73,296.05,188.2,294.23,184.87,295Zm.3,24.93c-2.34.37-3.52,1.47-3.52,3.81,0,5.59,8.49,5.22,8.21-.29C189.75,321.14,188.24,319.39,185.17,319.89Zm-12.62-24.64c-2.77.62-2.93,2-2.93,3.52,0,6.45,11,3.73,7-2.35C176.05,295.5,174.55,294.8,172.55,295.25Zm12.91,37c-7.91.84-1.44,11.41,3.22,6.74C191.41,336.23,188.64,331.87,185.46,332.21Zm-12.91-24.35c-2.77.63-2.93,2-2.93,3.52,0,6.46,11,3.72,7-2.34C176.05,308.11,174.55,307.41,172.55,307.86Zm11.73,37.25a2.92,2.92,0,0,0-2.34,2.64c-.82,5.07,6.43,6.64,7.62,2.35A4,4,0,0,0,184.28,345.11Zm-36.95-36.66c-1.66.57-2.55,1.31-2.05,3.81.74,3.81,7.38,3.05,6.45-1.76C151.43,309,150.24,307.45,147.33,308.45Zm0-12.61c-1.66.56-2.55,1.31-2.05,3.81.74,3.8,7.38,3.05,6.45-1.76C151.43,296.39,150.24,294.84,147.33,295.84Zm-8.22,39.89c-.12-1.74-1.23-3.15-3.81-2.35a2.5,2.5,0,0,0-2.05,2.93C133.55,340.33,139.39,339.57,139.11,335.73Zm8.51-52.21c-1.83.49-2.49,1.13-2.34,3.22.29,4.47,7.06,3.69,6.45-.88C151.5,284.17,150.44,282.75,147.62,283.52Zm-8.51,2.34c-.21-1.47-1.17-2.87-3.81-2.05C128.06,286.06,140.29,293.8,139.11,285.86Zm9.1-27.28c-5.32.73-2.18,7.65,1.76,5.87C152.78,263.18,151.59,258.13,148.21,258.58ZM151.43,236c-.22-1.47-1.18-2.87-3.81-2.06C140.38,236.19,152.61,243.94,151.43,236Zm.3,37.54c-.15-2.2-1.88-3.25-4.11-2.64C139.71,273.09,152.29,282,151.73,273.54Zm-12.62,0c-.12-1.73-1.23-3.14-3.81-2.34a2.49,2.49,0,0,0-2.05,2.93C133.55,278.15,139.39,277.39,139.11,273.54ZM301,148.59c-.29-1.5-1.48-3.05-4.4-2.05-1.64.57-2.54,1.31-2.05,3.81C295.31,154.16,302,153.4,301,148.59ZM151.43,247.73c-.47-1.61-2.31-2.17-4.1-1.46a2.39,2.39,0,0,0-1.76,2C144.8,253.7,152.84,252.53,151.43,247.73Zm-3.81,85.36c-7.91,2.18,4.67,11,4.11,2.64C151.58,333.53,149.85,332.47,147.62,333.09ZM135,308.74a2.4,2.4,0,0,0-1.75,2.06c-.78,5.38,7.28,4.21,5.86-.59C138.64,308.6,136.8,308,135,308.74Zm.3,12.32c-7.24,2.25,5,10,3.81,2.05C138.9,321.65,137.94,320.24,135.3,321.06Zm12.61,24.64c-1.85.4-2.63,1.43-2.63,2.93,0,4.67,6.72,3.89,6.45-.29C151.61,346.57,150.43,345.16,147.91,345.7ZM135,296.13a2.4,2.4,0,0,0-1.75,2.05c-.78,5.39,7.28,4.21,5.86-.58C138.64,296,136.8,295.43,135,296.13Zm78.91-122c-.12-1.77-1.31-3.18-3.82-2.64-1.85.39-2.63,1.43-2.63,2.93C207.46,179.07,214.18,178.29,213.91,174.11ZM471.14,333.38c-7.23,2.25,5,10,3.82,2.06C474.74,334,473.78,332.56,471.14,333.38Zm-.29-12.32a2.4,2.4,0,0,0-1.76,2.05c-.77,5.39,7.28,4.21,5.87-.58C474.49,320.92,472.65,320.36,470.85,321.06Zm.58-62.18c-2.09.48-2.34,1.71-2.34,2.64,0,3.74,6.22,4,5.87-.29C474.79,259.12,473.2,258.47,471.43,258.88Zm-12.9,24.64c-1.65.57-2.54,1.31-2,3.81.74,3.8,7.39,3.05,6.45-1.76C462.64,284.07,461.44,282.51,458.53,283.52Zm12.32.29a2.4,2.4,0,0,0-1.76,2.05c-.77,5.39,7.28,4.21,5.87-.58C474.49,283.67,472.65,283.11,470.85,283.81Zm0,12.32a2.4,2.4,0,0,0-1.76,2.05c-.77,5.39,7.28,4.21,5.87-.58C474.49,296,472.65,295.43,470.85,296.13ZM462.64,224c-.17-2.1-1.75-2.75-3.52-2.34-2.09.48-2.34,1.71-2.34,2.64C456.78,228,463,228.25,462.64,224Zm11.73,23.18a3.16,3.16,0,0,0-5.28,1.46C468.62,254.38,477.15,251,474.37,247.15Zm.59,26.1c-.22-1.47-1.18-2.87-3.82-2.05C463.91,273.45,476.14,281.18,475,273.25Zm-16.13,59.84c-7.92,2.18,4.66,11,4.1,2.64C462.79,333.53,461.06,332.47,458.83,333.09Zm-12.62-.29c-2,.49-2.64,1.44-2.64,3.22,0,5.11,7,4.38,7,0C450.61,333.66,449.28,332,446.21,332.8ZM450.32,248c-.29-1.51-1.49-3.06-4.4-2.06-1.65.57-2.54,1.32-2.05,3.82C444.61,253.59,451.26,252.84,450.32,248Zm12.32-12c-.22-1.47-1.18-2.87-3.81-2.06C451.59,236.19,463.82,243.94,462.64,236Zm.29,37.54c-.14-2.2-1.87-3.25-4.1-2.64C450.91,273.09,463.49,282,462.93,273.54Zm-4.4-27.27a2.37,2.37,0,0,0-1.75,2c-.78,5.38,7.27,4.21,5.86-.59C462.17,246.12,460.33,245.56,458.53,246.27Zm4.4,15c-.11-1.78-1.31-3.18-3.81-2.65-1.85.4-2.64,1.43-2.64,2.94C456.48,266.19,463.21,265.4,462.93,261.23Zm-41.65,58.66c-2.27.49-3.22,1.58-3.22,3.81,0,5.83,8.49,5.16,8.21-.29C426.14,321,424.61,319.17,421.28,319.89Zm49.57-11.15a2.4,2.4,0,0,0-1.76,2.06c-.77,5.38,7.28,4.21,5.87-.59C474.49,308.6,472.65,308,470.85,308.74ZM446.8,258.3c-4.63.56-3.5,6.51,0,6.74C451.06,265.31,451.91,257.67,446.8,258.3ZM421,307.57a3.57,3.57,0,0,0-2.93,3.52c-.36,6.72,8.8,5.27,8.21-.29C426,308.5,424.44,306.63,421,307.57Zm-.3,37.54a2.93,2.93,0,0,0-2.34,2.64c-.83,5.07,6.43,6.64,7.62,2.35A4,4,0,0,0,420.69,345.11Zm17.9-47.22c-.31-1.85-1.71-3.59-5-2.64a3.18,3.18,0,0,0-2.63,3.23C430.62,305,439.5,303.36,438.59,297.89ZM409,357.14c-2.28.49-3.23,1.58-3.23,3.81,0,5.83,8.49,5.16,8.21-.29C413.82,358.23,412.29,356.42,409,357.14Zm12,.29a3.19,3.19,0,0,0-2.64,3.23c-.34,6.51,8.54,4.88,7.62-.59C425.66,358.22,424.27,356.48,421,357.43Zm.59,12.61c-2.06.37-3.23,1.56-3.23,3.52,0,5.16,7.91,4.79,7.62-.29C425.86,371.25,424.36,369.54,421.58,370Zm0-37.83c-2.28.36-3.52,1.56-3.52,3.81,0,5.54,8.49,5.19,8.21-.29C426.16,333.54,424.59,331.73,421.58,332.21Zm36.95-11.44c-1.65.57-2.54,1.31-2,3.81.74,3.8,7.39,3.05,6.45-1.76C462.64,321.32,461.44,319.77,458.53,320.77Zm0-24.93c-1.65.56-2.54,1.31-2,3.81.74,3.8,7.39,3.05,6.45-1.76C462.64,296.39,461.44,294.84,458.53,295.84Zm0,12.61c-1.65.57-2.54,1.31-2,3.81.74,3.81,7.39,3.05,6.45-1.76C462.64,309,461.44,307.45,458.53,308.45Zm-24,36.66a3.6,3.6,0,0,0-3.23,2.06c-2.2,6,7.66,6.95,7.33,1.17C438.49,346.53,437.55,344.77,434.49,345.11ZM300.73,136c-.47-1.61-2.31-2.17-4.11-1.47a2.43,2.43,0,0,0-1.76,2.05C294.09,142,302.14,140.78,300.73,136ZM433.9,320.18c-2.77.63-2.93,2-2.93,3.52,0,6.46,11,3.73,7-2.34A3.79,3.79,0,0,0,433.9,320.18Zm4.69,15.55c-.14-2.24-1.5-4-4.69-3.23-2.11.49-2.93,1.59-2.93,3.52C431,341.53,438.88,340.78,438.59,335.73Zm0-25.23c-.31-1.85-1.71-3.59-5-2.64a3.18,3.18,0,0,0-2.63,3.23C430.62,317.6,439.5,316,438.59,310.5ZM424.51,172.64a2.85,2.85,0,0,0-2.64-.88,2.82,2.82,0,0,0-2.65,2.35C418.76,179.88,427.29,176.49,424.51,172.64ZM400.45,161.5c-.12-1.73-1.23-3.14-3.81-2.35a2.52,2.52,0,0,0-2.05,2.93C394.89,166.1,400.74,165.35,400.45,161.5Zm12,47.51a3.85,3.85,0,0,0-3.81-.58c-2.37.72-2.27,2-2.35,2.64C405.41,218.61,417.83,214.36,412.48,209Zm-25.22-61.3a2.85,2.85,0,0,0-2.64-.88c-1.81.3-2.57,1.42-2.64,2.35C381.51,154.94,390,151.55,387.26,147.71Zm37.84,37.84c-.48-1.61-2.31-2.17-4.11-1.47a2.43,2.43,0,0,0-1.77,2.06C418.45,191.52,426.5,190.35,425.1,185.55Zm.29,27.57a3.45,3.45,0,0,0-4.7-4.4C414.45,211.34,423.58,218.52,425.39,213.12Zm-37.55-52.5c-.47-1.61-2.31-2.17-4.1-1.47a2.4,2.4,0,0,0-1.76,2C381.21,166.59,389.25,165.41,387.84,160.62ZM425.39,199c-.15-2.2-1.88-3.25-4.11-2.64C413.37,198.58,425.94,207.45,425.39,199Zm-12.62-25.81c-.46-1.61-2.3-2.17-4.1-1.47a2.41,2.41,0,0,0-1.76,2.06C406.14,179.2,414.19,178,412.77,173.23ZM313.34,136c-.47-1.61-2.31-2.17-4.1-1.47a2.4,2.4,0,0,0-1.76,2.05C306.7,142,314.75,140.78,313.34,136Zm8.51,10.56c-1.84.5-2.49,1.13-2.35,3.22.3,4.47,7.07,3.69,6.46-.87C325.73,147.19,324.67,145.78,321.85,146.54Zm-8.22,2.05c-.29-1.5-1.48-3.05-4.39-2.05-1.66.57-2.55,1.31-2.06,3.81C307.93,154.16,314.58,153.4,313.63,148.59Zm62.19,12.91c-.15-2.21-1.88-3.26-4.11-2.64C363.8,161,376.38,169.9,375.82,161.5Zm-.3-12.61c-.21-1.48-1.17-2.87-3.81-2.06C364.48,149.08,376.7,156.82,375.52,148.89Zm-49.86-12.33c-.21-1.46-1.18-2.87-3.81-2.05C314.61,136.76,326.84,144.5,325.66,136.56ZM450,211.07c-.22-1.47-1.19-2.87-3.82-2.06C439,211.26,451.21,219,450,211.07ZM334.17,134.51a2.5,2.5,0,0,0-2.06,2.93c.3,4,6.15,3.27,5.87-.58C337.85,135.13,336.75,133.72,334.17,134.51Zm111.75,161c-2.37.73-2.27,2-2.35,2.64-.91,7.55,11.51,3.3,6.17-2.05A3.89,3.89,0,0,0,445.92,295.54Zm0,12.62c-2.37.72-2.27,2-2.35,2.64-.91,7.54,11.51,3.29,6.17-2.06A3.87,3.87,0,0,0,445.92,308.16Zm0,12.31c-1.76.55-2.85,1.47-2.35,4.11.78,4.15,8,3.39,7-1.76C450.31,321.2,449,319.52,445.92,320.47Zm4.69-34c0-2.36-1.33-4-4.4-3.22-2,.49-2.64,1.44-2.64,3.22C443.57,291.56,450.61,290.83,450.61,286.45Zm0-12.61c0-2.36-1.33-4-4.4-3.23-2,.5-2.64,1.44-2.64,3.23C443.57,279,450.61,278.22,450.61,273.84Zm-4.69-52.21a2.39,2.39,0,0,0-1.76,2.05c-.77,5.39,7.28,4.21,5.87-.59C449.55,221.48,447.72,220.92,445.92,221.63Zm4.4,14.66c-.14-2.2-1.88-3.25-4.11-2.64C438.3,235.84,450.88,244.7,450.32,236.29Zm-12,23.76c-.54-1.82-2.76-2.58-5-1.75a3.18,3.18,0,0,0-2.05,1.75C429.09,267.36,440.06,266,438.29,260.05Zm-.58-61.89c-.47-1.61-2.31-2.17-4.11-1.46a2.41,2.41,0,0,0-1.76,2.05C431.07,204.13,439.12,203,437.71,198.16Zm-3.52,10.56a3.12,3.12,0,0,0-1.76,5.28C437.1,218.68,440.68,207.32,434.19,208.72Zm4.4,64.82c-.12-2-1.62-3.73-4.4-3.22-2.06.37-3.22,1.55-3.22,3.52C431,279,438.88,278.62,438.59,273.54ZM438,223.39c-.29-1.5-1.48-3.06-4.4-2.06-1.65.57-2.54,1.32-2.05,3.82C432.29,229,439,228.19,438,223.39ZM437.12,185a2.83,2.83,0,0,0-2.63-.88c-1.82.3-2.58,1.41-2.65,2.35C431.38,192.19,439.9,188.81,437.12,185Zm-27.57,17.9c4.26.27,5.11-7.37,0-6.75C404.92,196.67,406.05,202.63,409.55,202.86Zm27.87,43.41a3.89,3.89,0,0,0-3.82-.59c-2.37.73-2.27,2-2.34,2.64C430.34,255.87,442.76,251.61,437.42,246.27ZM426,263a4,4,0,0,0-5.28-5,2.93,2.93,0,0,0-2.34,2.64C417.52,265.71,424.78,267.28,426,263ZM372.71,377.6l1.41.12A4.22,4.22,0,0,0,377,372ZM384,344.23c-2,.36-3.2,1.27-3.63,2.93a14.92,14.92,0,0,1,2.94,4.63,13.6,13.6,0,0,1,.46,1.36c2.72.55,6-1.1,5.81-4.81C389.49,345.71,387.74,343.56,384,344.23Zm.37,12.43a14.7,14.7,0,0,1-2.06,8.2c2.42,1.47,6.23.65,7-2.44C390.26,358.45,387.46,356.3,384.4,356.66ZM198.66,315.78c5.11-.27,5.42-9.87-1.17-8.5C192.1,308.39,193.7,316,198.66,315.78Zm211.51,16.13a15,15,0,0,1-1.87,5.47A16.29,16.29,0,0,1,407,339.3c3.23,2.23,10.15-.8,6.38-5.92A4.62,4.62,0,0,0,410.17,331.91ZM482,336.48c.12-.65.22-1.31.33-2A1.67,1.67,0,0,0,482,336.48Zm-85.66,71.11c-2.37.73-2.26,2-2.35,2.64-.47,3.93,2.67,4.66,5,3.7a14.78,14.78,0,0,1,2.47-3,3.81,3.81,0,0,0-1.34-2.79A3.87,3.87,0,0,0,396.35,407.59ZM421,382.66c-2.37.72-2.27,2-2.35,2.64-.27,2.23.63,3.43,1.89,3.87a15.05,15.05,0,0,1,3-3.24,15.76,15.76,0,0,1,2.2-1.45,5.1,5.1,0,0,0-.93-1.23A3.82,3.82,0,0,0,421,382.66Zm-23.76-.59a4.75,4.75,0,0,0-2.81,1.11,14.87,14.87,0,0,1,2.66,3.84,14.37,14.37,0,0,1,1.06,3,3.66,3.66,0,0,0,2.31-1.16C403.18,386.1,400.41,381.73,397.23,382.07Zm22.13,26.83h0v0Zm-20.86-14a14.89,14.89,0,0,1-2.42,6.79l-.18.27c3,1.11,7.68-1.51,4.85-5.8A3.19,3.19,0,0,0,398.5,394.89ZM409,319.6a4.35,4.35,0,0,0-2,.94l.62.89a14.86,14.86,0,0,1,2.59,6.66C415.25,327.76,415.53,318.23,409,319.6ZM206.55,346.89l1.51-1.79A3.52,3.52,0,0,0,206.55,346.89ZM484,288.7c-.14-1.55-.3-3.09-.49-4.62l-.08,0C480.3,286.19,482,288.14,484,288.7ZM481.89,273a1.94,1.94,0,0,0,.27,1.55C482.07,274.07,482,273.56,481.89,273Zm-70.37-10.21,1.39,1.18a5.63,5.63,0,0,0,.71-4.37l-2.05,1.78C411.56,261.89,411.54,262.36,411.52,262.83Zm48.23-48.62c-.79-1.34-1.61-2.66-2.44-4C456,211.71,457.93,213.75,459.75,214.21ZM472,239q-.87-2.14-1.78-4.26C467.69,236.8,469.86,238.68,472,239Zm-72.11,71.51,1.95,2.78a5.14,5.14,0,0,0,.35-2.15,4.73,4.73,0,0,0-1.17-3C400.67,308.87,400.3,309.68,399.92,310.46ZM438,284.11a3.79,3.79,0,0,0-4.1-1.18,4.93,4.93,0,0,0-1.9.78,14.79,14.79,0,0,1,.32,5.75C435.14,291.52,441.12,288.82,438,284.11Zm45.57,41.69c.18-1.53.34-3.08.48-4.63a4,4,0,0,0-.59.19C480.53,323.29,481.73,325.11,483.57,325.8Zm1-12.06c.08-1.66.13-3.32.16-5a3.65,3.65,0,0,0-1.28.29C480,311.31,482.28,313.42,484.58,313.74Zm-65.12-11.53a4.44,4.44,0,0,0,6.74-2.63,14.79,14.79,0,0,1-6.08,2.51Zm65.28-1.06c0-1.67-.09-3.34-.17-5a4.16,4.16,0,0,0-1.11.27C479.94,298.75,482.39,300.9,484.74,301.15ZM434.3,382.76a15.49,15.49,0,0,1,1.79.28l-.08-.32A3.84,3.84,0,0,0,434.3,382.76Zm-8.07-134.13-4.55,4C424,252.77,426.58,251.21,426.23,248.63Zm-1.74-27.29a3,3,0,0,0-1.82-.57A14.23,14.23,0,0,1,424.49,221.34Zm49.75,137.71c.08,1,.15,2.09.21,3.13a2.42,2.42,0,0,0-.08-3Zm-27.73-13.64c-4.82.91-2.93,7,.88,6.75a3.92,3.92,0,0,0,1-.22,13.55,13.55,0,0,1,2-3.08C450.34,346.93,448.88,345,446.51,345.41Zm-47.52-1a15,15,0,0,1-3.5.42,3.67,3.67,0,0,0-2.37,3.24c-.7,7.55,9.74,6,8.81-.3A3.72,3.72,0,0,0,399,344.39ZM383.74,171.47a3.14,3.14,0,0,0-1.89,1.3l4.24-1.54A4.32,4.32,0,0,0,383.74,171.47ZM421.58,270a5.74,5.74,0,0,0-1.19.31l5.67,4.8a4.5,4.5,0,0,0,.21-1.6C426.16,271.36,424.59,269.54,421.58,270ZM247,165c1.3-.59,2.61-1.15,3.93-1.67a3.66,3.66,0,0,0,.26-2.4c-.29-1.5-1.49-3-4.4-2-1.65.56-2.54,1.31-2,3.81A2.91,2.91,0,0,0,247,165Zm12.11-6.12c-1.45.6-2.06,1.45-2.14,2.34,2-.63,4-1.18,6.08-1.65A3.51,3.51,0,0,0,259.08,158.86ZM372,171.18c-3.51.66-3.44,4.08-1.67,5.78l5.57-2C376,172.92,374.5,170.71,372,171.18Zm-75.08-12.62-.12,0c1.27.22,2.53.47,3.79.74C299.9,158.49,298.7,158.11,296.92,158.56Zm34.7-10.09,1.6-1.58A2.55,2.55,0,0,0,331.62,148.47Zm-146.88,91.6c.51-2.33,1.08-4.68,1.68-7a5,5,0,0,0-2.14.3,3.27,3.27,0,0,0-2.05,1.76C181.29,238.3,182.84,239.84,184.74,240.07ZM214,326.92q.68-1.5,1.44-2.88a5.54,5.54,0,0,0-.34-2.1,4.15,4.15,0,0,0-4.69-2.64,4.71,4.71,0,0,0-4.11,2.64C204.14,328.06,210.9,329.46,214,326.92Zm-25.87-100c.35-1.22.71-2.42,1.06-3.61-.34-1.8-1.7-2.89-4.3-2.23-2,.5-2.64,1.44-2.64,3.23C182.23,228.07,186.11,228.64,188.11,226.88ZM433.6,357.73c-2.37.72-2.27,2-2.34,2.64-.38,3.13,1.54,4.23,3.53,4.06a15,15,0,0,1,3.12-4.44,4.49,4.49,0,0,1,.46-.41,5.66,5.66,0,0,0-.95-1.27A3.87,3.87,0,0,0,433.6,357.73ZM209.77,340.52a45.09,45.09,0,0,1,2.3-8.86,6.32,6.32,0,0,0-2.86.26,3.82,3.82,0,0,0-2.93,3.22C205.79,338.63,207.63,340.29,209.77,340.52ZM433.9,374.13a15.1,15.1,0,0,1-.44-3.64c-3.89,1.4-1.65,6.39,1.16,6.57Zm-235.24-71a3.64,3.64,0,0,0,2.62-1.29,69.07,69.07,0,0,1-4.37-7C192.25,296.38,193.9,303.42,198.66,303.17Zm-15.07-57.33a3.06,3.06,0,0,0-1.65,3.07,4,4,0,0,0,.78,2.5C183,249.64,183.24,247.77,183.59,245.84Zm3.09,32a18,18,0,0,1-3.54-7.14C179.77,272.87,183.11,278.56,186.68,277.89Zm248.39-37.78c4.78-.32,3.44-7.57-.88-6.75-.14,0-.25.07-.38.1a14.68,14.68,0,0,1-.58,6.23A3.3,3.3,0,0,0,435.07,240.11ZM471.43,346a2.75,2.75,0,0,0-2.12,1.48,13.57,13.57,0,0,1,3.22,4,2.67,2.67,0,0,0,2.43-3.12C474.79,346.23,473.2,345.58,471.43,346ZM182,260.52a4.05,4.05,0,0,0-.09.71,5.68,5.68,0,0,0,.11,1.53C182,262,182,261.29,182,260.52Zm214.9,96.33c-5.67.87-3.93,8.5.59,8.5C402.78,365.35,403.63,355.81,396.93,356.85Zm-.58,12.9a3.57,3.57,0,0,0-2.94,3.23c-.46,4.37,2.91,5,5,4.69C403.2,376.9,402.53,368.11,396.35,369.75ZM235,171.18a3.17,3.17,0,0,0-2.76,2.28c1.12-.81,2.26-1.58,3.43-2.34A3.09,3.09,0,0,0,235,171.18Zm-59.55,17.6c.68-.7.76-2.45.38-3.57-1.2,1.31-2.38,2.65-3.55,4A3.67,3.67,0,0,0,175.48,188.78Zm143.82-28a13.55,13.55,0,0,1,1-1.12l1-1A2.65,2.65,0,0,0,319.3,160.82Zm-180.58,87c-.4,1.17-.78,2.35-1.16,3.53a1.88,1.88,0,0,0,.67-.37A4,4,0,0,0,138.72,247.8ZM384,369.46c-2.36.47-3.52,1.76-3.52,4.1,0,6.11,9.11,5.57,8.8-.29C389.17,370.74,387.5,368.76,384,369.46Zm-37-234.95c-2.09.48-2.34,1.71-2.34,2.64a2.77,2.77,0,0,0,.11.78,14.77,14.77,0,0,1,4-.57,13.73,13.73,0,0,1,1.7.11,3.1,3.1,0,0,0,0-.61C350.42,134.75,348.84,134.1,347.07,134.51Zm-159.26,42c.65-.68.74-2.38.4-3.5q-2.06,1.86-4.05,3.76A3.83,3.83,0,0,0,187.81,176.46Zm-48.7,84.77c-.17-2.11-1.75-2.76-3.52-2.35-.1,0-.17.06-.26.08-.41,1.54-.81,3.08-1.18,4.63C135.86,265.11,139.38,264.47,139.11,261.23ZM309.53,158.56c-1.66.43-2.39,1.17-2.58,2.47,1.58.48,3.14,1,4.7,1.55l2,.72a3.46,3.46,0,0,0,.33-1.51C313.93,159.43,312.59,157.79,309.53,158.56ZM201,162.5c-.85.63-1.69,1.28-2.53,1.93a2.94,2.94,0,0,0,2-.59A2.5,2.5,0,0,0,201,162.5Zm-50.11,60a2.19,2.19,0,0,0-.88-.65q-1.35,2.55-2.63,5.14C149.52,227.43,152.7,225.07,150.85,222.51Zm245.06-71.34a4.2,4.2,0,0,0,1.17.69Zm18.33,159.92c-.13-2.53-1.81-4.51-5.27-3.81-2.37.47-3.52,1.75-3.52,4.1C405.45,317.49,414.55,317,414.24,311.09ZM163.3,200.58c-.25.34-.5.67-.74,1a1.65,1.65,0,0,0,.31-.2A2,2,0,0,0,163.3,200.58ZM135.59,346a3.81,3.81,0,0,0-1.43.63c.39,1.59.79,3.17,1.21,4.74,1.77.49,4-.43,3.74-3C138.94,346.23,137.36,345.58,135.59,346Zm272.79,6.75c7,1.82,7.37-10.29,0-7.92C404.86,346,404.61,351.77,408.38,352.74ZM399.1,214.53c.09.14.17.29.26.44a3.69,3.69,0,0,0,2-3.61,4.71,4.71,0,0,0-.4-1.66l-1.23,3.38A13.09,13.09,0,0,1,399.1,214.53Zm14.55,171.06c-.13-2.23-1.49-4-4.68-3.22-2.11.48-2.94,1.58-2.94,3.51C406,391.39,414,390.65,413.65,385.59Zm-200.34-70.7a65.88,65.88,0,0,1-6.58-6.25,4.53,4.53,0,0,0-.74,2.74C206,316.15,210.45,316.58,213.31,314.89ZM196.9,332.21a3.76,3.76,0,0,0-2.64,2.35c-2.1,8.25,9.89,6.59,8.21,0C201.9,332.29,199.45,331.41,196.9,332.21Zm.88-12.61c-5.68.87-3.93,8.5.58,8.5C203.62,328.1,204.47,318.57,197.78,319.6ZM411.9,163.84a2.86,2.86,0,0,0,.59-1.77c-1.24-.92-2.48-1.81-3.74-2.69a2.81,2.81,0,0,0-1.25,4.17C408.22,164.58,410.88,164.78,411.9,163.84ZM225.64,147.71a1.93,1.93,0,0,0-.46-.41c-1.62.84-3.23,1.72-4.82,2.61C220.66,154.62,228.3,151.38,225.64,147.71ZM197.19,344.82a4.1,4.1,0,0,0-1.76,7C201.84,357.48,206.25,342.51,197.19,344.82ZM408.38,370a2.93,2.93,0,0,0-2.35,2.64c-.82,5.07,6.43,6.64,7.62,2.35A4,4,0,0,0,408.38,370ZM358.53,134.93a2.81,2.81,0,0,0-.9,4c.73,1,3.38,1.24,4.4.29a3.83,3.83,0,0,0,.52-3C361.22,135.76,359.88,135.34,358.53,134.93ZM250,139.2a3.62,3.62,0,0,0,.57-2.69c-1.75.58-3.49,1.2-5.21,1.84a3.87,3.87,0,0,0,.25.56C246.31,139.94,249,140.15,250,139.2ZM408.67,395.27c-2.37.73-2.27,2-2.35,2.64-.91,7.55,11.51,3.3,6.16-2.05A3.84,3.84,0,0,0,408.67,395.27Zm40.47-193.88a3.24,3.24,0,0,0,.6-2.18c-.63-.84-1.27-1.68-1.91-2.51a2.91,2.91,0,0,0-3.09,4.4C445.47,202.12,448.13,202.33,449.14,201.39Zm-39.78-17.68a14.93,14.93,0,0,1-.91,5.36l0,.11c2.08,1.34,4.93,1.35,4.66-2.75A2.86,2.86,0,0,0,409.36,183.71ZM291.09,436.56l17.26-17.26c-.23-1.69-.49-3.36-.77-5q-.49-2.86-1.08-5.67a134.91,134.91,0,0,0-5.43-18.93c-1.08-2.94-2.25-5.77-3.51-8.52-.29-.63-.57-1.28-.87-1.9-.2,0-.41,0-.62,0a6,6,0,0,1-.94-.07,30.55,30.55,0,0,1-6.3-1.55,38.74,38.74,0,0,1-8.52-4.38c-1.17-.79-2.28-1.62-3.35-2.48-.71-.58-1.39-1.17-2.06-1.76-1.08-1-2.1-2-3.06-2.95-1.48-1.53-2.82-3.06-4-4.51a74.71,74.71,0,0,1-4.5-6.15,8.38,8.38,0,0,1-1.28-.35,8.12,8.12,0,0,1-2.21-1.24,9,9,0,0,1-1.15-1.07l-.86.27a69.37,69.37,0,0,1-19.95,3.2c-6.76,0-14-1.28-20.26-5.24a6.55,6.55,0,0,1-1.25-1q-2.91,3.27-5.67,6.84c-.66.86-1.31,1.73-2,2.61h40a34.68,34.68,0,0,1,4.09.25c.89.11,1.77.24,2.64.41a34.34,34.34,0,0,1,9.68,3.49,35,35,0,0,1,12.48,11.48A34.31,34.31,0,0,1,283,390a33.91,33.91,0,0,1,.25,4.06v87.24A177.24,177.24,0,0,0,304,482.81c1-3.34,1.82-6.75,2.56-10.27-.19,0-.37,0-.56,0a21.41,21.41,0,0,1-5.27-.69,20.53,20.53,0,0,1-4.11-1.52,21,21,0,0,1-5.54-4,21.88,21.88,0,0,1-2.94-3.71,20.78,20.78,0,0,1-2.37-5.25,21.21,21.21,0,0,1,5.31-20.88Zm276-127.28s0-.09,0-.13c0-8-5.8-15.35-14.52-15.35-6.92,0-10.94,5-12.31,9.63-1.37-4.66-5.38-9.63-12.31-9.63-8.72,0-14.51,7.33-14.51,15.35v.13c-.05,1.74,0,19.48,26.81,34h0C567.13,328.76,567.17,311,567.12,309.28Zm-468.6-.13c0-8-5.79-15.35-14.51-15.35-6.93,0-10.94,5-12.31,9.63-1.37-4.66-5.39-9.63-12.31-9.63-8.72,0-14.52,7.33-14.52,15.35,0,0,0,.08,0,.13-.05,1.74,0,19.48,26.81,34h0c26.81-14.47,26.86-32.21,26.81-34Z"/><path id="White_Out" data-name="White Out" class="cls-1" d="M476,356.52a13.46,13.46,0,0,0-12.71-12.37c-.28,0-.59,0-.89,0a13.32,13.32,0,0,0-13.11,10.72l-.15.73A14.89,14.89,0,0,0,435.79,374l2.19,8.91a15.24,15.24,0,0,0-3.3-.37,14.9,14.9,0,0,0-9.25,3.26A14.72,14.72,0,0,0,420,399.4l1.29,9.33-2.54-1a14.9,14.9,0,0,0-19.61,10,14.81,14.81,0,0,0-7.33-1.91h-3.37L398,401.5a14.85,14.85,0,0,0-11.09-23l-12.27-1.08,8.62-11.24a14.89,14.89,0,0,0-6-22.74l.57-.45L396,344.57c.43,0,.88.06,1.32.06a14.86,14.86,0,0,0,12.14-23.38l-7.67-11c.81-1.71,1.63-3.49,2.45-5.32l17.74-3a14.85,14.85,0,0,0,7.08-26l-15.67-13.28c0-.47,0-.94.05-1.41l17.24-15.05a14.85,14.85,0,0,0-7.46-25.87l-20.66-3.25c-.52-.91-1-1.82-1.6-2.73a14.19,14.19,0,0,0,.62-1.44l8.73-24a14.88,14.88,0,0,0-13.92-20,15,15,0,0,0-5.12.91l-23.5,8.55a15.19,15.19,0,0,0,0-2.13l-2.15-25.46a14.72,14.72,0,0,0-9.68-12.7,15,15,0,0,0-5.16-.92,14.7,14.7,0,0,0-10.44,4.33l-18.13,18a14.79,14.79,0,0,0-3.26,4.87l-5.41-2A85.66,85.66,0,0,0,214,193.65h0l-7.73-2.82a8.65,8.65,0,0,0-2.93-.51,7.49,7.49,0,0,0-7.21,4.83l-2.37,6.51a7.5,7.5,0,0,0,1.81,7.77c-3.49,9.94-7.63,23.16-9.91,35.42-3.46,18.61-1.69,30.11,5.43,35.16.71.5,1.46,1,2.28,1.53a70.84,70.84,0,0,0,3.45,9.14,68.2,68.2,0,0,0,23.84,28.11A41.48,41.48,0,0,0,214.9,329c-2.25,5.68-3.4,10.37-3.47,14.24a140.1,140.1,0,0,0-9.06,11.31H125.78l1.88,6.12c.22.74.46,1.47.7,2.2l.07.22.19.6c.2.61.39,1.22.6,1.83a190.73,190.73,0,0,0,43,70.73q1,1.1,2.1,2.16c.7.71,1.41,1.4,2.12,2.1,1,.92,1.84,1.78,2.72,2.6A188.37,188.37,0,0,0,279.7,492.25c.61.1,1.22.18,1.83.27l.6.08.66.1,1.77.24a189.64,189.64,0,0,0,19,1.47c1.93.06,3.69.08,5.37.08A188.75,188.75,0,0,0,381.62,480l1.09-.46,6.73,9.09.06-12.12,2.06-1a191.39,191.39,0,0,0,64.28-50.85c3.83-4.68,7.47-9.6,10.82-14.63.83-1.24,1.56-2.34,2.22-3.38l1.38-2.21.05-.08c1.24-2,2.45-4.05,3.58-6.05l.43-.75.13-.85A166.92,166.92,0,0,0,476,356.52Z"/><path id="Lap" class="cls-4" d="M250.6,364H133.7a184.9,184.9,0,0,0,41.91,69l2,2.1c.68.69,1.37,1.36,2.07,2,.87.86,1.75,1.7,2.65,2.54a184.34,184.34,0,0,0,98.05,47.93V393.83A29.86,29.86,0,0,0,250.6,364Z"/><path id="Pikes" class="cls-5" d="M376.45,355.12a5.38,5.38,0,0,0-4.18-3.33l-15.18-2.38a62.38,62.38,0,0,1-6.17,2q3.65,4.52,7,9.52,4.1,6.06,7.69,12.62l10.07-13.13A5.36,5.36,0,0,0,376.45,355.12Zm15.35,70.24h-7.26a221.53,221.53,0,0,1,3.68,23.26l8.32-15.28a5.4,5.4,0,0,0-4.74-8Zm.68-215.16a5.05,5.05,0,0,0,.24-.53l8.73-24a5.42,5.42,0,0,0-5-7.26,5.77,5.77,0,0,0-1.9.34l-24,8.74a5.32,5.32,0,0,0-2.11,1.4A80.25,80.25,0,0,1,392.48,210.2Zm1.44,105.3c-3.8,7.18-8,13.76-12.28,18.32l15.21,1.33a5.4,5.4,0,0,0,4.89-8.47ZM356.24,181.8a5.3,5.3,0,0,0,2.1-4.74l-2.15-25.47a5.29,5.29,0,0,0-3.51-4.61,5.64,5.64,0,0,0-1.92-.34,5.28,5.28,0,0,0-3.75,1.58l-18.13,18a5.32,5.32,0,0,0-1.47,5,5.7,5.7,0,0,0,.61,1.55l26.75,9.84A5.71,5.71,0,0,0,356.24,181.8ZM390.45,391a5.35,5.35,0,0,0-4.39-3l-13.92-1.21a191,191,0,0,1,8.61,23.65l9.34-14.08A5.33,5.33,0,0,0,390.45,391Zm44.24,1a5.4,5.4,0,0,0-5.33,6.14l1.4,10a156.86,156.86,0,0,0,9.08-14.62l-3.23-1.22A5.38,5.38,0,0,0,434.69,392Zm16.77-26.81a5.4,5.4,0,0,0-6.48,6.54l1.79,7.27a134.4,134.4,0,0,0,4.78-13.77Zm-28.48-82-7.12-6-1.73,4.75a3.11,3.11,0,0,1-4.08,1.49l-1.9-.69c-1.35,3.7-3,8.13-5,12.88l17.26-3a5.4,5.4,0,0,0,2.57-9.44Zm-9.5,133.13a5.4,5.4,0,0,0-5.33,6.14l1.43,10.29a166.12,166.12,0,0,0,12.69-13.49l-6.87-2.59A5.34,5.34,0,0,0,413.48,416.28Zm8.3-186.61L402,226.56A80.82,80.82,0,0,1,408.55,253l15.94-13.91a5.39,5.39,0,0,0-2.71-9.39Z"/><path id="Green.Base" class="cls-6" d="M352.82,345.9c1.27-.41,2.53-.85,3.77-1.36,1-.38,1.91-.79,2.85-1.22a59.69,59.69,0,0,0,6.59-3.58h-.1a68.46,68.46,0,0,1-9.48,4.79Q354.67,345.27,352.82,345.9ZM266.5,333.12c.22-.07.45-.13.67-.18l-1.49-.55Zm26.22,4.17,13.62,5,7.94,2.92A58.56,58.56,0,0,0,342,348.35l1.33-.19,1-.76c.63-.48,1.26-1,1.88-1.47a68.27,68.27,0,0,0,8.63-8.38,203.06,203.06,0,0,1-20.77-6.36c-3.08-1.12-6-2.27-8.76-3.43-6.6-2.79-11.88-5.55-14.4-7.71a5.2,5.2,0,0,1-1.51-1.82c-6.44-16.67-5.21-32.47-4.36-41.25.55-5.58,1.06-10.73,1.85-15.26a15.72,15.72,0,0,0-6.73-4.33,15.53,15.53,0,0,0-7.94-1c-2.31,4-5.23,8.24-8.4,12.86-5,7.28-14.2,20.18-29.85,28.81-2.79,1.54-14.4-1.26-27.23-5.93a194.08,194.08,0,0,1-23.37-10.21q.87,2.41,1.95,4.77a58.69,58.69,0,0,0,32.78,30.54l.4.16,9.79,3.59.09,0,3.25,1.19h0l3.31,1.21,8.54,3.15,28.66,10.53Zm-18.11-16.37a39.07,39.07,0,0,1-3.71-1.6,34,34,0,0,1-3.27-1.86h0a27.56,27.56,0,0,1-2.62-1.91c-5.19-4.26-7.7-9.56-6.05-14.08a2.37,2.37,0,0,1,4.45,1.64c-1.1,3,2.07,7.82,8.37,11.33a32.8,32.8,0,0,0,4.29,2h0l.17.07c6.61,2.43,12.52,2.26,15.84.65a5.35,5.35,0,0,0,2.37-2,4,4,0,0,0,.25-.51,2.36,2.36,0,0,1,4.47,1.53l0,.1A8.31,8.31,0,0,1,298,318.3a9.08,9.08,0,0,1-2,2c-2.48,1.82-6,2.78-10.14,2.78A33.16,33.16,0,0,1,274.61,320.92Zm189,32.83a5.07,5.07,0,0,0-.92-.16h-.28a3.78,3.78,0,0,0-3.88,3.19c-.39,1.88-.84,3.75-1.32,5.62-.19.77-.38,1.54-.59,2.31s-.44,1.53-.66,2.29a142.08,142.08,0,0,1-7.33,19.55c-.52,1.13-1.05,2.25-1.6,3.37-.18.36-.34.72-.52,1.07-.3.61-.62,1.2-.93,1.8l-.16.32c-.37.71-.74,1.41-1.12,2.11a161,161,0,0,1-12.6,19.71L430,417.09c-.11.13-.21.26-.31.4-.41.52-.8,1-1.22,1.55-.16.21-.34.42-.51.63L426.94,421a171.3,171.3,0,0,1-16.56,17.46c-.71.64-1.41,1.29-2.12,1.92s-1.38,1.2-2.08,1.8a175.38,175.38,0,0,1-17.36,13.11c.41,5.29.63,10.65.68,16a185.55,185.55,0,0,0,62.68-49.58q1.38-3.63,2.61-7.32c.45-1.36.89-2.71,1.31-4.08q1.5-4.89,2.73-9.85c.26-1.07.51-2.13.75-3.2a3.59,3.59,0,0,0,.08-.35c.58-2.59,1.1-5.18,1.56-7.79a168.22,168.22,0,0,0,2.19-17.85c0-.41,0-.82.07-1.22,0-.84.1-1.67.13-2.5s.07-1.68.09-2.52Q463.87,359.4,463.61,353.75ZM289.47,229.5c3.52,2.42,5.7,5,6.83,7.69,2.82,1.36,7.59,3.63,9.67,4.39s7.2,2.09,10.23,2.85c2.61-1.35,5.92-1.9,10.17-1.5,9.18,0,23.8,4.24,38.35,9.54,5.71,2.08,11.42,4.31,16.78,6.51a68.36,68.36,0,0,0-44.35-58.18L274,177.59a67.56,67.56,0,0,0-21.38-4.12,76,76,0,0,0-32.35,27.83c9.3,2.69,21.7,6.49,33.69,10.86C268.52,217.46,282.47,223.57,289.47,229.5ZM384.2,456.88c0-.46-.07-.92-.11-1.38s0-.65-.07-1l-.15-1.68-.06-.67a217.7,217.7,0,0,0-4.15-26.81c-.17-.79-.34-1.58-.53-2.36s-.37-1.58-.56-2.37-.38-1.52-.57-2.27l-.6-2.31-.63-2.28a187.15,187.15,0,0,0-10-27.43c-.34-.75-.69-1.49-1-2.23s-.7-1.45-1-2.17c-.16-.31-.31-.63-.47-.94-.35-.71-.72-1.41-1.08-2.11s-.74-1.42-1.12-2.12a145.33,145.33,0,0,0-13.89-21.28c-.76-1-1.53-1.92-2.32-2.86l-.06-.07c-.8.15-1.6.27-2.41.38a62.49,62.49,0,0,1-8.75.64,63.6,63.6,0,0,1-21.91-3.92l-.85-.32a19.65,19.65,0,0,1,.28,3.42,36.58,36.58,0,0,1-2,11c-3.26,9.83-7.05,14.85-11.53,15.27a134.66,134.66,0,0,1,11.65,40.05l15.43-15.43A2.37,2.37,0,1,1,329,407l-32.68,32.68a16.39,16.39,0,0,0-3.09,18.81c5.35,1.84,11.6,1.3,17.61-1.63a31.38,31.38,0,0,0,4.62-2.77l30.73-29.9,3.85-3.74.47-.46,14.29,2.84-8.72,8.31a2.37,2.37,0,0,1-.58,2.36l-32.68,32.68a21,21,0,0,1-14.37,6.14,137.17,137.17,0,0,1-4.79,17.32c1.74.05,3.49.08,5.24.08a184.86,184.86,0,0,0,49.83-6.8,182.53,182.53,0,0,0,21.07-7.29l2.24-.95,2.22-1,.51-.23v-.21q0-7.65-.49-15.13Z"/><path id="Green.Shad" class="cls-7" d="M384.2,456.88c0-.46-.07-.92-.11-1.38s0-.65-.07-1l-.15-1.68-.06-.67a217.7,217.7,0,0,0-4.15-26.81c-.17-.79-.34-1.58-.53-2.36s-.37-1.58-.56-2.37-.38-1.52-.57-2.27l-.6-2.31-.63-2.28a187.15,187.15,0,0,0-10-27.43c-.34-.75-.69-1.49-1-2.23s-.7-1.45-1-2.17c-.16-.31-.31-.63-.47-.94-.35-.71-.72-1.41-1.08-2.11s-.74-1.42-1.12-2.12a145.33,145.33,0,0,0-13.89-21.28c-.76-1-1.53-1.92-2.32-2.86l-.06-.07c-.8.15-1.6.27-2.41.38a62.49,62.49,0,0,1-8.75.64,63.6,63.6,0,0,1-21.91-3.92l-.85-.32a19.65,19.65,0,0,1,.28,3.42c16.63,16.69,29.89,40.17,38,67.73l-3.85,3.74-30.73,29.9a31.38,31.38,0,0,1-4.62,2.77c-6,2.93-12.26,3.47-17.61,1.63a16.19,16.19,0,0,0,3.09,4.34,16.39,16.39,0,0,0,23.15,0l32.68-32.68a2.79,2.79,0,0,1,.39-.31,2.38,2.38,0,0,1,3,.31,2.44,2.44,0,0,1,.58,1,2.37,2.37,0,0,1-.58,2.36l-1.73,1.72a226.64,226.64,0,0,1,5,47.52V483a182.53,182.53,0,0,0,21.07-7.29l2.24-.95,2.22-1,.51-.23v-.21q0-7.65-.49-15.13ZM347.54,347.37q2.67-.62,5.28-1.47,1.85-.63,3.63-1.38a68.46,68.46,0,0,0,9.48-4.79c-3.39-.48-7.13-1.23-11-2.18a68.27,68.27,0,0,1-8.63,8.38c-.62.5-1.25,1-1.88,1.47l-1,.76c.5-.07,1-.16,1.49-.24l.76-.13C346.26,347.66,346.9,347.51,347.54,347.37Zm48.85-121.68c-.39-.8-.78-1.6-1.2-2.39s-.81-1.49-1.23-2.23c-.76-1.33-1.55-2.65-2.39-3.93-.44-.67-.9-1.33-1.36-2s-1-1.37-1.49-2.05a75.5,75.5,0,0,0-21.65-19.51c-.81-.49-1.62-1-2.45-1.42s-1.49-.79-2.24-1.17a77.09,77.09,0,0,0-7.92-3.47l-.21-.08L325,176.71l-14.76-5.42a75.72,75.72,0,0,0-57.65,2.18A67.56,67.56,0,0,1,274,177.59l63.14,23.21A68.36,68.36,0,0,1,381.5,259c4,1.63,7.75,3.23,11.21,4.73l2.37,1,2.59,1.14c2.1.93,4,1.79,5.73,2.57.08-.57.16-1.13.22-1.7.09-.91.16-1.82.22-2.72s.1-1.58.13-2.37v-.2c0-.76.06-1.51.06-2.26s0-1.68,0-2.52A76.29,76.29,0,0,0,396.39,225.69ZM467,366.41q-.1-4.56-.5-9.08a3.86,3.86,0,0,0-2.93-3.58q.25,5.64.09,11.3,0,1.26-.09,2.52c0,.83-.08,1.66-.13,2.5,0,.4-.05.81-.07,1.22a168.22,168.22,0,0,1-2.19,17.85c-.46,2.61-1,5.2-1.56,7.79a3.59,3.59,0,0,1-.08.35c-.24,1.07-.49,2.13-.75,3.2q-1.23,5-2.73,9.85c-.42,1.37-.86,2.72-1.31,4.08q-1.23,3.69-2.61,7.32,5.6-6.87,10.55-14.27A165.44,165.44,0,0,0,467,376.37Q467.18,371.38,467,366.41Z"/><path id="Green.Vib" class="cls-8" d="M307.91,472.39a21.1,21.1,0,0,1-14.92-36l17.25-17.25a134.66,134.66,0,0,0-11.65-40.05c-.21,0-.42.05-.63.05a7.28,7.28,0,0,1-.93-.07c-16-2.14-27.44-17.12-31.79-23.78a9.44,9.44,0,0,1-1.29-.35,8.35,8.35,0,0,1-3.36-2.31,69.88,69.88,0,0,1-20.8,3.47c-6.76,0-14-1.28-20.27-5.24a6.6,6.6,0,0,1-1.25-1q-4,4.47-7.63,9.46h40a34.59,34.59,0,0,1,34.56,34.56v94.42a185,185,0,0,0,18.51,1.43,137.17,137.17,0,0,0,4.79-17.32Z"/><path id="Bow.Base" class="cls-9" d="M243.34,326.29Zm2.33-1.25-.08,0,.08,0Zm-3.72,2c-.95-.38-1.92-.74-2.91-1.07a51.12,51.12,0,0,0-7.47-1.95,5.4,5.4,0,0,0-4,1.21,33.31,33.31,0,0,0-3.89,7.23,47.34,47.34,0,0,0-2.3,7.22,17.28,17.28,0,0,0-.48,3.83,5.06,5.06,0,0,0,.61,2.77,1.71,1.71,0,0,0,.33.37l.2.17c12.28,7.78,29.95,3.45,36.41,1.46a11,11,0,0,1,.44-6.11l.59-1.63.31-.85a12,12,0,0,1,.68-1.51,74.27,74.27,0,0,0-15.79-10C243.8,327.84,242.88,327.45,242,327.07Zm29.76,19.3.74-2a.06.06,0,0,0,0,0,7.34,7.34,0,0,0-.46-1.24,6.32,6.32,0,0,0-.76-1.25,6,6,0,0,0-1.92-1.63,6.41,6.41,0,0,0-.75-.35c-.2-.07-.4-.11-.6-.16a5,5,0,0,0-.93-.15,6.26,6.26,0,0,0-1.56.08,2.84,2.84,0,0,0-.31.06,6.59,6.59,0,0,0-.93,1.69l-.05.15-.26.71-.59,1.62a6.35,6.35,0,0,0-.36,2.64,5.18,5.18,0,0,0,.32,1.61,4.61,4.61,0,0,0,.36.74,3.81,3.81,0,0,0,.67.86,3.48,3.48,0,0,0,1.24.8h0a3.67,3.67,0,0,0,2.53,0,5.07,5.07,0,0,0,.76-.34,6.15,6.15,0,0,0,2.69-3.29ZM305,350.78c-9.53-5.46-20.13-7.15-27.5-7.6a11.51,11.51,0,0,1-.62,2.77l-.9,2.47c-.1.27-.21.52-.32.78a10.88,10.88,0,0,1-4.5,5,6.08,6.08,0,0,1-.68.33c4.49,6.35,13.68,17.13,25.53,19.54.54.11,1.08.21,1.63.28,1.84.26,4.9-2.79,8-12.05a33.6,33.6,0,0,0,1.67-8A5.43,5.43,0,0,0,305,350.78Z"/><path id="Bow.Shad" class="cls-10" d="M305.82,347.4c-.46-.27-.93-.52-1.4-.77l-12.89-4.74A72.94,72.94,0,0,0,277.39,340a11,11,0,0,1,.13,3.15c7.37.45,18,2.14,27.5,7.6a5.43,5.43,0,0,1,2.28,3.51C307.56,350.5,306.84,348,305.82,347.4Zm-58.28-21.51-1.22-.61-.65-.24-.08,0,.08,0-3-1.11-5.71-2.1-.13-.05c-1.2-.32-2.42-.61-3.67-.84l-.23,0c-1.2,0-3.23,1.47-5.32,4.34a5.4,5.4,0,0,1,4-1.21A51.12,51.12,0,0,1,239,326c1,.33,2,.69,2.91,1.07s1.85.77,2.74,1.18a74.27,74.27,0,0,1,15.79,10,10.84,10.84,0,0,1,1.81-2.47,74.62,74.62,0,0,0-13.88-9.42C248.13,326.17,247.83,326,247.54,325.89Zm-4.2.4Zm28.1,12.17-.18-.15a3.54,3.54,0,0,0-.84-.54l-.19-.1a3.42,3.42,0,0,0-1.19-.2h-.28a3.8,3.8,0,0,0-1.07.23,4.9,4.9,0,0,0-.75.33,6,6,0,0,0-1.28,1,6.94,6.94,0,0,0-.49.57,2.84,2.84,0,0,1,.31-.06,6.26,6.26,0,0,1,1.56-.08,5,5,0,0,1,.93.15c.2,0,.4.09.6.16a6.41,6.41,0,0,1,.75.35,6,6,0,0,1,1.92,1.63,6.32,6.32,0,0,1,.76,1.25,7.34,7.34,0,0,1,.46,1.24,6.15,6.15,0,0,0,.3-1.25,6,6,0,0,0-.3-3A4.59,4.59,0,0,0,271.44,338.46Z"/><path class="cls-11" d="M519.47,149.72l-15.76-21.15-46.63,34.74,10.31,13.83,12.5-9.32,5.52,7.27q6.73,9,15,10.58T517,181q7.9-5.89,8.54-14.07T519.47,149.72ZM510.29,163a7.75,7.75,0,0,1-3.42,5.19,8,8,0,0,1-6.06,1.87,8.21,8.21,0,0,1-5.25-3.58l-5-6.65,12.77-9.52,5,6.65A8.38,8.38,0,0,1,510.29,163ZM145.79,175.8a36.79,36.79,0,0,0,7.8-15.17,26.54,26.54,0,0,0-.81-15.16,29.05,29.05,0,0,0-9.26-12.76,29.35,29.35,0,0,0-14.24-6.65,26.39,26.39,0,0,0-14.86,2,35.72,35.72,0,0,0-13.18,10.37L85.07,158.12,130,195Zm-34.25-28.47a13,13,0,0,1,9.75-5.08q5.8-.27,11.19,4.15t6.34,9.93a12,12,0,0,1-2.79,10l-5.53,6.73-24-19.69ZM265,315.54a27.56,27.56,0,0,0,2.62,1.91h0a34,34,0,0,0,3.27,1.86,39.07,39.07,0,0,0,3.71,1.6,33.16,33.16,0,0,0,11.27,2.13c4.11,0,7.66-1,10.14-2.78a9.08,9.08,0,0,0,2-2,8.31,8.31,0,0,0,1.13-2.07l0-.1a2.36,2.36,0,0,0-4.47-1.53,4,4,0,0,1-.25.51,5.35,5.35,0,0,1-2.37,2c-3.32,1.61-9.23,1.78-15.84-.65l-.17-.07h0a32.8,32.8,0,0,1-4.29-2c-6.3-3.51-9.47-8.36-8.37-11.33a2.37,2.37,0,0,0-4.45-1.64C257.3,306,259.81,311.28,265,315.54ZM152.73,462.91a6.39,6.39,0,0,1,3.28,1.85,30.53,30.53,0,0,1,5.55,7.93A58.4,58.4,0,0,1,166,483.45L180.23,478a44.54,44.54,0,0,0-5-11.75,48.54,48.54,0,0,0-8.52-10.67,34.07,34.07,0,0,0-11.15-7.3,19.6,19.6,0,0,0-10.94-1.13,17.14,17.14,0,0,0-9.24,5.31q-4.14,4.4-4.47,9.15a18.4,18.4,0,0,0,1.46,8.88,76.39,76.39,0,0,0,5.25,9.61,45.87,45.87,0,0,1,4.11,7.7,4.18,4.18,0,0,1-.68,4.62,3.66,3.66,0,0,1-3.38,1.2,8.12,8.12,0,0,1-4.09-2.31,30.79,30.79,0,0,1-6.39-9.73,40.29,40.29,0,0,1-3.55-12.5l-14.21,5.31a43.6,43.6,0,0,0,4.89,14.46,48.51,48.51,0,0,0,9.52,12.56,35,35,0,0,0,10.67,7.07,19.81,19.81,0,0,0,11,1.4,17.06,17.06,0,0,0,9.7-5.47q4.25-4.51,4.61-9.37a19.27,19.27,0,0,0-1.37-9,79,79,0,0,0-5.14-9.86,46.38,46.38,0,0,1-4-7.71,4.11,4.11,0,0,1,.69-4.49A3,3,0,0,1,152.73,462.91Zm271-325.31a33.52,33.52,0,0,0,15.52,6.13,29.12,29.12,0,0,0,15.55-2.33,30.05,30.05,0,0,0,12.32-10.35,29.29,29.29,0,0,0,5.51-14.94,29,29,0,0,0-3.1-15.33A35.72,35.72,0,0,0,443,82.07a29,29,0,0,0-15.44,2.25,29.31,29.31,0,0,0-12.22,10.21,29.81,29.81,0,0,0-5.61,15.07,29.14,29.14,0,0,0,3,15.41A33.33,33.33,0,0,0,423.77,137.6Zm2.94-25.12a16.82,16.82,0,0,1,3.05-7.7,16.61,16.61,0,0,1,6.2-5.42,15,15,0,0,1,7.55-1.63,13.07,13.07,0,0,1,7,2.39,12.43,12.43,0,0,1,4.5,5.71,14.47,14.47,0,0,1,.79,7.51,18.61,18.61,0,0,1-9.27,13.15,14.64,14.64,0,0,1-7.4,1.79,12.34,12.34,0,0,1-6.88-2.26,12.85,12.85,0,0,1-4.58-5.82A15.29,15.29,0,0,1,426.71,112.48Zm-30.6-9.81-23.18-7.58,13.59-41.55-16.39-5.36-18.08,55.26,39.57,13ZM340,87.1l-31.08-1.27.38-9.2,27.43,1.12.55-13.26-27.44-1.12.38-9.12,30.25,1.24L341,42.23l-47.49-1.95-2.38,58.1,48.32,2ZM260.46,104l6.44-62-17,4.63L247.6,89,224.24,53.62l-17.77,4.83,36.7,50.27Zm-45.15,14.49-7.21-11.15L182,124.26l-5-7.73L200,101.62l-7.21-11.15-23,14.92-5-7.66,25.42-16.45L183,70.14,143.12,96l31.59,48.82Zm140.2,311.68a2.38,2.38,0,0,0-3-.31,2.79,2.79,0,0,0-.39.31l-32.68,32.68a16.37,16.37,0,0,1-23.15-23.15L329,407a2.37,2.37,0,1,0-3.34-3.35L293,436.37a21.1,21.1,0,0,0,14.92,36l.55,0a21,21,0,0,0,14.37-6.14l32.68-32.68a2.37,2.37,0,0,0,.58-2.36A2.44,2.44,0,0,0,355.51,430.19ZM365.12,267a26.29,26.29,0,1,0,1.67,49.07l.73-.33a26.46,26.46,0,0,0,8.51-6.22,26.27,26.27,0,0,0,3.69-5.22,26.63,26.63,0,0,0,1.39-3.07c.11-.27.21-.54.31-.82.19-.55.35-1.11.51-1.67A26.29,26.29,0,0,0,365.12,267Zm9.68,24a10.41,10.41,0,1,1-6.46-13.23A10.41,10.41,0,0,1,374.8,291.05ZM487.08,460.67a30.39,30.39,0,0,0-13.76-9.16A30,30,0,0,0,457.1,451a37.08,37.08,0,0,0-25.28,22.29,30.11,30.11,0,0,0-1.44,16.13,30.47,30.47,0,0,0,7.37,14.8,31.05,31.05,0,0,0,13.87,9.28,30.15,30.15,0,0,0,16.27.69,36.76,36.76,0,0,0,25.28-22.29,30.18,30.18,0,0,0,1.39-16.26A31,31,0,0,0,487.08,460.67Zm-9.54,27.64a12.82,12.82,0,0,1-3.94,6.4,13.36,13.36,0,0,1-7,3.22,15.87,15.87,0,0,1-8-.9,18.2,18.2,0,0,1-11-12.49,15.61,15.61,0,0,1,.17-8,13.52,13.52,0,0,1,4.1-6.49,13,13,0,0,1,6.84-3.17,15,15,0,0,1,7.78,1,19.37,19.37,0,0,1,11,12.53A15.23,15.23,0,0,1,477.54,488.31Zm-241.9-213.6a26.29,26.29,0,1,0-16.29-33.42A26.29,26.29,0,0,0,235.64,274.71Zm7.11-32.45a10.41,10.41,0,1,1,6.46,13.24A10.42,10.42,0,0,1,242.75,242.26Zm139,291.27a24,24,0,0,0,.11-11.78q-2.19-10-9.9-14.05t-19.57-1.45l-27.5,6,12.89,59,17.49-3.82-3.48-15.9,9.25-2,11.3,14.19,19.85-4.34L376,542.67A19.44,19.44,0,0,0,381.72,533.53Zm-17.25-1.12a8.57,8.57,0,0,1-5.64,3.44l-10,2.19-3.53-16.15,10-2.19a8.69,8.69,0,0,1,6.55.73,8,8,0,0,1,3.44,5.46A8.32,8.32,0,0,1,364.47,532.41ZM308.91,112.93c-105.84,0-192,86.12-192,192s86.12,192,192,192,192-86.12,192-192S414.76,112.93,308.91,112.93ZM280.43,480.37A178.33,178.33,0,0,1,141.26,364H250.6a29.86,29.86,0,0,1,29.83,29.83Zm28.48,2.29a177.3,177.3,0,0,1-23.75-1.59V393.83a34.59,34.59,0,0,0-34.56-34.56h-40q3.66-5,7.63-9.46a6.6,6.6,0,0,0,1.25,1c6.25,4,13.51,5.24,20.27,5.24a69.88,69.88,0,0,0,20.8-3.47,8.35,8.35,0,0,0,3.36,2.31,9.44,9.44,0,0,0,1.29.35c4.35,6.66,15.79,21.64,31.79,23.78a7.28,7.28,0,0,0,.93.07c.21,0,.42,0,.63-.05,4.48-.42,8.27-5.44,11.53-15.27a36.58,36.58,0,0,0,2-11,19.65,19.65,0,0,0-.28-3.42l.85.32a63.6,63.6,0,0,0,21.91,3.92,62.49,62.49,0,0,0,8.75-.64c.81-.11,1.61-.23,2.41-.38l.06.07c.79.94,1.56,1.89,2.32,2.86A145.33,145.33,0,0,1,362,376.77c.38.7.75,1.41,1.12,2.12s.73,1.4,1.08,2.11c.16.31.31.63.47.94.35.72.71,1.44,1,2.17s.7,1.48,1,2.23a187.15,187.15,0,0,1,10,27.43l.63,2.28.6,2.31c.19.75.39,1.51.57,2.27s.38,1.58.56,2.37.36,1.57.53,2.36a217.7,217.7,0,0,1,4.15,26.81l.06.67.15,1.68c0,.33.05.66.07,1s.07.92.11,1.38l.09,1.3c.16,2.49.28,5,.37,7.52A176.76,176.76,0,0,1,308.91,482.66Zm45.34-295.21.21.08a77.09,77.09,0,0,1,7.92,3.47c.75.38,1.51.76,2.24,1.17s1.64.93,2.45,1.42a75.5,75.5,0,0,1,21.65,19.51c.51.68,1,1.36,1.49,2.05s.92,1.32,1.36,2c.84,1.28,1.63,2.6,2.39,3.93.42.74.84,1.48,1.23,2.23s.81,1.59,1.2,2.39a76.29,76.29,0,0,1,7.6,31c0,.84.05,1.67,0,2.52s0,1.5-.06,2.26v.2c0,.79-.08,1.58-.13,2.37s-.13,1.81-.22,2.72c-.06.57-.14,1.13-.22,1.7-1.7-.78-3.63-1.64-5.73-2.57l-2.59-1.14-2.37-1c-3.46-1.5-7.24-3.1-11.21-4.73-5.36-2.2-11.07-4.43-16.78-6.51-14.55-5.3-29.17-9.57-38.35-9.54-4.25-.4-7.56.15-10.17,1.5-3-.76-8.14-2.09-10.23-2.85s-6.85-3-9.67-4.39c-1.13-2.71-3.31-5.27-6.83-7.69-7-5.93-21-12-35.5-17.34-12-4.37-24.39-8.17-33.69-10.86a76,76,0,0,1,90-30L325,176.71Zm-25.37-21.22,18.13-18a5.28,5.28,0,0,1,3.75-1.58,5.64,5.64,0,0,1,1.92.34,5.29,5.29,0,0,1,3.51,4.61l2.15,25.47a5.3,5.3,0,0,1-2.1,4.74,5.71,5.71,0,0,1-1.47.8L328,172.76a5.7,5.7,0,0,1-.61-1.55A5.32,5.32,0,0,1,328.88,166.23Zm39.53,22.64a5.32,5.32,0,0,1,2.11-1.4l24-8.74a5.77,5.77,0,0,1,1.9-.34,5.42,5.42,0,0,1,5,7.26l-8.73,24a5.05,5.05,0,0,1-.24.53A80.25,80.25,0,0,0,368.41,188.87ZM402,226.56l19.77,3.11a5.39,5.39,0,0,1,2.71,9.39L408.55,253A80.82,80.82,0,0,0,402,226.56Zm8,56.8a3.11,3.11,0,0,0,4.08-1.49l1.73-4.75,7.12,6a5.4,5.4,0,0,1-2.57,9.44l-17.26,3c2-4.75,3.65-9.18,5-12.88ZM394.8,293c-.53,1.28-1.09,2.58-1.65,3.88l-1,2.18c-.32.73-.65,1.46-1,2.19-.21.44-.4.89-.6,1.33,0,0,0,.07-.05.1-.37.8-.74,1.57-1.1,2.33s-.79,1.65-1.18,2.43c-11.36,22.92-17.83,24.05-17.9,24.05-.77-.06-1.61-.16-2.47-.27s-2-.28-3.1-.47c-.87-.15-1.77-.31-2.69-.5l-1.53-.32a183.67,183.67,0,0,1-23.48-6.9c-11.19-4.07-17.82-7.57-20-9.19a70.53,70.53,0,0,1-4-22.57c1.65-20.94,8-35.09,12.14-37.68,2.87-1.78,17.15,1.3,26.37,3.55,3.06,1,6.42,2.15,10.13,3.5,6.83,2.48,13.68,5.21,19.93,7.82,2.64,1.11,5.18,2.19,7.56,3.22l2.19.95.74.33a13.33,13.33,0,0,1,1.22,1.5C397.13,279.73,396.51,287,394.8,293Zm6.94,33.68a5.4,5.4,0,0,1-4.89,8.47l-15.21-1.33c4.3-4.56,8.48-11.14,12.28-18.32ZM251,220.33c3.71,1.35,7,2.62,10,3.83,8.51,4.2,21.43,11,22.48,14.23C285,243,280.76,258,268.56,275.06A70.39,70.39,0,0,1,251,289.78c-2.73-.16-10.06-1.75-21.24-5.82-11.59-4.22-22.56-9.4-29.31-13.81-.57-.37-1.12-.74-1.62-1.1,0,0-.81-.95-1.23-4-.63-4.48-.44-13.56,4.29-31.08.83-3.09,1.73-6.13,2.64-9.06l.33-1.07.29-.62a30.3,30.3,0,0,1,5.64-8.43,17.13,17.13,0,0,1,3.75-2.9,13.36,13.36,0,0,1,5.22-1.72C228.7,212.82,240.06,216.35,251,220.33Zm-24.2,71.8c12.83,4.67,24.44,7.47,27.23,5.93,15.65-8.63,24.86-21.53,29.85-28.81,3.17-4.62,6.09-8.89,8.4-12.86a15.53,15.53,0,0,1,7.94,1,15.72,15.72,0,0,1,6.73,4.33c-.79,4.53-1.3,9.68-1.85,15.26-.85,8.78-2.08,24.58,4.36,41.25a5.2,5.2,0,0,0,1.51,1.82c2.52,2.16,7.8,4.92,14.4,7.71,2.73,1.16,5.68,2.31,8.76,3.43a203.06,203.06,0,0,0,20.77,6.36c3.9.95,7.64,1.7,11,2.18h.1a59.69,59.69,0,0,1-6.59,3.58c-.94.43-1.89.84-2.85,1.22-1.24.51-2.5.95-3.77,1.36q-2.61.86-5.28,1.47c-.64.14-1.28.29-1.93.42l-.76.13c-.5.08-1,.17-1.49.24l-1.33.19a58.56,58.56,0,0,1-27.75-3.13l-7.94-2.92-13.62-5-.5-.18-28.66-10.53L255,323.43l-3.31-1.21h0L248.44,321l-.09,0-9.79-3.59-.4-.16a58.69,58.69,0,0,1-32.78-30.54q-1.08-2.35-1.95-4.77A194.08,194.08,0,0,0,226.8,292.13Zm145.47,59.66a5.4,5.4,0,0,1,3.45,8.62l-10.07,13.13q-3.6-6.56-7.69-12.62-3.39-5-7-9.52a62.38,62.38,0,0,0,6.17-2ZM266.94,338.05a4.9,4.9,0,0,1,.75-.33,3.8,3.8,0,0,1,1.07-.23H269a3.42,3.42,0,0,1,1.19.2l.19.1a3.54,3.54,0,0,1,.84.54l.18.15a4.59,4.59,0,0,1,1,1.57,6,6,0,0,1,.3,3,6.15,6.15,0,0,1-.3,1.25.06.06,0,0,1,0,0l-.74,2-.16.43a6.15,6.15,0,0,1-2.69,3.29,5.07,5.07,0,0,1-.76.34,3.67,3.67,0,0,1-2.53,0h0a3.48,3.48,0,0,1-1.24-.8,3.81,3.81,0,0,1-.67-.86,4.61,4.61,0,0,1-.36-.74,5.18,5.18,0,0,1-.32-1.61,6.35,6.35,0,0,1,.36-2.64l.59-1.62.26-.71.05-.15a6.59,6.59,0,0,1,.93-1.69,6.94,6.94,0,0,1,.49-.57A6,6,0,0,1,266.94,338.05Zm-1.26-5.66,1.49.55c-.22.05-.45.11-.67.18Zm5.5,21.82a10.88,10.88,0,0,0,4.5-5c.11-.26.22-.51.32-.78l.9-2.47a11.51,11.51,0,0,0,.62-2.77,11,11,0,0,0-.13-3.15,72.94,72.94,0,0,1,14.14,1.86l12.89,4.74c.47.25.94.5,1.4.77,1,.59,1.74,3.1,1.48,6.89a33.6,33.6,0,0,1-1.67,8c-3.07,9.26-6.13,12.31-8,12.05-.55-.07-1.09-.17-1.63-.28-11.85-2.41-21-13.19-25.53-19.54A6.08,6.08,0,0,0,271.18,354.21ZM232.9,320.92l.23,0c1.25.23,2.47.52,3.67.84l.13.05,5.71,2.1,3,1.11h0l.65.24,1.22.61c.29.14.59.28.87.43a74.62,74.62,0,0,1,13.88,9.42,10.84,10.84,0,0,0-1.81,2.47,12,12,0,0,0-.68,1.51l-.31.85-.59,1.63a11,11,0,0,0-.44,6.11c-6.46,2-24.13,6.32-36.41-1.46l-.2-.17a1.71,1.71,0,0,1-.33-.37,5.06,5.06,0,0,1-.61-2.77,17.28,17.28,0,0,1,.48-3.83,47.34,47.34,0,0,1,2.3-7.22,33.31,33.31,0,0,1,3.89-7.23C229.67,322.39,231.7,320.92,232.9,320.92ZM372.14,386.7l13.92,1.21a5.4,5.4,0,0,1,4,8.36l-9.34,14.08A191,191,0,0,0,372.14,386.7Zm12.4,38.66h7.26a5.4,5.4,0,0,1,4.74,8l-8.32,15.28A221.53,221.53,0,0,0,384.54,425.36Zm82.44-49c-.15,3.81-.44,7.64-.87,11.46a179,179,0,0,1-76.81,75.59q-.17-4.1-.48-8.15a175.38,175.38,0,0,0,17.36-13.11c.7-.6,1.39-1.19,2.08-1.8s1.41-1.28,2.12-1.92A171.3,171.3,0,0,0,426.94,421l1.06-1.31c.17-.21.35-.42.51-.63.42-.51.81-1,1.22-1.55.1-.14.2-.27.31-.4l1.66-2.17a161,161,0,0,0,12.6-19.71c.38-.7.75-1.4,1.12-2.11l.16-.32c.31-.6.63-1.19.93-1.8.18-.35.34-.71.52-1.07.55-1.12,1.08-2.24,1.6-3.37A142.08,142.08,0,0,0,456,367c.22-.76.45-1.52.66-2.29s.4-1.54.59-2.31c.48-1.87.93-3.74,1.32-5.62a3.78,3.78,0,0,1,3.88-3.19h.28a5.07,5.07,0,0,1,.92.16,3.86,3.86,0,0,1,2.93,3.58q.39,4.51.5,9.08Q467.17,371.38,467,376.37Zm-56.85,41.09a5.38,5.38,0,0,1,5.27-.83l6.87,2.59a166.12,166.12,0,0,1-12.69,13.49l-1.43-10.29A5.38,5.38,0,0,1,410.13,417.46Zm21.21-24.32a5.38,5.38,0,0,1,5.27-.83l3.23,1.22a156.86,156.86,0,0,1-9.08,14.62l-1.4-10A5.33,5.33,0,0,1,431.34,393.14Zm15.1-26.59a5.35,5.35,0,0,1,5-1.4l.09,0A134.4,134.4,0,0,1,446.77,379L445,371.69A5.36,5.36,0,0,1,446.44,366.55Zm25.27,9.71a157.73,157.73,0,0,0-.45-19.34,8.67,8.67,0,0,0-8.28-8.05,8.56,8.56,0,0,0-9.08,6.94c-.34,1.6-.72,3.2-1.11,4.79a10.13,10.13,0,0,0-12.4,12.22l3.25,13.24c-.51,1.09-1,2.17-1.58,3.25l-3.78-1.43a10.13,10.13,0,0,0-13.61,10.87l2.07,14.88c-.44.58-.88,1.15-1.33,1.71l-8.34-3.14a10.12,10.12,0,0,0-13.6,10.87l1.88,13.55q-4.58,4-9.46,7.81l4.8-8.83a10.13,10.13,0,0,0-8.89-15h-8.33q-.54-2.33-1.14-4.62a10.34,10.34,0,0,0,1.59-1.88L394,398.89a10.13,10.13,0,0,0-7.56-15.69l-16.6-1.45q-.89-1.83-1.8-3.63a4,4,0,0,0,.27-.31l11.13-14.52A10.13,10.13,0,0,0,373,347.12l-8.09-1.27a64.59,64.59,0,0,0,10.5-7c.39-.2.78-.44,1.17-.68l19.85,1.73c.3,0,.61,0,.91,0A10.14,10.14,0,0,0,405.62,324l-9.27-13.24c1.63-3.31,3.17-6.69,4.61-10l20.25-3.48A10.13,10.13,0,0,0,426,279.54l-17.49-14.81c.14-1.89.22-3.79.22-5.67l18.83-16.43A10.13,10.13,0,0,0,422.52,225l-23-3.61a81.66,81.66,0,0,0-4.15-7,10.13,10.13,0,0,0,1.77-3.06l8.74-24a10.13,10.13,0,0,0-13-13l-24,8.74a10,10,0,0,0-4.72,3.57c-1.34-.67-2.69-1.31-4.08-1.9a10.1,10.1,0,0,0,3-8l-2.15-25.46a10.13,10.13,0,0,0-17.23-6.34l-18.13,18a10.08,10.08,0,0,0-3,7.9l-10.68-3.93a80.89,80.89,0,0,0-96.39,33.1l-1.3-.36a3.63,3.63,0,0,0-1.86-1.49l-7.74-2.82a3.11,3.11,0,0,0-4.08,1.49l-2.36,6.51a3.09,3.09,0,0,0,2.16,3.76l.95.34c-7,19.31-19.86,60-7.49,68.77,1.1.78,2.3,1.56,3.59,2.35a64.15,64.15,0,0,0,3.7,10.19,63.48,63.48,0,0,0,27.15,29.2c-3.62,2.53-6.85,7.6-8.94,12.86-2.4,6-3.43,10.77-3.08,14.24a135.87,135.87,0,0,0-11.41,14.29H139.66a177.17,177.17,0,0,1-8.51-54.37c0-98,79.74-177.77,177.76-177.77S486.68,206.87,486.68,304.9A176.7,176.7,0,0,1,471.71,376.26ZM289.92,546.51a11.8,11.8,0,0,1-3.61,7.88,9.11,9.11,0,0,1-7.35,2.29,9.64,9.64,0,0,1-6.94-3.86,11.42,11.42,0,0,1-2-8.44l3.76-35.18-17.8-1.91-3.77,35.18a26.68,26.68,0,0,0,2,14.11A23.48,23.48,0,0,0,263,566.7a32.38,32.38,0,0,0,14.38,4.79,31.6,31.6,0,0,0,14.9-1.66,23.09,23.09,0,0,0,10.6-8,27.3,27.3,0,0,0,4.85-13.38l3.76-35.18-17.81-1.9Zm100.17-52.67,27,54,16-8-26.95-54ZM161.94,532.26l16.69,7.79,7.36-7.21,22.07,10.31-.88,10.23,17.32,8.09,3-65.21-16.69-7.79Zm47.37-3-13.26-6.19,15-14.73Z"/></g></svg>