<?xml version="1.0" encoding="UTF-8" standalone="no"?>
<!DOCTYPE svg PUBLIC "-//W3C//DTD SVG 1.1//EN" "http://www.w3.org/Graphics/SVG/1.1/DTD/svg11.dtd">
<!-- Created with Vectornator (http://vectornator.io/) -->
<svg height="100%" stroke-miterlimit="10" style="fill-rule:nonzero;clip-rule:evenodd;stroke-linecap:round;stroke-linejoin:round;" version="1.1" viewBox="0 0 2198 2204" width="100%" xml:space="preserve" xmlns="http://www.w3.org/2000/svg" xmlns:xlink="http://www.w3.org/1999/xlink">
<defs/>
<clipPath id="ArtboardFrame">
<rect height="2204" width="2198" x="0" y="0"/>
</clipPath>
<g clip-path="url(#ArtboardFrame)" id="Bg_stars">
<g opacity="1">
<g opacity="1">
<path d="M1102.52 2088.33C1096.08 2092.35 1089.65 2096.38 1083.21 2100.4" fill="#f2b63c" fill-opacity="0.467913" fill-rule="evenodd" stroke="none"/>
<path d="M1103.75 2052.62C1096.87 2052.38 1089.87 2054.11 1083.59 2058.03C1083.26 2058.7 1082.86 2059.34 1082.59 2060.03C1082.29 2060.81 1081.95 2061.6 1081.88 2062.44C1081.76 2063.7 1081.98 2064.98 1082 2066.25C1082.02 2067.44 1081.91 2068.63 1082 2069.81C1082.12 2071.36 1082.46 2072.86 1082.62 2074.41C1082.77 2075.76 1082.85 2077.14 1082.94 2078.5C1083.4 2085.8 1083.29 2093.1 1083.22 2100.41C1091.02 2104.12 1098.99 2107.69 1106.31 2112.31C1107.62 2113.14 1108.82 2114.12 1110.16 2114.91C1111.18 2115.51 1112.32 2115.9 1113.38 2116.44C1114.51 2117.01 1115.56 2117.8 1116.75 2118.25C1117.54 2118.55 1118.38 2118.56 1119.22 2118.62C1119.96 2118.68 1120.7 2118.63 1121.44 2118.62C1138.17 2108.17 1143.27 2086.13 1132.81 2069.41C1126.28 2058.95 1115.21 2053.03 1103.75 2052.62Z" fill="#f2b63c" fill-opacity="0.0183476" stroke="none"/>
</g>
<path d="M1167.2 1446.76L1157.41 1426.93L1135.53 1423.75L1151.36 1408.32L1147.63 1386.53L1167.2 1396.82L1186.76 1386.53L1183.03 1408.32L1198.86 1423.75L1176.98 1426.93L1167.2 1446.76Z" fill="#f2b63c" fill-opacity="0.467913" fill-rule="evenodd" opacity="1" stroke="#f2b63c" stroke-linecap="round" stroke-linejoin="round" stroke-opacity="0.0183476" stroke-width="78.5026"/>
<path d="M1972.89 1355.76L1963.11 1335.93L1941.23 1332.75L1957.06 1317.32L1953.32 1295.53L1972.89 1305.82L1992.46 1295.53L1988.72 1317.32L2004.55 1332.75L1982.68 1335.93L1972.89 1355.76Z" fill="#f2b63c" fill-opacity="0.467913" fill-rule="evenodd" opacity="1" stroke="#f2b63c" stroke-linecap="round" stroke-linejoin="round" stroke-opacity="0.0183476" stroke-width="78.5026"/>
<path d="M416.989 463.5L407.204 443.674L385.325 440.495L401.157 425.063L397.42 403.272L416.989 413.56L436.558 403.272L432.821 425.063L448.652 440.495L426.773 443.674L416.989 463.5Z" fill="#f2b63c" fill-opacity="0.467913" fill-rule="evenodd" opacity="1" stroke="#f2b63c" stroke-linecap="round" stroke-linejoin="round" stroke-opacity="0.0183476" stroke-width="78.5026"/>
<path d="M244.724 1566.71L242.468 1563.31L237.423 1562.76L241.073 1560.11L240.212 1556.36L244.724 1558.13L249.237 1556.36L248.375 1560.11L252.026 1562.76L246.98 1563.31L244.724 1566.71Z" fill="#f2b63c" fill-opacity="0.467913" fill-rule="evenodd" opacity="1" stroke="#f2b63c" stroke-linecap="round" stroke-linejoin="round" stroke-opacity="0.0183476" stroke-width="78.5026"/>
<path d="M698.871 2117.06L685.173 2089.31L654.542 2084.85L676.707 2063.25L671.474 2032.74L698.871 2047.15L726.268 2032.74L721.036 2063.25L743.2 2084.85L712.57 2089.31L698.871 2117.06Z" fill="#f2b63c" fill-opacity="0.467913" fill-rule="evenodd" opacity="1" stroke="#f2b63c" stroke-linecap="round" stroke-linejoin="round" stroke-opacity="0.0183476" stroke-width="78.5026"/>
<path d="M1846.38 1990.55L1843.11 1983.94L1835.82 1982.88L1841.1 1977.74L1839.85 1970.47L1846.38 1973.9L1852.9 1970.47L1851.65 1977.74L1856.93 1982.88L1849.64 1983.94L1846.38 1990.55Z" fill="#f2b63c" fill-opacity="0.467913" fill-rule="evenodd" opacity="1" stroke="#f2b63c" stroke-linecap="round" stroke-linejoin="round" stroke-opacity="0.0183476" stroke-width="78.5026"/>
<path d="M197.254 863.018L186.164 840.549L161.368 836.946L179.311 819.456L175.075 794.76L197.254 806.42L219.432 794.76L215.196 819.456L233.139 836.946L208.343 840.549L197.254 863.018Z" fill="#f2b63c" fill-opacity="0.467913" fill-rule="evenodd" opacity="1" stroke="#f2b63c" stroke-linecap="round" stroke-linejoin="round" stroke-opacity="0.0183476" stroke-width="78.5026"/>
<path d="M991.851 605.551L983.371 588.369L964.409 585.613L978.13 572.239L974.891 553.354L991.851 562.27L1008.81 553.354L1005.57 572.239L1019.29 585.613L1000.33 588.369L991.851 605.551Z" fill="#f2b63c" fill-opacity="0.467913" fill-rule="evenodd" opacity="1" stroke="#f2b63c" stroke-linecap="round" stroke-linejoin="round" stroke-opacity="0.0183476" stroke-width="78.5026"/>
<path d="M1358.08 2052.7L1353.51 2043.44L1343.3 2041.96L1350.69 2034.76L1348.94 2024.59L1358.08 2029.39L1367.21 2024.59L1365.46 2034.76L1372.85 2041.96L1362.64 2043.44L1358.08 2052.7Z" fill="#f2b63c" fill-opacity="0.467913" fill-rule="evenodd" opacity="1" stroke="#f2b63c" stroke-linecap="round" stroke-linejoin="round" stroke-opacity="0.0183476" stroke-width="78.5026"/>
<path d="M643.136 463.787L632.346 452.665L636.468 434.67L649.804 434.67L653.925 452.665L643.136 463.787Z" fill="#f2b63c" fill-opacity="0.467913" fill-rule="evenodd" opacity="1" stroke="#f2b63c" stroke-linecap="round" stroke-linejoin="round" stroke-opacity="0.0183476" stroke-width="78.5026"/>
<path d="M179.497 297.034C179.497 288.453 186.453 281.497 195.034 281.497C203.615 281.497 210.571 288.453 210.571 297.034C210.571 305.615 203.615 312.571 195.034 312.571C186.453 312.571 179.497 305.615 179.497 297.034Z" fill="#f2b63c" fill-opacity="0.467913" fill-rule="evenodd" opacity="1" stroke="#f2b63c" stroke-linecap="round" stroke-linejoin="round" stroke-opacity="0.0183476" stroke-width="78.5026"/>
<path d="M135.106 1241.42C135.106 1239.6 136.007 1238.12 137.118 1238.12C138.229 1238.12 139.129 1239.6 139.129 1241.42C139.129 1243.23 138.229 1244.71 137.118 1244.71C136.007 1244.71 135.106 1243.23 135.106 1241.42Z" fill="#f2b63c" fill-opacity="0.467913" fill-rule="evenodd" opacity="1" stroke="#f2b63c" stroke-linecap="round" stroke-linejoin="round" stroke-opacity="0.0183476" stroke-width="78.5026"/>
<path d="M208.351 1932.84C208.351 1927.94 213.32 1923.96 219.449 1923.96C225.578 1923.96 230.547 1927.94 230.547 1932.84C230.547 1937.74 225.578 1941.72 219.449 1941.72C213.32 1941.72 208.351 1937.74 208.351 1932.84Z" fill="#f2b63c" fill-opacity="0.467913" fill-rule="evenodd" opacity="1" stroke="#f2b63c" stroke-linecap="round" stroke-linejoin="round" stroke-opacity="0.0183476" stroke-width="78.5026"/>
<path d="M2079.43 1622.15C2079.43 1616 2083.38 1611.01 2088.26 1611.01C2093.14 1611.01 2097.1 1616 2097.1 1622.15C2097.1 1628.31 2093.14 1633.3 2088.26 1633.3C2083.38 1633.3 2079.43 1628.31 2079.43 1622.15Z" fill="#f2b63c" fill-opacity="0.467913" fill-rule="evenodd" opacity="1" stroke="#f2b63c" stroke-linecap="round" stroke-linejoin="round" stroke-opacity="0.0183476" stroke-width="78.5026"/>
<path d="M2057.23 224.899C2057.23 181.382 2089.03 146.105 2128.26 146.105C2167.49 146.105 2199.28 181.382 2199.28 224.899C2199.28 268.416 2167.49 303.693 2128.26 303.693C2089.03 303.693 2057.23 268.416 2057.23 224.899Z" fill="#f2b63c" fill-opacity="0.467913" fill-rule="evenodd" opacity="1" stroke="#f2b63c" stroke-linecap="round" stroke-linejoin="round" stroke-opacity="0.0183476" stroke-width="78.5026"/>
<path d="M2023.94 854.186C2023.94 844.354 2028.61 836.384 2034.38 836.384C2040.15 836.384 2044.82 844.354 2044.82 854.186C2044.82 864.019 2040.15 871.989 2034.38 871.989C2028.61 871.989 2023.94 864.019 2023.94 854.186Z" fill="#f2b63c" fill-opacity="0.467913" fill-rule="evenodd" opacity="1" stroke="#f2b63c" stroke-linecap="round" stroke-linejoin="round" stroke-opacity="0.0183476" stroke-width="78.5026"/>
<path d="M201.693 614.429L196.474 603.855L184.805 602.16L193.249 593.929L191.256 582.308L201.693 587.795L212.13 582.308L210.136 593.929L218.58 602.16L206.911 603.855L201.693 614.429Z" fill="#ffffd7" fill-rule="evenodd" opacity="1" stroke="#f2b63c" stroke-linecap="round" stroke-linejoin="round" stroke-opacity="0.0183476" stroke-width="78.5026"/>
<path d="M499.112 616.649L499.764 617.971L501.223 618.182L500.167 619.211L500.417 620.664L499.112 619.978L497.807 620.664L498.057 619.211L497.001 618.182L498.46 617.971L499.112 616.649Z" fill="#ffffd7" fill-rule="evenodd" opacity="1" stroke="#f2b63c" stroke-linecap="round" stroke-linejoin="round" stroke-opacity="0.0183476" stroke-width="78.5026"/>
<path d="M343.744 1286.95L338.525 1276.38L326.856 1274.68L335.3 1266.45L333.307 1254.83L343.744 1260.32L354.181 1254.83L352.187 1266.45L360.631 1274.68L348.962 1276.38L343.744 1286.95Z" fill="#ffffd7" fill-rule="evenodd" opacity="1" stroke="#f2b63c" stroke-linecap="round" stroke-linejoin="round" stroke-opacity="0.0183476" stroke-width="78.5026"/>
<path d="M441.404 1861.81L431.619 1841.99L409.74 1838.81L425.572 1823.38L421.835 1801.59L441.404 1811.87L460.973 1801.59L457.236 1823.38L473.067 1838.81L451.188 1841.99L441.404 1861.81Z" fill="#ffffd7" fill-rule="evenodd" opacity="1" stroke="#f2b63c" stroke-linecap="round" stroke-linejoin="round" stroke-opacity="0.0183476" stroke-width="78.5026"/>
<path d="M1728.74 1726.42L1730.7 1730.39L1735.07 1731.02L1731.91 1734.11L1732.65 1738.47L1728.74 1736.41L1724.83 1738.47L1725.57 1734.11L1722.41 1731.02L1726.78 1730.39L1728.74 1726.42Z" fill="#ffffd7" fill-rule="evenodd" opacity="1" stroke="#f2b63c" stroke-linecap="round" stroke-linejoin="round" stroke-opacity="0.0183476" stroke-width="78.5026"/>
<path d="M1475.71 419.109L1463.97 395.318L1437.72 391.503L1456.71 372.984L1452.23 346.836L1475.71 359.181L1499.2 346.836L1494.71 372.984L1513.71 391.503L1487.45 395.318L1475.71 419.109Z" fill="#ffffd7" fill-rule="evenodd" opacity="1" stroke="#f2b63c" stroke-linecap="round" stroke-linejoin="round" stroke-opacity="0.0183476" stroke-width="78.5026"/>
<path d="M2072.77 314.791L2063.64 296.286L2043.22 293.319L2057.99 278.916L2054.51 258.578L2072.77 268.18L2091.03 258.578L2087.55 278.916L2102.32 293.319L2081.9 296.286L2072.77 314.791Z" fill="#ffffd7" fill-rule="evenodd" opacity="1" stroke="#f2b63c" stroke-linecap="round" stroke-linejoin="round" stroke-opacity="0.0183476" stroke-width="78.5026"/>
<path d="M2070.55 1082.75L2064.03 1069.54L2049.44 1067.42L2060 1057.13L2057.5 1042.6L2070.55 1049.46L2083.6 1042.6L2081.11 1057.13L2091.66 1067.42L2077.07 1069.54L2070.55 1082.75Z" fill="#ffffd7" fill-rule="evenodd" opacity="1" stroke="#f2b63c" stroke-linecap="round" stroke-linejoin="round" stroke-opacity="0.0183476" stroke-width="78.5026"/>
<path d="M1651.06 800.871L1645.19 788.976L1632.06 787.068L1641.56 777.809L1639.31 764.734L1651.06 770.907L1662.8 764.734L1660.56 777.809L1670.05 787.068L1656.93 788.976L1651.06 800.871Z" fill="#ffffd7" fill-rule="evenodd" opacity="1" stroke="#f2b63c" stroke-linecap="round" stroke-linejoin="round" stroke-opacity="0.0183476" stroke-width="78.5026"/>
<path d="M2032.82 2145.92L2022.38 2124.77L1999.04 2121.38L2015.93 2104.92L2011.94 2081.67L2032.82 2092.65L2053.69 2081.67L2049.71 2104.92L2066.59 2121.38L2043.26 2124.77L2032.82 2145.92Z" fill="#ffffd7" fill-rule="evenodd" opacity="1" stroke="#f2b63c" stroke-linecap="round" stroke-linejoin="round" stroke-opacity="0.0183476" stroke-width="78.5026"/>
<path d="M1100.56 2103.11L1097.23 2096.38L1089.81 2095.3L1095.18 2090.07L1093.91 2082.67L1100.56 2086.16L1107.2 2082.67L1105.93 2090.07L1111.3 2095.3L1103.88 2096.38L1100.56 2103.11Z" fill="#ffffd7" fill-rule="evenodd" opacity="1" stroke="#f2b63c" stroke-linecap="round" stroke-linejoin="round" stroke-opacity="0.0183476" stroke-width="78.5026"/>
<path d="M1012.4 414.562L1013.06 415.908L1014.55 416.124L1013.47 417.172L1013.73 418.652L1012.4 417.953L1011.07 418.652L1011.32 417.172L1010.25 416.124L1011.73 415.908L1012.4 414.562Z" fill="#ffffd7" fill-rule="evenodd" opacity="1" stroke="#f2b63c" stroke-linecap="round" stroke-linejoin="round" stroke-opacity="0.0183476" stroke-width="78.5026"/>
<path d="M282.275 132.007L282.939 133.353L284.424 133.569L283.35 134.617L283.603 136.096L282.275 135.397L280.946 136.096L281.2 134.617L280.125 133.569L281.61 133.353L282.275 132.007Z" fill="#ffffd7" fill-rule="evenodd" opacity="1" stroke="#f2b63c" stroke-linecap="round" stroke-linejoin="round" stroke-opacity="0.0183476" stroke-width="78.5026"/>
<path d="M189.596 1054.27L193.582 1062.34L202.495 1063.64L196.046 1069.93L197.568 1078.8L189.596 1074.61L181.625 1078.8L183.147 1069.93L176.698 1063.64L185.61 1062.34L189.596 1054.27Z" fill="#ffffd7" fill-rule="evenodd" opacity="1" stroke="#f2b63c" stroke-linecap="round" stroke-linejoin="round" stroke-opacity="0.0183476" stroke-width="78.5026"/>
<path d="M399.818 839.526L399.153 838.18L397.668 837.964L398.743 836.916L398.489 835.437L399.818 836.135L401.146 835.437L400.893 836.916L401.968 837.964L400.482 838.18L399.818 839.526Z" fill="#ffffd7" fill-rule="evenodd" opacity="1" stroke="#f2b63c" stroke-linecap="round" stroke-linejoin="round" stroke-opacity="0.0183476" stroke-width="78.5026"/>
<path d="M2068.03 1434.02L2071.35 1440.75L2078.77 1441.83L2073.4 1447.07L2074.67 1454.47L2068.03 1450.98L2061.38 1454.47L2062.65 1447.07L2057.28 1441.83L2064.7 1440.75L2068.03 1434.02Z" fill="#ffffd7" fill-rule="evenodd" opacity="1" stroke="#f2b63c" stroke-linecap="round" stroke-linejoin="round" stroke-opacity="0.0183476" stroke-width="78.5026"/>
<path d="M761.489 1693.97L762.817 1696.67L765.788 1697.1L763.639 1699.19L764.146 1702.15L761.489 1700.75L758.831 1702.15L759.339 1699.19L757.189 1697.1L760.16 1696.67L761.489 1693.97Z" fill="#ffffd7" fill-rule="evenodd" opacity="1" stroke="#f2b63c" stroke-linecap="round" stroke-linejoin="round" stroke-opacity="0.0183476" stroke-width="78.5026"/>
<path d="M1317.56 1366.21L1318.22 1367.56L1319.71 1367.77L1318.63 1368.82L1318.89 1370.3L1317.56 1369.6L1316.23 1370.3L1316.48 1368.82L1315.41 1367.77L1316.89 1367.56L1317.56 1366.21Z" fill="#ffffd7" fill-rule="evenodd" opacity="1" stroke="#f2b63c" stroke-linecap="round" stroke-linejoin="round" stroke-opacity="0.0183476" stroke-width="78.5026"/>
<path d="M1654.36 2146.06L1655.69 2148.75L1658.66 2149.19L1656.51 2151.28L1657.02 2154.24L1654.36 2152.84L1651.71 2154.24L1652.21 2151.28L1650.06 2149.19L1653.04 2148.75L1654.36 2146.06Z" fill="#ffffd7" fill-rule="evenodd" opacity="1" stroke="#f2b63c" stroke-linecap="round" stroke-linejoin="round" stroke-opacity="0.0183476" stroke-width="78.5026"/>
<path d="M1459.97 1759.53L1455.98 1751.45L1447.07 1750.15L1453.52 1743.87L1451.99 1734.99L1459.97 1739.18L1467.94 1734.99L1466.42 1743.87L1472.86 1750.15L1463.95 1751.45L1459.97 1759.53Z" fill="#ffffd7" fill-rule="evenodd" opacity="1" stroke="#f2b63c" stroke-linecap="round" stroke-linejoin="round" stroke-opacity="0.0183476" stroke-width="78.5026"/>
<path d="M171.513 2170.93L165.534 2158.81L152.165 2156.87L161.839 2147.44L159.555 2134.12L171.513 2140.41L183.471 2134.12L181.187 2147.44L190.861 2156.87L177.492 2158.81L171.513 2170.93Z" fill="#ffffd7" fill-rule="evenodd" opacity="1" stroke="#f2b63c" stroke-linecap="round" stroke-linejoin="round" stroke-opacity="0.0183476" stroke-width="78.5026"/>
<path d="M1123.16 728.764L1128.47 739.533L1140.36 741.259L1131.76 749.642L1133.79 761.477L1123.16 755.889L1112.53 761.477L1114.56 749.642L1105.96 741.259L1117.85 739.533L1123.16 728.764Z" fill="#ffffd7" fill-rule="evenodd" opacity="1" stroke="#f2b63c" stroke-linecap="round" stroke-linejoin="round" stroke-opacity="0.0183476" stroke-width="78.5026"/>
<path d="M2025.08 516.282L2026.41 518.974L2029.38 519.406L2027.23 521.502L2027.73 524.461L2025.08 523.064L2022.42 524.461L2022.93 521.502L2020.78 519.406L2023.75 518.974L2025.08 516.282Z" fill="#ffffd7" fill-rule="evenodd" opacity="1" stroke="#f2b63c" stroke-linecap="round" stroke-linejoin="round" stroke-opacity="0.0183476" stroke-width="78.5026"/>
<path d="M1577.51 566.012L1583.49 578.127L1596.86 580.069L1587.18 589.499L1589.47 602.815L1577.51 596.528L1565.55 602.815L1567.83 589.499L1558.16 580.069L1571.53 578.127L1577.51 566.012Z" fill="#ffffd7" fill-rule="evenodd" opacity="1" stroke="#f2b63c" stroke-linecap="round" stroke-linejoin="round" stroke-opacity="0.0183476" stroke-width="78.5026"/>
<path d="M840.604 75.4957L844.59 83.5722L853.503 84.8673L847.054 91.1539L848.576 100.031L840.604 95.8397L832.632 100.031L834.155 91.1539L827.705 84.8673L836.618 83.5722L840.604 75.4957Z" fill="#ffffd7" fill-rule="evenodd" opacity="1" stroke="#f2b63c" stroke-linecap="round" stroke-linejoin="round" stroke-opacity="0.0183476" stroke-width="78.5026"/>
<path d="M1161.59 86.798L1160.26 84.1058L1157.29 83.6741L1159.44 81.5786L1158.93 78.6196L1161.59 80.0166L1164.24 78.6196L1163.74 81.5786L1165.89 83.6741L1162.92 84.1058L1161.59 86.798Z" fill="#ffffd7" fill-rule="evenodd" opacity="1" stroke="#f2b63c" stroke-linecap="round" stroke-linejoin="round" stroke-opacity="0.0183476" stroke-width="78.5026"/>
<path d="M718.54 656.43L717.876 655.084L716.391 654.868L717.465 653.82L717.212 652.341L718.54 653.039L719.869 652.341L719.615 653.82L720.69 654.868L719.205 655.084L718.54 656.43Z" fill="#ffffd7" fill-rule="evenodd" opacity="1" stroke="#f2b63c" stroke-linecap="round" stroke-linejoin="round" stroke-opacity="0.0183476" stroke-width="78.5026"/>
<path d="M128.564 1698.49L129.893 1701.19L132.864 1701.62L130.714 1703.71L131.222 1706.67L128.564 1705.28L125.907 1706.67L126.415 1703.71L124.265 1701.62L127.236 1701.19L128.564 1698.49Z" fill="#ffffd7" fill-rule="evenodd" opacity="1" stroke="#f2b63c" stroke-linecap="round" stroke-linejoin="round" stroke-opacity="0.0183476" stroke-width="78.5026"/>
<path d="M535.444 1359.43L538.102 1364.81L544.044 1365.68L539.744 1369.87L540.759 1375.78L535.444 1372.99L530.13 1375.78L531.145 1369.87L526.845 1365.68L532.787 1364.81L535.444 1359.43Z" fill="#ffffd7" fill-rule="evenodd" opacity="1" stroke="#f2b63c" stroke-linecap="round" stroke-linejoin="round" stroke-opacity="0.0183476" stroke-width="78.5026"/>
<path d="M2061.24 1854.47L2061.91 1855.81L2063.39 1856.03L2062.32 1857.07L2062.57 1858.55L2061.24 1857.86L2059.92 1858.55L2060.17 1857.07L2059.09 1856.03L2060.58 1855.81L2061.24 1854.47Z" fill="#ffffd7" fill-rule="evenodd" opacity="1" stroke="#f2b63c" stroke-linecap="round" stroke-linejoin="round" stroke-opacity="0.0183476" stroke-width="78.5026"/>
<path d="M1740.26 1339.08L1743.58 1345.81L1751.01 1346.89L1745.64 1352.13L1746.9 1359.53L1740.26 1356.04L1733.62 1359.53L1734.89 1352.13L1729.51 1346.89L1736.94 1345.81L1740.26 1339.08Z" fill="#ffffd7" fill-rule="evenodd" opacity="1" stroke="#f2b63c" stroke-linecap="round" stroke-linejoin="round" stroke-opacity="0.0183476" stroke-width="78.5026"/>
<path d="M676.402 989.476L669.742 975.982L654.85 973.818L665.626 963.314L663.082 948.482L676.402 955.485L689.722 948.482L687.178 963.314L697.954 973.818L683.062 975.982L676.402 989.476Z" fill="#ffffd7" fill-rule="evenodd" opacity="1" stroke="none"/>
<path d="M824.729 1411.8L819.28 1400.76L807.096 1398.99L815.913 1390.39L813.831 1378.26L824.729 1383.99L835.628 1378.26L833.546 1390.39L842.363 1398.99L830.179 1400.76L824.729 1411.8Z" fill="#ffffd7" fill-rule="evenodd" opacity="1" stroke="none"/>
<path d="M1858.9 1586.91L1859.51 1588.13L1860.86 1588.33L1859.88 1589.29L1860.12 1590.63L1858.9 1590L1857.69 1590.63L1857.92 1589.29L1856.94 1588.33L1858.3 1588.13L1858.9 1586.91Z" fill="#ffffd7" fill-rule="evenodd" opacity="1" stroke="none"/>
<path d="M538.809 302.924L534.571 294.337L525.094 292.959L531.951 286.275L530.333 276.837L538.809 281.293L547.285 276.837L545.666 286.275L552.524 292.959L543.047 294.337L538.809 302.924Z" fill="#ffffd7" fill-rule="evenodd" opacity="1" stroke="none"/>
<path d="M1366.54 1003.9L1365.93 1002.67L1364.58 1002.47L1365.56 1001.52L1365.33 1000.17L1366.54 1000.81L1367.75 1000.17L1367.52 1001.52L1368.5 1002.47L1367.14 1002.67L1366.54 1003.9Z" fill="#ffffd7" fill-rule="evenodd" opacity="1" stroke="none"/>
<path d="M1803.28 987.416L1802.07 984.963L1799.36 984.569L1801.32 982.659L1800.86 979.963L1803.28 981.236L1805.7 979.963L1805.24 982.659L1807.2 984.569L1804.49 984.963L1803.28 987.416Z" fill="#ffffd7" fill-rule="evenodd" opacity="1" stroke="none"/>
<path d="M1504.57 1399.44L1502.75 1395.76L1498.69 1395.17L1501.63 1392.3L1500.93 1388.26L1504.57 1390.17L1508.2 1388.26L1507.5 1392.3L1510.44 1395.17L1506.38 1395.76L1504.57 1399.44Z" fill="#ffffd7" fill-rule="evenodd" opacity="1" stroke="none"/>
<path d="M826.79 1914.47L824.368 1909.56L818.952 1908.77L822.871 1904.95L821.946 1899.56L826.79 1902.1L831.633 1899.56L830.708 1904.95L834.627 1908.77L829.211 1909.56L826.79 1914.47Z" fill="#ffffd7" fill-rule="evenodd" opacity="1" stroke="none"/>
<path d="M563.096 1638.41L563.701 1639.64L565.055 1639.83L564.075 1640.79L564.307 1642.14L563.096 1641.5L561.885 1642.14L562.116 1640.79L561.136 1639.83L562.49 1639.64L563.096 1638.41Z" fill="#ffffd7" fill-rule="evenodd" opacity="1" stroke="none"/>
<path d="M414.768 2099.88L415.373 2101.1L416.727 2101.3L415.747 2102.25L415.979 2103.6L414.768 2102.97L413.557 2103.6L413.788 2102.25L412.808 2101.3L414.162 2101.1L414.768 2099.88Z" fill="#ffffd7" fill-rule="evenodd" opacity="1" stroke="none"/>
<path d="M1172.89 1776.44L1171.68 1773.98L1168.97 1773.59L1170.93 1771.68L1170.47 1768.98L1172.89 1770.26L1175.31 1768.98L1174.85 1771.68L1176.81 1773.59L1174.1 1773.98L1172.89 1776.44Z" fill="#f2b63c" fill-opacity="0.467913" fill-rule="evenodd" opacity="0" stroke="none"/>
</g>
</g>
</svg>
